{
	"asset":{
		"generator":"Khronos glTF Blender I/O v4.0.44",
		"version":"2.0"
	},
	"scene":0,
	"scenes":[
		{
			"name":"Scene",
			"nodes":[
				4,
				9
			]
		}
	],
	"nodes":[
		{
			"mesh":0,
			"name":"Sphere.003"
		},
		{
			"mesh":1,
			"name":"Sphere.012"
		},
		{
			"mesh":2,
			"name":"Sphere.013"
		},
		{
			"mesh":3,
			"name":"Text.004"
		},
		{
			"children":[
				0,
				1,
				2,
				3
			],
			"mesh":4,
			"name":"Sphere.002"
		},
		{
			"mesh":5,
			"name":"Sphere.024"
		},
		{
			"mesh":6,
			"name":"Sphere.026"
		},
		{
			"mesh":7,
			"name":"Sphere.027"
		},
		{
			"mesh":8,
			"name":"Text.007"
		},
		{
			"children":[
				5,
				6,
				7,
				8
			],
			"mesh":9,
			"name":"Sphere.025"
		}
	],
	"animations":[
		{
			"channels":[
				{
					"sampler":0,
					"target":{
						"node":4,
						"path":"translation"
					}
				},
				{
					"sampler":1,
					"target":{
						"node":4,
						"path":"rotation"
					}
				},
				{
					"sampler":2,
					"target":{
						"node":4,
						"path":"scale"
					}
				}
			],
			"name":"Action",
			"samplers":[
				{
					"input":38,
					"interpolation":"LINEAR",
					"output":39
				},
				{
					"input":38,
					"interpolation":"LINEAR",
					"output":40
				},
				{
					"input":41,
					"interpolation":"STEP",
					"output":42
				}
			]
		},
		{
			"channels":[
				{
					"sampler":0,
					"target":{
						"node":0,
						"path":"translation"
					}
				},
				{
					"sampler":1,
					"target":{
						"node":0,
						"path":"rotation"
					}
				},
				{
					"sampler":2,
					"target":{
						"node":0,
						"path":"scale"
					}
				}
			],
			"name":"Action.007",
			"samplers":[
				{
					"input":41,
					"interpolation":"LINEAR",
					"output":43
				},
				{
					"input":41,
					"interpolation":"LINEAR",
					"output":44
				},
				{
					"input":41,
					"interpolation":"STEP",
					"output":45
				}
			]
		},
		{
			"channels":[
				{
					"sampler":0,
					"target":{
						"node":1,
						"path":"translation"
					}
				},
				{
					"sampler":1,
					"target":{
						"node":1,
						"path":"rotation"
					}
				},
				{
					"sampler":2,
					"target":{
						"node":1,
						"path":"scale"
					}
				}
			],
			"name":"Action.008",
			"samplers":[
				{
					"input":41,
					"interpolation":"LINEAR",
					"output":46
				},
				{
					"input":41,
					"interpolation":"LINEAR",
					"output":47
				},
				{
					"input":41,
					"interpolation":"STEP",
					"output":48
				}
			]
		},
		{
			"channels":[
				{
					"sampler":0,
					"target":{
						"node":2,
						"path":"translation"
					}
				},
				{
					"sampler":1,
					"target":{
						"node":2,
						"path":"rotation"
					}
				},
				{
					"sampler":2,
					"target":{
						"node":2,
						"path":"scale"
					}
				}
			],
			"name":"Action.009",
			"samplers":[
				{
					"input":41,
					"interpolation":"LINEAR",
					"output":49
				},
				{
					"input":41,
					"interpolation":"LINEAR",
					"output":50
				},
				{
					"input":41,
					"interpolation":"STEP",
					"output":51
				}
			]
		},
		{
			"channels":[
				{
					"sampler":0,
					"target":{
						"node":3,
						"path":"translation"
					}
				},
				{
					"sampler":1,
					"target":{
						"node":3,
						"path":"rotation"
					}
				},
				{
					"sampler":2,
					"target":{
						"node":3,
						"path":"scale"
					}
				}
			],
			"name":"Action.010",
			"samplers":[
				{
					"input":41,
					"interpolation":"LINEAR",
					"output":52
				},
				{
					"input":41,
					"interpolation":"LINEAR",
					"output":53
				},
				{
					"input":41,
					"interpolation":"STEP",
					"output":54
				}
			]
		},
		{
			"channels":[
				{
					"sampler":0,
					"target":{
						"node":9,
						"path":"translation"
					}
				},
				{
					"sampler":1,
					"target":{
						"node":9,
						"path":"rotation"
					}
				},
				{
					"sampler":2,
					"target":{
						"node":9,
						"path":"scale"
					}
				}
			],
			"name":"Action.003",
			"samplers":[
				{
					"input":38,
					"interpolation":"LINEAR",
					"output":55
				},
				{
					"input":38,
					"interpolation":"LINEAR",
					"output":56
				},
				{
					"input":41,
					"interpolation":"LINEAR",
					"output":57
				}
			]
		},
		{
			"channels":[
				{
					"sampler":0,
					"target":{
						"node":5,
						"path":"translation"
					}
				},
				{
					"sampler":1,
					"target":{
						"node":5,
						"path":"rotation"
					}
				},
				{
					"sampler":2,
					"target":{
						"node":5,
						"path":"scale"
					}
				}
			],
			"name":"Action.001",
			"samplers":[
				{
					"input":41,
					"interpolation":"LINEAR",
					"output":58
				},
				{
					"input":41,
					"interpolation":"LINEAR",
					"output":59
				},
				{
					"input":41,
					"interpolation":"STEP",
					"output":60
				}
			]
		},
		{
			"channels":[
				{
					"sampler":0,
					"target":{
						"node":6,
						"path":"translation"
					}
				},
				{
					"sampler":1,
					"target":{
						"node":6,
						"path":"rotation"
					}
				},
				{
					"sampler":2,
					"target":{
						"node":6,
						"path":"scale"
					}
				}
			],
			"name":"Action.004",
			"samplers":[
				{
					"input":41,
					"interpolation":"LINEAR",
					"output":61
				},
				{
					"input":41,
					"interpolation":"LINEAR",
					"output":62
				},
				{
					"input":41,
					"interpolation":"STEP",
					"output":63
				}
			]
		},
		{
			"channels":[
				{
					"sampler":0,
					"target":{
						"node":7,
						"path":"translation"
					}
				},
				{
					"sampler":1,
					"target":{
						"node":7,
						"path":"rotation"
					}
				},
				{
					"sampler":2,
					"target":{
						"node":7,
						"path":"scale"
					}
				}
			],
			"name":"Action.005",
			"samplers":[
				{
					"input":41,
					"interpolation":"LINEAR",
					"output":64
				},
				{
					"input":41,
					"interpolation":"LINEAR",
					"output":65
				},
				{
					"input":41,
					"interpolation":"STEP",
					"output":66
				}
			]
		},
		{
			"channels":[
				{
					"sampler":0,
					"target":{
						"node":8,
						"path":"translation"
					}
				},
				{
					"sampler":1,
					"target":{
						"node":8,
						"path":"rotation"
					}
				},
				{
					"sampler":2,
					"target":{
						"node":8,
						"path":"scale"
					}
				}
			],
			"name":"Action.006",
			"samplers":[
				{
					"input":41,
					"interpolation":"LINEAR",
					"output":67
				},
				{
					"input":41,
					"interpolation":"LINEAR",
					"output":68
				},
				{
					"input":41,
					"interpolation":"STEP",
					"output":69
				}
			]
		}
	],
	"materials":[
		{
			"doubleSided":true,
			"name":"buscute",
			"normalTexture":{
				"index":0
			},
			"pbrMetallicRoughness":{
				"baseColorTexture":{
					"index":1
				},
				"metallicFactor":0,
				"metallicRoughnessTexture":{
					"index":2
				}
			}
		},
		{
			"name":"Material.002",
			"normalTexture":{
				"index":3
			},
			"pbrMetallicRoughness":{
				"baseColorTexture":{
					"index":4
				},
				"metallicFactor":0,
				"metallicRoughnessTexture":{
					"index":5
				}
			}
		},
		{
			"doubleSided":true,
			"name":"Lingonberry",
			"normalTexture":{
				"index":6
			},
			"pbrMetallicRoughness":{
				"baseColorTexture":{
					"index":7
				},
				"metallicFactor":0,
				"metallicRoughnessTexture":{
					"index":8
				}
			}
		},
		{
			"doubleSided":true,
			"name":"Material.001",
			"normalTexture":{
				"index":9
			},
			"pbrMetallicRoughness":{
				"baseColorTexture":{
					"index":10
				},
				"metallicFactor":0,
				"metallicRoughnessTexture":{
					"index":11
				}
			}
		},
		{
			"doubleSided":true,
			"name":"Mercury",
			"pbrMetallicRoughness":{
				"baseColorTexture":{
					"index":12
				},
				"metallicFactor":0,
				"roughnessFactor":0.5
			}
		}
	],
	"meshes":[
		{
			"name":"Sphere.069",
			"primitives":[
				{
					"attributes":{
						"POSITION":0,
						"NORMAL":1,
						"TEXCOORD_0":2
					},
					"indices":3,
					"material":0
				}
			]
		},
		{
			"name":"Sphere.076",
			"primitives":[
				{
					"attributes":{
						"POSITION":4,
						"NORMAL":5,
						"TEXCOORD_0":6
					},
					"indices":7,
					"material":1
				}
			]
		},
		{
			"name":"Sphere.077",
			"primitives":[
				{
					"attributes":{
						"POSITION":8,
						"NORMAL":9,
						"TEXCOORD_0":10
					},
					"indices":11,
					"material":2
				}
			]
		},
		{
			"name":"Text.004",
			"primitives":[
				{
					"attributes":{
						"POSITION":12,
						"NORMAL":13,
						"TEXCOORD_0":14
					},
					"indices":15,
					"material":3
				}
			]
		},
		{
			"name":"Sphere",
			"primitives":[
				{
					"attributes":{
						"POSITION":16,
						"NORMAL":17,
						"TEXCOORD_0":18
					},
					"indices":19,
					"material":4
				}
			]
		},
		{
			"name":"Sphere.012",
			"primitives":[
				{
					"attributes":{
						"POSITION":20,
						"NORMAL":21,
						"TEXCOORD_0":22
					},
					"indices":23,
					"material":0
				}
			]
		},
		{
			"name":"Sphere.020",
			"primitives":[
				{
					"attributes":{
						"POSITION":24,
						"NORMAL":25,
						"TEXCOORD_0":26
					},
					"indices":27,
					"material":1
				}
			]
		},
		{
			"name":"Sphere.021",
			"primitives":[
				{
					"attributes":{
						"POSITION":28,
						"NORMAL":29,
						"TEXCOORD_0":30
					},
					"indices":11,
					"material":2
				}
			]
		},
		{
			"name":"Text.098",
			"primitives":[
				{
					"attributes":{
						"POSITION":31,
						"NORMAL":32,
						"TEXCOORD_0":33
					},
					"indices":34,
					"material":3
				}
			]
		},
		{
			"name":"Sphere.016",
			"primitives":[
				{
					"attributes":{
						"POSITION":35,
						"NORMAL":36,
						"TEXCOORD_0":37
					},
					"indices":19,
					"material":4
				}
			]
		}
	],
	"textures":[
		{
			"sampler":0,
			"source":0
		},
		{
			"sampler":0,
			"source":1
		},
		{
			"sampler":0,
			"source":2
		},
		{
			"sampler":0,
			"source":0
		},
		{
			"sampler":0,
			"source":1
		},
		{
			"sampler":0,
			"source":2
		},
		{
			"sampler":0,
			"source":0
		},
		{
			"sampler":0,
			"source":1
		},
		{
			"sampler":0,
			"source":2
		},
		{
			"sampler":0,
			"source":0
		},
		{
			"sampler":0,
			"source":1
		},
		{
			"sampler":0,
			"source":2
		},
		{
			"sampler":0,
			"source":3
		}
	],
	"images":[
		{
			"mimeType":"image/png",
			"name":"Mercury normal",
			"uri":"Mercury%20normal.png"
		},
		{
			"mimeType":"image/png",
			"name":"Mercury color",
			"uri":"Mercury%20color.png"
		},
		{
			"mimeType":"image/png",
			"name":"Mercury roghness",
			"uri":"Mercury%20roghness.png"
		},
		{
			"mimeType":"image/jpeg",
			"name":"8k_mercury",
			"uri":"8k_mercury.jpg"
		}
	],
	"accessors":[
		{
			"bufferView":0,
			"componentType":5126,
			"count":136,
			"max":[
				0.8966353535652161,
				0.8966353535652161,
				-0.012964926660060883
			],
			"min":[
				-0.8966347575187683,
				-0.8966353535652161,
				-0.1160748302936554
			],
			"type":"VEC3"
		},
		{
			"bufferView":1,
			"componentType":5126,
			"count":136,
			"type":"VEC3"
		},
		{
			"bufferView":2,
			"componentType":5126,
			"count":136,
			"type":"VEC2"
		},
		{
			"bufferView":3,
			"componentType":5123,
			"count":384,
			"type":"SCALAR"
		},
		{
			"bufferView":4,
			"componentType":5126,
			"count":134,
			"max":[
				0.9999990463256836,
				1,
				1.16787850856781e-06
			],
			"min":[
				-0.9999997019767761,
				-1,
				-0.08048822730779648
			],
			"type":"VEC3"
		},
		{
			"bufferView":5,
			"componentType":5126,
			"count":134,
			"type":"VEC3"
		},
		{
			"bufferView":6,
			"componentType":5126,
			"count":134,
			"type":"VEC2"
		},
		{
			"bufferView":7,
			"componentType":5123,
			"count":384,
			"type":"SCALAR"
		},
		{
			"bufferView":8,
			"componentType":5126,
			"count":128,
			"max":[
				0.6263395547866821,
				0.6263396143913269,
				-0.036846064031124115
			],
			"min":[
				-0.6263391375541687,
				-0.6263396143913269,
				-0.03684718534350395
			],
			"type":"VEC3"
		},
		{
			"bufferView":9,
			"componentType":5126,
			"count":128,
			"type":"VEC3"
		},
		{
			"bufferView":10,
			"componentType":5126,
			"count":128,
			"type":"VEC2"
		},
		{
			"bufferView":11,
			"componentType":5123,
			"count":570,
			"type":"SCALAR"
		},
		{
			"bufferView":12,
			"componentType":5126,
			"count":3264,
			"max":[
				0.5639178156852722,
				0.5342305302619934,
				-0.020509332418441772
			],
			"min":[
				-0.5966333746910095,
				-0.5370138883590698,
				-0.056192100048065186
			],
			"type":"VEC3"
		},
		{
			"bufferView":13,
			"componentType":5126,
			"count":3264,
			"type":"VEC3"
		},
		{
			"bufferView":14,
			"componentType":5126,
			"count":3264,
			"type":"VEC2"
		},
		{
			"bufferView":15,
			"componentType":5123,
			"count":4896,
			"type":"SCALAR"
		},
		{
			"bufferView":16,
			"componentType":5126,
			"count":287,
			"max":[
				0.9999990463256836,
				1,
				3.457416255514545e-07
			],
			"min":[
				-0.9999997019767761,
				-1,
				-0.9999993443489075
			],
			"type":"VEC3"
		},
		{
			"bufferView":17,
			"componentType":5126,
			"count":287,
			"type":"VEC3"
		},
		{
			"bufferView":18,
			"componentType":5126,
			"count":287,
			"type":"VEC2"
		},
		{
			"bufferView":19,
			"componentType":5123,
			"count":1440,
			"type":"SCALAR"
		},
		{
			"bufferView":20,
			"componentType":5126,
			"count":136,
			"max":[
				0.8966347575187683,
				0.8966353535652161,
				0.11607448756694794
			],
			"min":[
				-0.8966353535652161,
				-0.8966353535652161,
				0.01296539232134819
			],
			"type":"VEC3"
		},
		{
			"bufferView":21,
			"componentType":5126,
			"count":136,
			"type":"VEC3"
		},
		{
			"bufferView":22,
			"componentType":5126,
			"count":136,
			"type":"VEC2"
		},
		{
			"bufferView":23,
			"componentType":5123,
			"count":384,
			"type":"SCALAR"
		},
		{
			"bufferView":24,
			"componentType":5126,
			"count":136,
			"max":[
				0.9999997019767761,
				1,
				0.08048775792121887
			],
			"min":[
				-0.9999990463256836,
				-1,
				-6.463378667831421e-07
			],
			"type":"VEC3"
		},
		{
			"bufferView":25,
			"componentType":5126,
			"count":136,
			"type":"VEC3"
		},
		{
			"bufferView":26,
			"componentType":5126,
			"count":136,
			"type":"VEC2"
		},
		{
			"bufferView":27,
			"componentType":5123,
			"count":384,
			"type":"SCALAR"
		},
		{
			"bufferView":28,
			"componentType":5126,
			"count":128,
			"max":[
				0.6263391375541687,
				0.6263396143913269,
				0.0368468314409256
			],
			"min":[
				-0.6263395547866821,
				-0.6263396143913269,
				0.03684639185667038
			],
			"type":"VEC3"
		},
		{
			"bufferView":29,
			"componentType":5126,
			"count":128,
			"type":"VEC3"
		},
		{
			"bufferView":30,
			"componentType":5126,
			"count":128,
			"type":"VEC2"
		},
		{
			"bufferView":31,
			"componentType":5126,
			"count":3264,
			"max":[
				0.5966333746910095,
				0.5342305302619934,
				0.05619243532419205
			],
			"min":[
				-0.5639178156852722,
				-0.5370138883590698,
				0.0205092616379261
			],
			"type":"VEC3"
		},
		{
			"bufferView":32,
			"componentType":5126,
			"count":3264,
			"type":"VEC3"
		},
		{
			"bufferView":33,
			"componentType":5126,
			"count":3264,
			"type":"VEC2"
		},
		{
			"bufferView":34,
			"componentType":5123,
			"count":4896,
			"type":"SCALAR"
		},
		{
			"bufferView":35,
			"componentType":5126,
			"count":287,
			"max":[
				0.9999997019767761,
				1,
				0.9999993443489075
			],
			"min":[
				-0.9999990463256836,
				-1,
				-6.46779767521366e-07
			],
			"type":"VEC3"
		},
		{
			"bufferView":36,
			"componentType":5126,
			"count":287,
			"type":"VEC3"
		},
		{
			"bufferView":37,
			"componentType":5126,
			"count":287,
			"type":"VEC2"
		},
		{
			"bufferView":38,
			"componentType":5126,
			"count":50,
			"max":[
				2.0833333333333335
			],
			"min":[
				0.041666666666666664
			],
			"type":"SCALAR"
		},
		{
			"bufferView":39,
			"componentType":5126,
			"count":50,
			"type":"VEC3"
		},
		{
			"bufferView":40,
			"componentType":5126,
			"count":50,
			"type":"VEC4"
		},
		{
			"bufferView":41,
			"componentType":5126,
			"count":2,
			"max":[
				2.0833333333333335
			],
			"min":[
				0.041666666666666664
			],
			"type":"SCALAR"
		},
		{
			"bufferView":42,
			"componentType":5126,
			"count":2,
			"type":"VEC3"
		},
		{
			"bufferView":43,
			"componentType":5126,
			"count":2,
			"type":"VEC3"
		},
		{
			"bufferView":44,
			"componentType":5126,
			"count":2,
			"type":"VEC4"
		},
		{
			"bufferView":45,
			"componentType":5126,
			"count":2,
			"type":"VEC3"
		},
		{
			"bufferView":46,
			"componentType":5126,
			"count":2,
			"type":"VEC3"
		},
		{
			"bufferView":47,
			"componentType":5126,
			"count":2,
			"type":"VEC4"
		},
		{
			"bufferView":48,
			"componentType":5126,
			"count":2,
			"type":"VEC3"
		},
		{
			"bufferView":49,
			"componentType":5126,
			"count":2,
			"type":"VEC3"
		},
		{
			"bufferView":50,
			"componentType":5126,
			"count":2,
			"type":"VEC4"
		},
		{
			"bufferView":51,
			"componentType":5126,
			"count":2,
			"type":"VEC3"
		},
		{
			"bufferView":52,
			"componentType":5126,
			"count":2,
			"type":"VEC3"
		},
		{
			"bufferView":53,
			"componentType":5126,
			"count":2,
			"type":"VEC4"
		},
		{
			"bufferView":54,
			"componentType":5126,
			"count":2,
			"type":"VEC3"
		},
		{
			"bufferView":55,
			"componentType":5126,
			"count":50,
			"type":"VEC3"
		},
		{
			"bufferView":56,
			"componentType":5126,
			"count":50,
			"type":"VEC4"
		},
		{
			"bufferView":57,
			"componentType":5126,
			"count":2,
			"type":"VEC3"
		},
		{
			"bufferView":58,
			"componentType":5126,
			"count":2,
			"type":"VEC3"
		},
		{
			"bufferView":59,
			"componentType":5126,
			"count":2,
			"type":"VEC4"
		},
		{
			"bufferView":60,
			"componentType":5126,
			"count":2,
			"type":"VEC3"
		},
		{
			"bufferView":61,
			"componentType":5126,
			"count":2,
			"type":"VEC3"
		},
		{
			"bufferView":62,
			"componentType":5126,
			"count":2,
			"type":"VEC4"
		},
		{
			"bufferView":63,
			"componentType":5126,
			"count":2,
			"type":"VEC3"
		},
		{
			"bufferView":64,
			"componentType":5126,
			"count":2,
			"type":"VEC3"
		},
		{
			"bufferView":65,
			"componentType":5126,
			"count":2,
			"type":"VEC4"
		},
		{
			"bufferView":66,
			"componentType":5126,
			"count":2,
			"type":"VEC3"
		},
		{
			"bufferView":67,
			"componentType":5126,
			"count":2,
			"type":"VEC3"
		},
		{
			"bufferView":68,
			"componentType":5126,
			"count":2,
			"type":"VEC4"
		},
		{
			"bufferView":69,
			"componentType":5126,
			"count":2,
			"type":"VEC3"
		}
	],
	"bufferViews":[
		{
			"buffer":0,
			"byteLength":1632,
			"byteOffset":0,
			"target":34962
		},
		{
			"buffer":0,
			"byteLength":1632,
			"byteOffset":1632,
			"target":34962
		},
		{
			"buffer":0,
			"byteLength":1088,
			"byteOffset":3264,
			"target":34962
		},
		{
			"buffer":0,
			"byteLength":768,
			"byteOffset":4352,
			"target":34963
		},
		{
			"buffer":0,
			"byteLength":1608,
			"byteOffset":5120,
			"target":34962
		},
		{
			"buffer":0,
			"byteLength":1608,
			"byteOffset":6728,
			"target":34962
		},
		{
			"buffer":0,
			"byteLength":1072,
			"byteOffset":8336,
			"target":34962
		},
		{
			"buffer":0,
			"byteLength":768,
			"byteOffset":9408,
			"target":34963
		},
		{
			"buffer":0,
			"byteLength":1536,
			"byteOffset":10176,
			"target":34962
		},
		{
			"buffer":0,
			"byteLength":1536,
			"byteOffset":11712,
			"target":34962
		},
		{
			"buffer":0,
			"byteLength":1024,
			"byteOffset":13248,
			"target":34962
		},
		{
			"buffer":0,
			"byteLength":1140,
			"byteOffset":14272,
			"target":34963
		},
		{
			"buffer":0,
			"byteLength":39168,
			"byteOffset":15412,
			"target":34962
		},
		{
			"buffer":0,
			"byteLength":39168,
			"byteOffset":54580,
			"target":34962
		},
		{
			"buffer":0,
			"byteLength":26112,
			"byteOffset":93748,
			"target":34962
		},
		{
			"buffer":0,
			"byteLength":9792,
			"byteOffset":119860,
			"target":34963
		},
		{
			"buffer":0,
			"byteLength":3444,
			"byteOffset":129652,
			"target":34962
		},
		{
			"buffer":0,
			"byteLength":3444,
			"byteOffset":133096,
			"target":34962
		},
		{
			"buffer":0,
			"byteLength":2296,
			"byteOffset":136540,
			"target":34962
		},
		{
			"buffer":0,
			"byteLength":2880,
			"byteOffset":138836,
			"target":34963
		},
		{
			"buffer":0,
			"byteLength":1632,
			"byteOffset":141716,
			"target":34962
		},
		{
			"buffer":0,
			"byteLength":1632,
			"byteOffset":143348,
			"target":34962
		},
		{
			"buffer":0,
			"byteLength":1088,
			"byteOffset":144980,
			"target":34962
		},
		{
			"buffer":0,
			"byteLength":768,
			"byteOffset":146068,
			"target":34963
		},
		{
			"buffer":0,
			"byteLength":1632,
			"byteOffset":146836,
			"target":34962
		},
		{
			"buffer":0,
			"byteLength":1632,
			"byteOffset":148468,
			"target":34962
		},
		{
			"buffer":0,
			"byteLength":1088,
			"byteOffset":150100,
			"target":34962
		},
		{
			"buffer":0,
			"byteLength":768,
			"byteOffset":151188,
			"target":34963
		},
		{
			"buffer":0,
			"byteLength":1536,
			"byteOffset":151956,
			"target":34962
		},
		{
			"buffer":0,
			"byteLength":1536,
			"byteOffset":153492,
			"target":34962
		},
		{
			"buffer":0,
			"byteLength":1024,
			"byteOffset":155028,
			"target":34962
		},
		{
			"buffer":0,
			"byteLength":39168,
			"byteOffset":156052,
			"target":34962
		},
		{
			"buffer":0,
			"byteLength":39168,
			"byteOffset":195220,
			"target":34962
		},
		{
			"buffer":0,
			"byteLength":26112,
			"byteOffset":234388,
			"target":34962
		},
		{
			"buffer":0,
			"byteLength":9792,
			"byteOffset":260500,
			"target":34963
		},
		{
			"buffer":0,
			"byteLength":3444,
			"byteOffset":270292,
			"target":34962
		},
		{
			"buffer":0,
			"byteLength":3444,
			"byteOffset":273736,
			"target":34962
		},
		{
			"buffer":0,
			"byteLength":2296,
			"byteOffset":277180,
			"target":34962
		},
		{
			"buffer":0,
			"byteLength":200,
			"byteOffset":279476
		},
		{
			"buffer":0,
			"byteLength":600,
			"byteOffset":279676
		},
		{
			"buffer":0,
			"byteLength":800,
			"byteOffset":280276
		},
		{
			"buffer":0,
			"byteLength":8,
			"byteOffset":281076
		},
		{
			"buffer":0,
			"byteLength":24,
			"byteOffset":281084
		},
		{
			"buffer":0,
			"byteLength":24,
			"byteOffset":281108
		},
		{
			"buffer":0,
			"byteLength":32,
			"byteOffset":281132
		},
		{
			"buffer":0,
			"byteLength":24,
			"byteOffset":281164
		},
		{
			"buffer":0,
			"byteLength":24,
			"byteOffset":281188
		},
		{
			"buffer":0,
			"byteLength":32,
			"byteOffset":281212
		},
		{
			"buffer":0,
			"byteLength":24,
			"byteOffset":281244
		},
		{
			"buffer":0,
			"byteLength":24,
			"byteOffset":281268
		},
		{
			"buffer":0,
			"byteLength":32,
			"byteOffset":281292
		},
		{
			"buffer":0,
			"byteLength":24,
			"byteOffset":281324
		},
		{
			"buffer":0,
			"byteLength":24,
			"byteOffset":281348
		},
		{
			"buffer":0,
			"byteLength":32,
			"byteOffset":281372
		},
		{
			"buffer":0,
			"byteLength":24,
			"byteOffset":281404
		},
		{
			"buffer":0,
			"byteLength":600,
			"byteOffset":281428
		},
		{
			"buffer":0,
			"byteLength":800,
			"byteOffset":282028
		},
		{
			"buffer":0,
			"byteLength":24,
			"byteOffset":282828
		},
		{
			"buffer":0,
			"byteLength":24,
			"byteOffset":282852
		},
		{
			"buffer":0,
			"byteLength":32,
			"byteOffset":282876
		},
		{
			"buffer":0,
			"byteLength":24,
			"byteOffset":282908
		},
		{
			"buffer":0,
			"byteLength":24,
			"byteOffset":282932
		},
		{
			"buffer":0,
			"byteLength":32,
			"byteOffset":282956
		},
		{
			"buffer":0,
			"byteLength":24,
			"byteOffset":282988
		},
		{
			"buffer":0,
			"byteLength":24,
			"byteOffset":283012
		},
		{
			"buffer":0,
			"byteLength":32,
			"byteOffset":283036
		},
		{
			"buffer":0,
			"byteLength":24,
			"byteOffset":283068
		},
		{
			"buffer":0,
			"byteLength":24,
			"byteOffset":283092
		},
		{
			"buffer":0,
			"byteLength":32,
			"byteOffset":283116
		},
		{
			"buffer":0,
			"byteLength":24,
			"byteOffset":283148
		}
	],
	"samplers":[
		{
			"magFilter":9729,
			"minFilter":9987
		}
	],
	"buffers":[
		{
			"byteLength":283172,
			"uri":"Mercury.bin"
		}
	]
}
