{
	"asset":{
		"generator":"Khronos glTF Blender I/O v4.0.44",
		"version":"2.0"
	},
	"extensionsUsed":[
		"KHR_materials_specular",
		"KHR_materials_ior"
	],
	"scene":0,
	"scenes":[
		{
			"name":"Scene",
			"nodes":[
				4,
				9
			]
		}
	],
	"nodes":[
		{
			"mesh":0,
			"name":"Sphere.091"
		},
		{
			"mesh":1,
			"name":"Sphere.092"
		},
		{
			"mesh":2,
			"name":"Sphere.093"
		},
		{
			"mesh":3,
			"name":"Sphere.094"
		},
		{
			"children":[
				0,
				1,
				2,
				3
			],
			"mesh":4,
			"name":"Sphere.011"
		},
		{
			"mesh":5,
			"name":"Sphere.087"
		},
		{
			"mesh":6,
			"name":"Sphere.088"
		},
		{
			"mesh":7,
			"name":"Sphere.089"
		},
		{
			"mesh":8,
			"name":"Sphere.090"
		},
		{
			"children":[
				5,
				6,
				7,
				8
			],
			"mesh":9,
			"name":"Sphere.080"
		}
	],
	"animations":[
		{
			"channels":[
				{
					"sampler":0,
					"target":{
						"node":4,
						"path":"translation"
					}
				},
				{
					"sampler":1,
					"target":{
						"node":4,
						"path":"rotation"
					}
				},
				{
					"sampler":2,
					"target":{
						"node":4,
						"path":"scale"
					}
				}
			],
			"name":"Action.078",
			"samplers":[
				{
					"input":39,
					"interpolation":"LINEAR",
					"output":40
				},
				{
					"input":39,
					"interpolation":"LINEAR",
					"output":41
				},
				{
					"input":42,
					"interpolation":"STEP",
					"output":43
				}
			]
		},
		{
			"channels":[
				{
					"sampler":0,
					"target":{
						"node":0,
						"path":"translation"
					}
				},
				{
					"sampler":1,
					"target":{
						"node":0,
						"path":"rotation"
					}
				},
				{
					"sampler":2,
					"target":{
						"node":0,
						"path":"scale"
					}
				}
			],
			"name":"Action.094",
			"samplers":[
				{
					"input":42,
					"interpolation":"LINEAR",
					"output":44
				},
				{
					"input":42,
					"interpolation":"LINEAR",
					"output":45
				},
				{
					"input":42,
					"interpolation":"STEP",
					"output":46
				}
			]
		},
		{
			"channels":[
				{
					"sampler":0,
					"target":{
						"node":1,
						"path":"translation"
					}
				},
				{
					"sampler":1,
					"target":{
						"node":1,
						"path":"rotation"
					}
				},
				{
					"sampler":2,
					"target":{
						"node":1,
						"path":"scale"
					}
				}
			],
			"name":"Action.095",
			"samplers":[
				{
					"input":42,
					"interpolation":"LINEAR",
					"output":47
				},
				{
					"input":42,
					"interpolation":"LINEAR",
					"output":48
				},
				{
					"input":42,
					"interpolation":"STEP",
					"output":49
				}
			]
		},
		{
			"channels":[
				{
					"sampler":0,
					"target":{
						"node":2,
						"path":"translation"
					}
				},
				{
					"sampler":1,
					"target":{
						"node":2,
						"path":"rotation"
					}
				},
				{
					"sampler":2,
					"target":{
						"node":2,
						"path":"scale"
					}
				}
			],
			"name":"Action.096",
			"samplers":[
				{
					"input":42,
					"interpolation":"LINEAR",
					"output":50
				},
				{
					"input":42,
					"interpolation":"LINEAR",
					"output":51
				},
				{
					"input":42,
					"interpolation":"STEP",
					"output":52
				}
			]
		},
		{
			"channels":[
				{
					"sampler":0,
					"target":{
						"node":3,
						"path":"translation"
					}
				},
				{
					"sampler":1,
					"target":{
						"node":3,
						"path":"rotation"
					}
				},
				{
					"sampler":2,
					"target":{
						"node":3,
						"path":"scale"
					}
				}
			],
			"name":"Action.097",
			"samplers":[
				{
					"input":42,
					"interpolation":"LINEAR",
					"output":53
				},
				{
					"input":42,
					"interpolation":"LINEAR",
					"output":54
				},
				{
					"input":42,
					"interpolation":"STEP",
					"output":55
				}
			]
		},
		{
			"channels":[
				{
					"sampler":0,
					"target":{
						"node":9,
						"path":"translation"
					}
				},
				{
					"sampler":1,
					"target":{
						"node":9,
						"path":"rotation"
					}
				},
				{
					"sampler":2,
					"target":{
						"node":9,
						"path":"scale"
					}
				}
			],
			"name":"Action.079",
			"samplers":[
				{
					"input":39,
					"interpolation":"LINEAR",
					"output":56
				},
				{
					"input":39,
					"interpolation":"LINEAR",
					"output":57
				},
				{
					"input":42,
					"interpolation":"LINEAR",
					"output":58
				}
			]
		},
		{
			"channels":[
				{
					"sampler":0,
					"target":{
						"node":5,
						"path":"translation"
					}
				},
				{
					"sampler":1,
					"target":{
						"node":5,
						"path":"rotation"
					}
				},
				{
					"sampler":2,
					"target":{
						"node":5,
						"path":"scale"
					}
				}
			],
			"name":"Action.090",
			"samplers":[
				{
					"input":42,
					"interpolation":"LINEAR",
					"output":59
				},
				{
					"input":42,
					"interpolation":"LINEAR",
					"output":60
				},
				{
					"input":42,
					"interpolation":"STEP",
					"output":61
				}
			]
		},
		{
			"channels":[
				{
					"sampler":0,
					"target":{
						"node":6,
						"path":"translation"
					}
				},
				{
					"sampler":1,
					"target":{
						"node":6,
						"path":"rotation"
					}
				},
				{
					"sampler":2,
					"target":{
						"node":6,
						"path":"scale"
					}
				}
			],
			"name":"Action.091",
			"samplers":[
				{
					"input":42,
					"interpolation":"LINEAR",
					"output":62
				},
				{
					"input":42,
					"interpolation":"LINEAR",
					"output":63
				},
				{
					"input":42,
					"interpolation":"STEP",
					"output":64
				}
			]
		},
		{
			"channels":[
				{
					"sampler":0,
					"target":{
						"node":7,
						"path":"translation"
					}
				},
				{
					"sampler":1,
					"target":{
						"node":7,
						"path":"rotation"
					}
				},
				{
					"sampler":2,
					"target":{
						"node":7,
						"path":"scale"
					}
				}
			],
			"name":"Action.092",
			"samplers":[
				{
					"input":42,
					"interpolation":"LINEAR",
					"output":65
				},
				{
					"input":42,
					"interpolation":"LINEAR",
					"output":66
				},
				{
					"input":42,
					"interpolation":"STEP",
					"output":67
				}
			]
		},
		{
			"channels":[
				{
					"sampler":0,
					"target":{
						"node":8,
						"path":"translation"
					}
				},
				{
					"sampler":1,
					"target":{
						"node":8,
						"path":"rotation"
					}
				},
				{
					"sampler":2,
					"target":{
						"node":8,
						"path":"scale"
					}
				}
			],
			"name":"Action.093",
			"samplers":[
				{
					"input":42,
					"interpolation":"LINEAR",
					"output":68
				},
				{
					"input":42,
					"interpolation":"LINEAR",
					"output":69
				},
				{
					"input":42,
					"interpolation":"STEP",
					"output":70
				}
			]
		}
	],
	"materials":[
		{
			"doubleSided":true,
			"extensions":{
				"KHR_materials_specular":{
					"specularFactor":0.20000000298023224
				},
				"KHR_materials_ior":{
					"ior":1.4500000476837158
				}
			},
			"name":"Cracke Ice Particles 1",
			"normalTexture":{
				"index":0
			},
			"pbrMetallicRoughness":{
				"baseColorTexture":{
					"index":1
				},
				"metallicFactor":0.5,
				"metallicRoughnessTexture":{
					"index":2
				}
			}
		},
		{
			"doubleSided":true,
			"extensions":{
				"KHR_materials_specular":{
					"specularFactor":0.20000000298023224
				},
				"KHR_materials_ior":{
					"ior":1.4500000476837158
				}
			},
			"name":"buscute.003",
			"normalTexture":{
				"index":3
			},
			"pbrMetallicRoughness":{
				"baseColorTexture":{
					"index":4
				},
				"metallicFactor":0.5,
				"metallicRoughnessTexture":{
					"index":5
				}
			}
		},
		{
			"doubleSided":true,
			"extensions":{
				"KHR_materials_specular":{
					"specularFactor":0.20000000298023224
				},
				"KHR_materials_ior":{
					"ior":1.4500000476837158
				}
			},
			"name":"liquedchoclate2",
			"normalTexture":{
				"index":6
			},
			"pbrMetallicRoughness":{
				"baseColorTexture":{
					"index":7
				},
				"metallicFactor":0.5,
				"metallicRoughnessTexture":{
					"index":8
				}
			}
		},
		{
			"doubleSided":true,
			"extensions":{
				"KHR_materials_specular":{
					"specularFactor":0.20000000298023224
				},
				"KHR_materials_ior":{
					"ior":1.4500000476837158
				}
			},
			"name":"Chocolate with Nuts",
			"normalTexture":{
				"index":9
			},
			"pbrMetallicRoughness":{
				"baseColorTexture":{
					"index":10
				},
				"metallicFactor":0.5,
				"metallicRoughnessTexture":{
					"index":11
				}
			}
		},
		{
			"doubleSided":true,
			"name":"Uranus",
			"pbrMetallicRoughness":{
				"baseColorTexture":{
					"index":12
				},
				"metallicFactor":0,
				"roughnessFactor":0.5
			}
		}
	],
	"meshes":[
		{
			"name":"Sphere.031",
			"primitives":[
				{
					"attributes":{
						"POSITION":0,
						"NORMAL":1,
						"TEXCOORD_0":2
					},
					"indices":3,
					"material":0
				}
			]
		},
		{
			"name":"Sphere.032",
			"primitives":[
				{
					"attributes":{
						"POSITION":4,
						"NORMAL":5,
						"TEXCOORD_0":6
					},
					"indices":7,
					"material":1
				}
			]
		},
		{
			"name":"Sphere.033",
			"primitives":[
				{
					"attributes":{
						"POSITION":8,
						"NORMAL":9,
						"TEXCOORD_0":10
					},
					"indices":11,
					"material":2
				}
			]
		},
		{
			"name":"Sphere.045",
			"primitives":[
				{
					"attributes":{
						"POSITION":12,
						"NORMAL":13,
						"TEXCOORD_0":14
					},
					"indices":15,
					"material":3
				}
			]
		},
		{
			"name":"Sphere.002",
			"primitives":[
				{
					"attributes":{
						"POSITION":16,
						"NORMAL":17,
						"TEXCOORD_0":18
					},
					"indices":19,
					"material":4
				}
			]
		},
		{
			"name":"Sphere.022",
			"primitives":[
				{
					"attributes":{
						"POSITION":20,
						"NORMAL":21,
						"TEXCOORD_0":22
					},
					"indices":23,
					"material":0
				}
			]
		},
		{
			"name":"Sphere.023",
			"primitives":[
				{
					"attributes":{
						"POSITION":24,
						"NORMAL":25,
						"TEXCOORD_0":26
					},
					"indices":27,
					"material":1
				}
			]
		},
		{
			"name":"Sphere.024",
			"primitives":[
				{
					"attributes":{
						"POSITION":28,
						"NORMAL":29,
						"TEXCOORD_0":30
					},
					"indices":31,
					"material":2
				}
			]
		},
		{
			"name":"Sphere.028",
			"primitives":[
				{
					"attributes":{
						"POSITION":32,
						"NORMAL":33,
						"TEXCOORD_0":34
					},
					"indices":35,
					"material":3
				}
			]
		},
		{
			"name":"Sphere.003",
			"primitives":[
				{
					"attributes":{
						"POSITION":36,
						"NORMAL":37,
						"TEXCOORD_0":38
					},
					"indices":19,
					"material":4
				}
			]
		}
	],
	"textures":[
		{
			"sampler":0,
			"source":0
		},
		{
			"sampler":0,
			"source":1
		},
		{
			"sampler":0,
			"source":2
		},
		{
			"sampler":0,
			"source":0
		},
		{
			"sampler":0,
			"source":1
		},
		{
			"sampler":0,
			"source":2
		},
		{
			"sampler":0,
			"source":0
		},
		{
			"sampler":0,
			"source":1
		},
		{
			"sampler":0,
			"source":2
		},
		{
			"sampler":0,
			"source":0
		},
		{
			"sampler":0,
			"source":1
		},
		{
			"sampler":0,
			"source":2
		},
		{
			"sampler":0,
			"source":3
		}
	],
	"images":[
		{
			"mimeType":"image/png",
			"name":"Uranus normal",
			"uri":"Uranus%20normal.png"
		},
		{
			"mimeType":"image/png",
			"name":"Uranus color",
			"uri":"Uranus%20color.png"
		},
		{
			"mimeType":"image/png",
			"name":"Uranus roughness",
			"uri":"Uranus%20roughness.png"
		},
		{
			"mimeType":"image/jpeg",
			"name":"2k_uranus",
			"uri":"2k_uranus.jpg"
		}
	],
	"accessors":[
		{
			"bufferView":0,
			"componentType":5126,
			"count":3584,
			"max":[
				0.24334871768951416,
				0.24334891140460968,
				-0.0649356096982956
			],
			"min":[
				-0.2433488667011261,
				-0.24334891140460968,
				-0.06493709981441498
			],
			"type":"VEC3"
		},
		{
			"bufferView":1,
			"componentType":5126,
			"count":3584,
			"type":"VEC3"
		},
		{
			"bufferView":2,
			"componentType":5126,
			"count":3584,
			"type":"VEC2"
		},
		{
			"bufferView":3,
			"componentType":5123,
			"count":20730,
			"type":"SCALAR"
		},
		{
			"bufferView":4,
			"componentType":5126,
			"count":172,
			"max":[
				0.39710912108421326,
				0.39710938930511475,
				-0.04910352826118469
			],
			"min":[
				-0.39710932970046997,
				-0.3971094489097595,
				-0.14913582801818848
			],
			"type":"VEC3"
		},
		{
			"bufferView":5,
			"componentType":5126,
			"count":172,
			"type":"VEC3"
		},
		{
			"bufferView":6,
			"componentType":5126,
			"count":172,
			"type":"VEC2"
		},
		{
			"bufferView":7,
			"componentType":5123,
			"count":576,
			"type":"SCALAR"
		},
		{
			"bufferView":8,
			"componentType":5126,
			"count":136,
			"max":[
				0.8501896858215332,
				0.8501904010772705,
				-0.027501674368977547
			],
			"min":[
				-0.8501902222633362,
				-0.8501904606819153,
				-0.06618843227624893
			],
			"type":"VEC3"
		},
		{
			"bufferView":9,
			"componentType":5126,
			"count":136,
			"type":"VEC3"
		},
		{
			"bufferView":10,
			"componentType":5126,
			"count":136,
			"type":"VEC2"
		},
		{
			"bufferView":11,
			"componentType":5123,
			"count":384,
			"type":"SCALAR"
		},
		{
			"bufferView":12,
			"componentType":5126,
			"count":136,
			"max":[
				0.9999313354492188,
				1,
				0.00017681971075944602
			],
			"min":[
				-1.0000674724578857,
				-1,
				-0.03853319585323334
			],
			"type":"VEC3"
		},
		{
			"bufferView":13,
			"componentType":5126,
			"count":136,
			"type":"VEC3"
		},
		{
			"bufferView":14,
			"componentType":5126,
			"count":136,
			"type":"VEC2"
		},
		{
			"bufferView":15,
			"componentType":5123,
			"count":384,
			"type":"SCALAR"
		},
		{
			"bufferView":16,
			"componentType":5126,
			"count":287,
			"max":[
				0.9999990463256836,
				1,
				3.457416255514545e-07
			],
			"min":[
				-0.9999997019767761,
				-1,
				-0.9999993443489075
			],
			"type":"VEC3"
		},
		{
			"bufferView":17,
			"componentType":5126,
			"count":287,
			"type":"VEC3"
		},
		{
			"bufferView":18,
			"componentType":5126,
			"count":287,
			"type":"VEC2"
		},
		{
			"bufferView":19,
			"componentType":5123,
			"count":1440,
			"type":"SCALAR"
		},
		{
			"bufferView":20,
			"componentType":5126,
			"count":3584,
			"max":[
				0.2433488368988037,
				0.24334891140460968,
				0.06493697315454483
			],
			"min":[
				-0.24334874749183655,
				-0.24334891140460968,
				0.06493573635816574
			],
			"type":"VEC3"
		},
		{
			"bufferView":21,
			"componentType":5126,
			"count":3584,
			"type":"VEC3"
		},
		{
			"bufferView":22,
			"componentType":5126,
			"count":3584,
			"type":"VEC2"
		},
		{
			"bufferView":23,
			"componentType":5123,
			"count":20730,
			"type":"SCALAR"
		},
		{
			"bufferView":24,
			"componentType":5126,
			"count":208,
			"max":[
				0.3971092998981476,
				0.39710938930511475,
				0.17441527545452118
			],
			"min":[
				-0.39710915088653564,
				-0.3971094489097595,
				0.049103736877441406
			],
			"type":"VEC3"
		},
		{
			"bufferView":25,
			"componentType":5126,
			"count":208,
			"type":"VEC3"
		},
		{
			"bufferView":26,
			"componentType":5126,
			"count":208,
			"type":"VEC2"
		},
		{
			"bufferView":27,
			"componentType":5123,
			"count":768,
			"type":"SCALAR"
		},
		{
			"bufferView":28,
			"componentType":5126,
			"count":136,
			"max":[
				0.8501902222633362,
				0.8501904010772705,
				0.06618822365999222
			],
			"min":[
				-0.8501896858215332,
				-0.8501904606819153,
				0.027502117678523064
			],
			"type":"VEC3"
		},
		{
			"bufferView":29,
			"componentType":5126,
			"count":136,
			"type":"VEC3"
		},
		{
			"bufferView":30,
			"componentType":5126,
			"count":136,
			"type":"VEC2"
		},
		{
			"bufferView":31,
			"componentType":5123,
			"count":384,
			"type":"SCALAR"
		},
		{
			"bufferView":32,
			"componentType":5126,
			"count":136,
			"max":[
				1.0000674724578857,
				1,
				0.03853346407413483
			],
			"min":[
				-0.9999313354492188,
				-1,
				-0.00017708653467707336
			],
			"type":"VEC3"
		},
		{
			"bufferView":33,
			"componentType":5126,
			"count":136,
			"type":"VEC3"
		},
		{
			"bufferView":34,
			"componentType":5126,
			"count":136,
			"type":"VEC2"
		},
		{
			"bufferView":35,
			"componentType":5123,
			"count":384,
			"type":"SCALAR"
		},
		{
			"bufferView":36,
			"componentType":5126,
			"count":287,
			"max":[
				0.9999997019767761,
				1,
				0.9999993443489075
			],
			"min":[
				-0.9999990463256836,
				-1,
				-6.46779767521366e-07
			],
			"type":"VEC3"
		},
		{
			"bufferView":37,
			"componentType":5126,
			"count":287,
			"type":"VEC3"
		},
		{
			"bufferView":38,
			"componentType":5126,
			"count":287,
			"type":"VEC2"
		},
		{
			"bufferView":39,
			"componentType":5126,
			"count":50,
			"max":[
				2.0833333333333335
			],
			"min":[
				0.041666666666666664
			],
			"type":"SCALAR"
		},
		{
			"bufferView":40,
			"componentType":5126,
			"count":50,
			"type":"VEC3"
		},
		{
			"bufferView":41,
			"componentType":5126,
			"count":50,
			"type":"VEC4"
		},
		{
			"bufferView":42,
			"componentType":5126,
			"count":2,
			"max":[
				2.0833333333333335
			],
			"min":[
				0.041666666666666664
			],
			"type":"SCALAR"
		},
		{
			"bufferView":43,
			"componentType":5126,
			"count":2,
			"type":"VEC3"
		},
		{
			"bufferView":44,
			"componentType":5126,
			"count":2,
			"type":"VEC3"
		},
		{
			"bufferView":45,
			"componentType":5126,
			"count":2,
			"type":"VEC4"
		},
		{
			"bufferView":46,
			"componentType":5126,
			"count":2,
			"type":"VEC3"
		},
		{
			"bufferView":47,
			"componentType":5126,
			"count":2,
			"type":"VEC3"
		},
		{
			"bufferView":48,
			"componentType":5126,
			"count":2,
			"type":"VEC4"
		},
		{
			"bufferView":49,
			"componentType":5126,
			"count":2,
			"type":"VEC3"
		},
		{
			"bufferView":50,
			"componentType":5126,
			"count":2,
			"type":"VEC3"
		},
		{
			"bufferView":51,
			"componentType":5126,
			"count":2,
			"type":"VEC4"
		},
		{
			"bufferView":52,
			"componentType":5126,
			"count":2,
			"type":"VEC3"
		},
		{
			"bufferView":53,
			"componentType":5126,
			"count":2,
			"type":"VEC3"
		},
		{
			"bufferView":54,
			"componentType":5126,
			"count":2,
			"type":"VEC4"
		},
		{
			"bufferView":55,
			"componentType":5126,
			"count":2,
			"type":"VEC3"
		},
		{
			"bufferView":56,
			"componentType":5126,
			"count":50,
			"type":"VEC3"
		},
		{
			"bufferView":57,
			"componentType":5126,
			"count":50,
			"type":"VEC4"
		},
		{
			"bufferView":58,
			"componentType":5126,
			"count":2,
			"type":"VEC3"
		},
		{
			"bufferView":59,
			"componentType":5126,
			"count":2,
			"type":"VEC3"
		},
		{
			"bufferView":60,
			"componentType":5126,
			"count":2,
			"type":"VEC4"
		},
		{
			"bufferView":61,
			"componentType":5126,
			"count":2,
			"type":"VEC3"
		},
		{
			"bufferView":62,
			"componentType":5126,
			"count":2,
			"type":"VEC3"
		},
		{
			"bufferView":63,
			"componentType":5126,
			"count":2,
			"type":"VEC4"
		},
		{
			"bufferView":64,
			"componentType":5126,
			"count":2,
			"type":"VEC3"
		},
		{
			"bufferView":65,
			"componentType":5126,
			"count":2,
			"type":"VEC3"
		},
		{
			"bufferView":66,
			"componentType":5126,
			"count":2,
			"type":"VEC4"
		},
		{
			"bufferView":67,
			"componentType":5126,
			"count":2,
			"type":"VEC3"
		},
		{
			"bufferView":68,
			"componentType":5126,
			"count":2,
			"type":"VEC3"
		},
		{
			"bufferView":69,
			"componentType":5126,
			"count":2,
			"type":"VEC4"
		},
		{
			"bufferView":70,
			"componentType":5126,
			"count":2,
			"type":"VEC3"
		}
	],
	"bufferViews":[
		{
			"buffer":0,
			"byteLength":43008,
			"byteOffset":0,
			"target":34962
		},
		{
			"buffer":0,
			"byteLength":43008,
			"byteOffset":43008,
			"target":34962
		},
		{
			"buffer":0,
			"byteLength":28672,
			"byteOffset":86016,
			"target":34962
		},
		{
			"buffer":0,
			"byteLength":41460,
			"byteOffset":114688,
			"target":34963
		},
		{
			"buffer":0,
			"byteLength":2064,
			"byteOffset":156148,
			"target":34962
		},
		{
			"buffer":0,
			"byteLength":2064,
			"byteOffset":158212,
			"target":34962
		},
		{
			"buffer":0,
			"byteLength":1376,
			"byteOffset":160276,
			"target":34962
		},
		{
			"buffer":0,
			"byteLength":1152,
			"byteOffset":161652,
			"target":34963
		},
		{
			"buffer":0,
			"byteLength":1632,
			"byteOffset":162804,
			"target":34962
		},
		{
			"buffer":0,
			"byteLength":1632,
			"byteOffset":164436,
			"target":34962
		},
		{
			"buffer":0,
			"byteLength":1088,
			"byteOffset":166068,
			"target":34962
		},
		{
			"buffer":0,
			"byteLength":768,
			"byteOffset":167156,
			"target":34963
		},
		{
			"buffer":0,
			"byteLength":1632,
			"byteOffset":167924,
			"target":34962
		},
		{
			"buffer":0,
			"byteLength":1632,
			"byteOffset":169556,
			"target":34962
		},
		{
			"buffer":0,
			"byteLength":1088,
			"byteOffset":171188,
			"target":34962
		},
		{
			"buffer":0,
			"byteLength":768,
			"byteOffset":172276,
			"target":34963
		},
		{
			"buffer":0,
			"byteLength":3444,
			"byteOffset":173044,
			"target":34962
		},
		{
			"buffer":0,
			"byteLength":3444,
			"byteOffset":176488,
			"target":34962
		},
		{
			"buffer":0,
			"byteLength":2296,
			"byteOffset":179932,
			"target":34962
		},
		{
			"buffer":0,
			"byteLength":2880,
			"byteOffset":182228,
			"target":34963
		},
		{
			"buffer":0,
			"byteLength":43008,
			"byteOffset":185108,
			"target":34962
		},
		{
			"buffer":0,
			"byteLength":43008,
			"byteOffset":228116,
			"target":34962
		},
		{
			"buffer":0,
			"byteLength":28672,
			"byteOffset":271124,
			"target":34962
		},
		{
			"buffer":0,
			"byteLength":41460,
			"byteOffset":299796,
			"target":34963
		},
		{
			"buffer":0,
			"byteLength":2496,
			"byteOffset":341256,
			"target":34962
		},
		{
			"buffer":0,
			"byteLength":2496,
			"byteOffset":343752,
			"target":34962
		},
		{
			"buffer":0,
			"byteLength":1664,
			"byteOffset":346248,
			"target":34962
		},
		{
			"buffer":0,
			"byteLength":1536,
			"byteOffset":347912,
			"target":34963
		},
		{
			"buffer":0,
			"byteLength":1632,
			"byteOffset":349448,
			"target":34962
		},
		{
			"buffer":0,
			"byteLength":1632,
			"byteOffset":351080,
			"target":34962
		},
		{
			"buffer":0,
			"byteLength":1088,
			"byteOffset":352712,
			"target":34962
		},
		{
			"buffer":0,
			"byteLength":768,
			"byteOffset":353800,
			"target":34963
		},
		{
			"buffer":0,
			"byteLength":1632,
			"byteOffset":354568,
			"target":34962
		},
		{
			"buffer":0,
			"byteLength":1632,
			"byteOffset":356200,
			"target":34962
		},
		{
			"buffer":0,
			"byteLength":1088,
			"byteOffset":357832,
			"target":34962
		},
		{
			"buffer":0,
			"byteLength":768,
			"byteOffset":358920,
			"target":34963
		},
		{
			"buffer":0,
			"byteLength":3444,
			"byteOffset":359688,
			"target":34962
		},
		{
			"buffer":0,
			"byteLength":3444,
			"byteOffset":363132,
			"target":34962
		},
		{
			"buffer":0,
			"byteLength":2296,
			"byteOffset":366576,
			"target":34962
		},
		{
			"buffer":0,
			"byteLength":200,
			"byteOffset":368872
		},
		{
			"buffer":0,
			"byteLength":600,
			"byteOffset":369072
		},
		{
			"buffer":0,
			"byteLength":800,
			"byteOffset":369672
		},
		{
			"buffer":0,
			"byteLength":8,
			"byteOffset":370472
		},
		{
			"buffer":0,
			"byteLength":24,
			"byteOffset":370480
		},
		{
			"buffer":0,
			"byteLength":24,
			"byteOffset":370504
		},
		{
			"buffer":0,
			"byteLength":32,
			"byteOffset":370528
		},
		{
			"buffer":0,
			"byteLength":24,
			"byteOffset":370560
		},
		{
			"buffer":0,
			"byteLength":24,
			"byteOffset":370584
		},
		{
			"buffer":0,
			"byteLength":32,
			"byteOffset":370608
		},
		{
			"buffer":0,
			"byteLength":24,
			"byteOffset":370640
		},
		{
			"buffer":0,
			"byteLength":24,
			"byteOffset":370664
		},
		{
			"buffer":0,
			"byteLength":32,
			"byteOffset":370688
		},
		{
			"buffer":0,
			"byteLength":24,
			"byteOffset":370720
		},
		{
			"buffer":0,
			"byteLength":24,
			"byteOffset":370744
		},
		{
			"buffer":0,
			"byteLength":32,
			"byteOffset":370768
		},
		{
			"buffer":0,
			"byteLength":24,
			"byteOffset":370800
		},
		{
			"buffer":0,
			"byteLength":600,
			"byteOffset":370824
		},
		{
			"buffer":0,
			"byteLength":800,
			"byteOffset":371424
		},
		{
			"buffer":0,
			"byteLength":24,
			"byteOffset":372224
		},
		{
			"buffer":0,
			"byteLength":24,
			"byteOffset":372248
		},
		{
			"buffer":0,
			"byteLength":32,
			"byteOffset":372272
		},
		{
			"buffer":0,
			"byteLength":24,
			"byteOffset":372304
		},
		{
			"buffer":0,
			"byteLength":24,
			"byteOffset":372328
		},
		{
			"buffer":0,
			"byteLength":32,
			"byteOffset":372352
		},
		{
			"buffer":0,
			"byteLength":24,
			"byteOffset":372384
		},
		{
			"buffer":0,
			"byteLength":24,
			"byteOffset":372408
		},
		{
			"buffer":0,
			"byteLength":32,
			"byteOffset":372432
		},
		{
			"buffer":0,
			"byteLength":24,
			"byteOffset":372464
		},
		{
			"buffer":0,
			"byteLength":24,
			"byteOffset":372488
		},
		{
			"buffer":0,
			"byteLength":32,
			"byteOffset":372512
		},
		{
			"buffer":0,
			"byteLength":24,
			"byteOffset":372544
		}
	],
	"samplers":[
		{
			"magFilter":9729,
			"minFilter":9987
		}
	],
	"buffers":[
		{
			"byteLength":372568,
			"uri":"Uranus.bin"
		}
	]
}
