{
	"asset":{
		"generator":"Khronos glTF Blender I/O v4.0.44",
		"version":"2.0"
	},
	"scene":0,
	"scenes":[
		{
			"name":"Scene",
			"nodes":[
				5,
				11
			]
		}
	],
	"nodes":[
		{
			"mesh":0,
			"name":"Sphere.016"
		},
		{
			"mesh":1,
			"name":"Sphere.018"
		},
		{
			"mesh":2,
			"name":"Sphere.019"
		},
		{
			"mesh":3,
			"name":"Sphere.085"
		},
		{
			"mesh":4,
			"name":"Sphere.086"
		},
		{
			"children":[
				0,
				1,
				2,
				3,
				4
			],
			"mesh":5,
			"name":"Sphere.014"
		},
		{
			"mesh":6,
			"name":"Sphere.017"
		},
		{
			"mesh":7,
			"name":"Sphere.021"
		},
		{
			"mesh":8,
			"name":"Sphere.022"
		},
		{
			"mesh":9,
			"name":"Sphere.032"
		},
		{
			"mesh":10,
			"name":"Sphere.033"
		},
		{
			"children":[
				6,
				7,
				8,
				9,
				10
			],
			"mesh":11,
			"name":"Sphere.015"
		}
	],
	"animations":[
		{
			"channels":[
				{
					"sampler":0,
					"target":{
						"node":5,
						"path":"translation"
					}
				},
				{
					"sampler":1,
					"target":{
						"node":5,
						"path":"rotation"
					}
				},
				{
					"sampler":2,
					"target":{
						"node":5,
						"path":"scale"
					}
				}
			],
			"name":"Action.002",
			"samplers":[
				{
					"input":46,
					"interpolation":"LINEAR",
					"output":47
				},
				{
					"input":46,
					"interpolation":"LINEAR",
					"output":48
				},
				{
					"input":49,
					"interpolation":"STEP",
					"output":50
				}
			]
		},
		{
			"channels":[
				{
					"sampler":0,
					"target":{
						"node":0,
						"path":"translation"
					}
				},
				{
					"sampler":1,
					"target":{
						"node":0,
						"path":"rotation"
					}
				},
				{
					"sampler":2,
					"target":{
						"node":0,
						"path":"scale"
					}
				}
			],
			"name":"Action.034",
			"samplers":[
				{
					"input":49,
					"interpolation":"LINEAR",
					"output":51
				},
				{
					"input":49,
					"interpolation":"LINEAR",
					"output":52
				},
				{
					"input":49,
					"interpolation":"STEP",
					"output":53
				}
			]
		},
		{
			"channels":[
				{
					"sampler":0,
					"target":{
						"node":1,
						"path":"translation"
					}
				},
				{
					"sampler":1,
					"target":{
						"node":1,
						"path":"rotation"
					}
				},
				{
					"sampler":2,
					"target":{
						"node":1,
						"path":"scale"
					}
				}
			],
			"name":"Action.065",
			"samplers":[
				{
					"input":49,
					"interpolation":"LINEAR",
					"output":54
				},
				{
					"input":49,
					"interpolation":"LINEAR",
					"output":55
				},
				{
					"input":49,
					"interpolation":"STEP",
					"output":56
				}
			]
		},
		{
			"channels":[
				{
					"sampler":0,
					"target":{
						"node":2,
						"path":"translation"
					}
				},
				{
					"sampler":1,
					"target":{
						"node":2,
						"path":"rotation"
					}
				},
				{
					"sampler":2,
					"target":{
						"node":2,
						"path":"scale"
					}
				}
			],
			"name":"Action.060",
			"samplers":[
				{
					"input":49,
					"interpolation":"LINEAR",
					"output":57
				},
				{
					"input":49,
					"interpolation":"LINEAR",
					"output":58
				},
				{
					"input":49,
					"interpolation":"STEP",
					"output":59
				}
			]
		},
		{
			"channels":[
				{
					"sampler":0,
					"target":{
						"node":3,
						"path":"translation"
					}
				},
				{
					"sampler":1,
					"target":{
						"node":3,
						"path":"rotation"
					}
				},
				{
					"sampler":2,
					"target":{
						"node":3,
						"path":"scale"
					}
				}
			],
			"name":"Action.066",
			"samplers":[
				{
					"input":49,
					"interpolation":"LINEAR",
					"output":60
				},
				{
					"input":49,
					"interpolation":"LINEAR",
					"output":61
				},
				{
					"input":49,
					"interpolation":"STEP",
					"output":62
				}
			]
		},
		{
			"channels":[
				{
					"sampler":0,
					"target":{
						"node":4,
						"path":"translation"
					}
				},
				{
					"sampler":1,
					"target":{
						"node":4,
						"path":"rotation"
					}
				},
				{
					"sampler":2,
					"target":{
						"node":4,
						"path":"scale"
					}
				}
			],
			"name":"Action.067",
			"samplers":[
				{
					"input":49,
					"interpolation":"LINEAR",
					"output":63
				},
				{
					"input":49,
					"interpolation":"LINEAR",
					"output":64
				},
				{
					"input":49,
					"interpolation":"STEP",
					"output":65
				}
			]
		},
		{
			"channels":[
				{
					"sampler":0,
					"target":{
						"node":11,
						"path":"translation"
					}
				},
				{
					"sampler":1,
					"target":{
						"node":11,
						"path":"rotation"
					}
				},
				{
					"sampler":2,
					"target":{
						"node":11,
						"path":"scale"
					}
				}
			],
			"name":"Action.011",
			"samplers":[
				{
					"input":46,
					"interpolation":"LINEAR",
					"output":66
				},
				{
					"input":46,
					"interpolation":"LINEAR",
					"output":67
				},
				{
					"input":49,
					"interpolation":"LINEAR",
					"output":68
				}
			]
		},
		{
			"channels":[
				{
					"sampler":0,
					"target":{
						"node":6,
						"path":"translation"
					}
				},
				{
					"sampler":1,
					"target":{
						"node":6,
						"path":"rotation"
					}
				},
				{
					"sampler":2,
					"target":{
						"node":6,
						"path":"scale"
					}
				}
			],
			"name":"Action.035",
			"samplers":[
				{
					"input":49,
					"interpolation":"LINEAR",
					"output":69
				},
				{
					"input":49,
					"interpolation":"LINEAR",
					"output":70
				},
				{
					"input":49,
					"interpolation":"STEP",
					"output":71
				}
			]
		},
		{
			"channels":[
				{
					"sampler":0,
					"target":{
						"node":7,
						"path":"translation"
					}
				},
				{
					"sampler":1,
					"target":{
						"node":7,
						"path":"rotation"
					}
				},
				{
					"sampler":2,
					"target":{
						"node":7,
						"path":"scale"
					}
				}
			],
			"name":"Action.063",
			"samplers":[
				{
					"input":49,
					"interpolation":"LINEAR",
					"output":72
				},
				{
					"input":49,
					"interpolation":"LINEAR",
					"output":73
				},
				{
					"input":49,
					"interpolation":"STEP",
					"output":74
				}
			]
		},
		{
			"channels":[
				{
					"sampler":0,
					"target":{
						"node":8,
						"path":"translation"
					}
				},
				{
					"sampler":1,
					"target":{
						"node":8,
						"path":"rotation"
					}
				},
				{
					"sampler":2,
					"target":{
						"node":8,
						"path":"scale"
					}
				}
			],
			"name":"Action.064",
			"samplers":[
				{
					"input":49,
					"interpolation":"LINEAR",
					"output":75
				},
				{
					"input":49,
					"interpolation":"LINEAR",
					"output":76
				},
				{
					"input":49,
					"interpolation":"STEP",
					"output":77
				}
			]
		},
		{
			"channels":[
				{
					"sampler":0,
					"target":{
						"node":9,
						"path":"translation"
					}
				},
				{
					"sampler":1,
					"target":{
						"node":9,
						"path":"rotation"
					}
				},
				{
					"sampler":2,
					"target":{
						"node":9,
						"path":"scale"
					}
				}
			],
			"name":"Action.061",
			"samplers":[
				{
					"input":49,
					"interpolation":"LINEAR",
					"output":78
				},
				{
					"input":49,
					"interpolation":"LINEAR",
					"output":79
				},
				{
					"input":49,
					"interpolation":"STEP",
					"output":80
				}
			]
		},
		{
			"channels":[
				{
					"sampler":0,
					"target":{
						"node":10,
						"path":"translation"
					}
				},
				{
					"sampler":1,
					"target":{
						"node":10,
						"path":"rotation"
					}
				},
				{
					"sampler":2,
					"target":{
						"node":10,
						"path":"scale"
					}
				}
			],
			"name":"Action.062",
			"samplers":[
				{
					"input":49,
					"interpolation":"LINEAR",
					"output":81
				},
				{
					"input":49,
					"interpolation":"LINEAR",
					"output":82
				},
				{
					"input":49,
					"interpolation":"STEP",
					"output":83
				}
			]
		}
	],
	"materials":[
		{
			"doubleSided":true,
			"name":"buscute.002",
			"normalTexture":{
				"index":0
			},
			"pbrMetallicRoughness":{
				"baseColorTexture":{
					"index":1
				},
				"metallicFactor":0,
				"metallicRoughnessTexture":{
					"index":2
				}
			}
		},
		{
			"doubleSided":true,
			"name":"liquedchoclate2",
			"normalTexture":{
				"index":3
			},
			"pbrMetallicRoughness":{
				"baseColorTexture":{
					"index":4
				},
				"metallicFactor":0,
				"metallicRoughnessTexture":{
					"index":5
				}
			}
		},
		{
			"doubleSided":true,
			"name":"Chocolate with Nuts",
			"normalTexture":{
				"index":6
			},
			"pbrMetallicRoughness":{
				"baseColorTexture":{
					"index":7
				},
				"metallicFactor":0,
				"metallicRoughnessTexture":{
					"index":8
				}
			}
		},
		{
			"doubleSided":true,
			"name":"Blueberry",
			"normalTexture":{
				"index":9
			},
			"pbrMetallicRoughness":{
				"baseColorTexture":{
					"index":10
				},
				"metallicFactor":0,
				"metallicRoughnessTexture":{
					"index":11
				}
			}
		},
		{
			"doubleSided":true,
			"name":"buscute.003",
			"normalTexture":{
				"index":12
			},
			"pbrMetallicRoughness":{
				"baseColorTexture":{
					"index":13
				},
				"metallicFactor":0,
				"metallicRoughnessTexture":{
					"index":14
				}
			}
		},
		{
			"doubleSided":true,
			"name":"sun",
			"pbrMetallicRoughness":{
				"baseColorTexture":{
					"index":15
				},
				"metallicFactor":0,
				"roughnessFactor":0
			}
		},
		{
			"doubleSided":true,
			"name":"buscute.001",
			"normalTexture":{
				"index":16
			},
			"pbrMetallicRoughness":{
				"baseColorTexture":{
					"index":17
				},
				"metallicFactor":0,
				"metallicRoughnessTexture":{
					"index":18
				}
			}
		}
	],
	"meshes":[
		{
			"name":"Sphere.044",
			"primitives":[
				{
					"attributes":{
						"POSITION":0,
						"NORMAL":1,
						"TEXCOORD_0":2
					},
					"indices":3,
					"material":0
				}
			]
		},
		{
			"name":"Sphere.095",
			"primitives":[
				{
					"attributes":{
						"POSITION":4,
						"NORMAL":5,
						"TEXCOORD_0":6
					},
					"indices":7,
					"material":1
				}
			]
		},
		{
			"name":"Sphere.047",
			"primitives":[
				{
					"attributes":{
						"POSITION":8,
						"NORMAL":9,
						"TEXCOORD_0":10
					},
					"indices":11,
					"material":2
				}
			]
		},
		{
			"name":"Sphere.096",
			"primitives":[
				{
					"attributes":{
						"POSITION":12,
						"NORMAL":13,
						"TEXCOORD_0":14
					},
					"indices":15,
					"material":3
				}
			]
		},
		{
			"name":"Sphere.097",
			"primitives":[
				{
					"attributes":{
						"POSITION":16,
						"NORMAL":17,
						"TEXCOORD_0":18
					},
					"indices":19,
					"material":4
				}
			]
		},
		{
			"name":"Sphere.013",
			"primitives":[
				{
					"attributes":{
						"POSITION":20,
						"NORMAL":21,
						"TEXCOORD_0":22
					},
					"indices":23,
					"material":5
				}
			]
		},
		{
			"name":"Sphere.053",
			"primitives":[
				{
					"attributes":{
						"POSITION":24,
						"NORMAL":25,
						"TEXCOORD_0":26
					},
					"indices":27,
					"material":6
				}
			]
		},
		{
			"name":"Sphere.004",
			"primitives":[
				{
					"attributes":{
						"POSITION":28,
						"NORMAL":29,
						"TEXCOORD_0":30
					},
					"indices":15,
					"material":3
				}
			]
		},
		{
			"name":"Sphere.015",
			"primitives":[
				{
					"attributes":{
						"POSITION":31,
						"NORMAL":32,
						"TEXCOORD_0":33
					},
					"indices":34,
					"material":4
				}
			]
		},
		{
			"name":"Sphere.054",
			"primitives":[
				{
					"attributes":{
						"POSITION":35,
						"NORMAL":36,
						"TEXCOORD_0":37
					},
					"indices":38,
					"material":1
				}
			]
		},
		{
			"name":"Sphere.055",
			"primitives":[
				{
					"attributes":{
						"POSITION":39,
						"NORMAL":40,
						"TEXCOORD_0":41
					},
					"indices":42,
					"material":2
				}
			]
		},
		{
			"name":"Sphere.014",
			"primitives":[
				{
					"attributes":{
						"POSITION":43,
						"NORMAL":44,
						"TEXCOORD_0":45
					},
					"indices":23,
					"material":5
				}
			]
		}
	],
	"textures":[
		{
			"sampler":0,
			"source":0
		},
		{
			"sampler":0,
			"source":1
		},
		{
			"sampler":0,
			"source":2
		},
		{
			"sampler":0,
			"source":0
		},
		{
			"sampler":0,
			"source":1
		},
		{
			"sampler":0,
			"source":2
		},
		{
			"sampler":0,
			"source":0
		},
		{
			"sampler":0,
			"source":1
		},
		{
			"sampler":0,
			"source":2
		},
		{
			"sampler":0,
			"source":0
		},
		{
			"sampler":0,
			"source":1
		},
		{
			"sampler":0,
			"source":2
		},
		{
			"sampler":0,
			"source":0
		},
		{
			"sampler":0,
			"source":1
		},
		{
			"sampler":0,
			"source":2
		},
		{
			"sampler":0,
			"source":3
		},
		{
			"sampler":0,
			"source":0
		},
		{
			"sampler":0,
			"source":1
		},
		{
			"sampler":0,
			"source":2
		}
	],
	"images":[
		{
			"mimeType":"image/png",
			"name":"Sun normal",
			"uri":"Sun%20normal.png"
		},
		{
			"mimeType":"image/png",
			"name":"Sun color",
			"uri":"Sun%20color.png"
		},
		{
			"mimeType":"image/png",
			"name":"Sun roughness",
			"uri":"Sun%20roughness.png"
		},
		{
			"mimeType":"image/jpeg",
			"name":"8k_sun",
			"uri":"8k_sun.jpg"
		}
	],
	"accessors":[
		{
			"bufferView":0,
			"componentType":5126,
			"count":136,
			"max":[
				0.8824060559272766,
				0.8824068903923035,
				-0.022251619026064873
			],
			"min":[
				-0.8824066519737244,
				-0.8824068903923035,
				-0.05368276312947273
			],
			"type":"VEC3"
		},
		{
			"bufferView":1,
			"componentType":5126,
			"count":136,
			"type":"VEC3"
		},
		{
			"bufferView":2,
			"componentType":5126,
			"count":136,
			"type":"VEC2"
		},
		{
			"bufferView":3,
			"componentType":5123,
			"count":384,
			"type":"SCALAR"
		},
		{
			"bufferView":4,
			"componentType":5126,
			"count":136,
			"max":[
				0.6990240216255188,
				0.6990247368812561,
				-0.05044082924723625
			],
			"min":[
				-0.6990245580673218,
				-0.6990247368812561,
				-0.09434263408184052
			],
			"type":"VEC3"
		},
		{
			"bufferView":5,
			"componentType":5126,
			"count":136,
			"type":"VEC3"
		},
		{
			"bufferView":6,
			"componentType":5126,
			"count":136,
			"type":"VEC2"
		},
		{
			"bufferView":7,
			"componentType":5123,
			"count":384,
			"type":"SCALAR"
		},
		{
			"bufferView":8,
			"componentType":5126,
			"count":136,
			"max":[
				0.9999990463256836,
				1,
				9.478179094912775e-07
			],
			"min":[
				-0.9999997019767761,
				-1,
				-0.06205050274729729
			],
			"type":"VEC3"
		},
		{
			"bufferView":9,
			"componentType":5126,
			"count":136,
			"type":"VEC3"
		},
		{
			"bufferView":10,
			"componentType":5126,
			"count":136,
			"type":"VEC2"
		},
		{
			"bufferView":11,
			"componentType":5123,
			"count":384,
			"type":"SCALAR"
		},
		{
			"bufferView":12,
			"componentType":5126,
			"count":32,
			"max":[
				0.3015657067298889,
				0.3015662133693695,
				-0.11235995590686798
			],
			"min":[
				-0.3015659749507904,
				-0.3015657961368561,
				-0.11236017197370529
			],
			"type":"VEC3"
		},
		{
			"bufferView":13,
			"componentType":5126,
			"count":32,
			"type":"VEC3"
		},
		{
			"bufferView":14,
			"componentType":5126,
			"count":32,
			"type":"VEC2"
		},
		{
			"bufferView":15,
			"componentType":5123,
			"count":90,
			"type":"SCALAR"
		},
		{
			"bufferView":16,
			"componentType":5126,
			"count":192,
			"max":[
				0.5090165734291077,
				0.5090174674987793,
				-0.09455583244562149
			],
			"min":[
				-0.5090170502662659,
				-0.509016752243042,
				-0.13419662415981293
			],
			"type":"VEC3"
		},
		{
			"bufferView":17,
			"componentType":5126,
			"count":192,
			"type":"VEC3"
		},
		{
			"bufferView":18,
			"componentType":5126,
			"count":192,
			"type":"VEC2"
		},
		{
			"bufferView":19,
			"componentType":5123,
			"count":384,
			"type":"SCALAR"
		},
		{
			"bufferView":20,
			"componentType":5126,
			"count":287,
			"max":[
				0.9999990463256836,
				1,
				3.457416255514545e-07
			],
			"min":[
				-0.9999997019767761,
				-1,
				-0.9999993443489075
			],
			"type":"VEC3"
		},
		{
			"bufferView":21,
			"componentType":5126,
			"count":287,
			"type":"VEC3"
		},
		{
			"bufferView":22,
			"componentType":5126,
			"count":287,
			"type":"VEC2"
		},
		{
			"bufferView":23,
			"componentType":5123,
			"count":1440,
			"type":"SCALAR"
		},
		{
			"bufferView":24,
			"componentType":5126,
			"count":136,
			"max":[
				0.8824066519737244,
				0.8824068903923035,
				0.053682971745729446
			],
			"min":[
				-0.8824060559272766,
				-0.8824068903923035,
				0.022251352667808533
			],
			"type":"VEC3"
		},
		{
			"bufferView":25,
			"componentType":5126,
			"count":136,
			"type":"VEC3"
		},
		{
			"bufferView":26,
			"componentType":5126,
			"count":136,
			"type":"VEC2"
		},
		{
			"bufferView":27,
			"componentType":5123,
			"count":384,
			"type":"SCALAR"
		},
		{
			"bufferView":28,
			"componentType":5126,
			"count":32,
			"max":[
				0.301565945148468,
				0.3015662133693695,
				0.11236017197370529
			],
			"min":[
				-0.3015657365322113,
				-0.3015657961368561,
				0.11235985904932022
			],
			"type":"VEC3"
		},
		{
			"bufferView":29,
			"componentType":5126,
			"count":32,
			"type":"VEC3"
		},
		{
			"bufferView":30,
			"componentType":5126,
			"count":32,
			"type":"VEC2"
		},
		{
			"bufferView":31,
			"componentType":5126,
			"count":192,
			"max":[
				0.5090169906616211,
				0.5090174674987793,
				0.13419662415981293
			],
			"min":[
				-0.5090166330337524,
				-0.509016752243042,
				0.09455578029155731
			],
			"type":"VEC3"
		},
		{
			"bufferView":32,
			"componentType":5126,
			"count":192,
			"type":"VEC3"
		},
		{
			"bufferView":33,
			"componentType":5126,
			"count":192,
			"type":"VEC2"
		},
		{
			"bufferView":34,
			"componentType":5123,
			"count":384,
			"type":"SCALAR"
		},
		{
			"bufferView":35,
			"componentType":5126,
			"count":136,
			"max":[
				0.6990245580673218,
				0.6990247368812561,
				0.09434256702661514
			],
			"min":[
				-0.6990240216255188,
				-0.6990247368812561,
				0.050441037863492966
			],
			"type":"VEC3"
		},
		{
			"bufferView":36,
			"componentType":5126,
			"count":136,
			"type":"VEC3"
		},
		{
			"bufferView":37,
			"componentType":5126,
			"count":136,
			"type":"VEC2"
		},
		{
			"bufferView":38,
			"componentType":5123,
			"count":384,
			"type":"SCALAR"
		},
		{
			"bufferView":39,
			"componentType":5126,
			"count":134,
			"max":[
				0.9999997019767761,
				1,
				0.06205076724290848
			],
			"min":[
				-0.9999990463256836,
				-1,
				-1.248856051461189e-06
			],
			"type":"VEC3"
		},
		{
			"bufferView":40,
			"componentType":5126,
			"count":134,
			"type":"VEC3"
		},
		{
			"bufferView":41,
			"componentType":5126,
			"count":134,
			"type":"VEC2"
		},
		{
			"bufferView":42,
			"componentType":5123,
			"count":384,
			"type":"SCALAR"
		},
		{
			"bufferView":43,
			"componentType":5126,
			"count":287,
			"max":[
				0.9999997019767761,
				1,
				0.9999993443489075
			],
			"min":[
				-0.9999990463256836,
				-1,
				-6.46779767521366e-07
			],
			"type":"VEC3"
		},
		{
			"bufferView":44,
			"componentType":5126,
			"count":287,
			"type":"VEC3"
		},
		{
			"bufferView":45,
			"componentType":5126,
			"count":287,
			"type":"VEC2"
		},
		{
			"bufferView":46,
			"componentType":5126,
			"count":50,
			"max":[
				2.0833333333333335
			],
			"min":[
				0.041666666666666664
			],
			"type":"SCALAR"
		},
		{
			"bufferView":47,
			"componentType":5126,
			"count":50,
			"type":"VEC3"
		},
		{
			"bufferView":48,
			"componentType":5126,
			"count":50,
			"type":"VEC4"
		},
		{
			"bufferView":49,
			"componentType":5126,
			"count":2,
			"max":[
				2.0833333333333335
			],
			"min":[
				0.041666666666666664
			],
			"type":"SCALAR"
		},
		{
			"bufferView":50,
			"componentType":5126,
			"count":2,
			"type":"VEC3"
		},
		{
			"bufferView":51,
			"componentType":5126,
			"count":2,
			"type":"VEC3"
		},
		{
			"bufferView":52,
			"componentType":5126,
			"count":2,
			"type":"VEC4"
		},
		{
			"bufferView":53,
			"componentType":5126,
			"count":2,
			"type":"VEC3"
		},
		{
			"bufferView":54,
			"componentType":5126,
			"count":2,
			"type":"VEC3"
		},
		{
			"bufferView":55,
			"componentType":5126,
			"count":2,
			"type":"VEC4"
		},
		{
			"bufferView":56,
			"componentType":5126,
			"count":2,
			"type":"VEC3"
		},
		{
			"bufferView":57,
			"componentType":5126,
			"count":2,
			"type":"VEC3"
		},
		{
			"bufferView":58,
			"componentType":5126,
			"count":2,
			"type":"VEC4"
		},
		{
			"bufferView":59,
			"componentType":5126,
			"count":2,
			"type":"VEC3"
		},
		{
			"bufferView":60,
			"componentType":5126,
			"count":2,
			"type":"VEC3"
		},
		{
			"bufferView":61,
			"componentType":5126,
			"count":2,
			"type":"VEC4"
		},
		{
			"bufferView":62,
			"componentType":5126,
			"count":2,
			"type":"VEC3"
		},
		{
			"bufferView":63,
			"componentType":5126,
			"count":2,
			"type":"VEC3"
		},
		{
			"bufferView":64,
			"componentType":5126,
			"count":2,
			"type":"VEC4"
		},
		{
			"bufferView":65,
			"componentType":5126,
			"count":2,
			"type":"VEC3"
		},
		{
			"bufferView":66,
			"componentType":5126,
			"count":50,
			"type":"VEC3"
		},
		{
			"bufferView":67,
			"componentType":5126,
			"count":50,
			"type":"VEC4"
		},
		{
			"bufferView":68,
			"componentType":5126,
			"count":2,
			"type":"VEC3"
		},
		{
			"bufferView":69,
			"componentType":5126,
			"count":2,
			"type":"VEC3"
		},
		{
			"bufferView":70,
			"componentType":5126,
			"count":2,
			"type":"VEC4"
		},
		{
			"bufferView":71,
			"componentType":5126,
			"count":2,
			"type":"VEC3"
		},
		{
			"bufferView":72,
			"componentType":5126,
			"count":2,
			"type":"VEC3"
		},
		{
			"bufferView":73,
			"componentType":5126,
			"count":2,
			"type":"VEC4"
		},
		{
			"bufferView":74,
			"componentType":5126,
			"count":2,
			"type":"VEC3"
		},
		{
			"bufferView":75,
			"componentType":5126,
			"count":2,
			"type":"VEC3"
		},
		{
			"bufferView":76,
			"componentType":5126,
			"count":2,
			"type":"VEC4"
		},
		{
			"bufferView":77,
			"componentType":5126,
			"count":2,
			"type":"VEC3"
		},
		{
			"bufferView":78,
			"componentType":5126,
			"count":2,
			"type":"VEC3"
		},
		{
			"bufferView":79,
			"componentType":5126,
			"count":2,
			"type":"VEC4"
		},
		{
			"bufferView":80,
			"componentType":5126,
			"count":2,
			"type":"VEC3"
		},
		{
			"bufferView":81,
			"componentType":5126,
			"count":2,
			"type":"VEC3"
		},
		{
			"bufferView":82,
			"componentType":5126,
			"count":2,
			"type":"VEC4"
		},
		{
			"bufferView":83,
			"componentType":5126,
			"count":2,
			"type":"VEC3"
		}
	],
	"bufferViews":[
		{
			"buffer":0,
			"byteLength":1632,
			"byteOffset":0,
			"target":34962
		},
		{
			"buffer":0,
			"byteLength":1632,
			"byteOffset":1632,
			"target":34962
		},
		{
			"buffer":0,
			"byteLength":1088,
			"byteOffset":3264,
			"target":34962
		},
		{
			"buffer":0,
			"byteLength":768,
			"byteOffset":4352,
			"target":34963
		},
		{
			"buffer":0,
			"byteLength":1632,
			"byteOffset":5120,
			"target":34962
		},
		{
			"buffer":0,
			"byteLength":1632,
			"byteOffset":6752,
			"target":34962
		},
		{
			"buffer":0,
			"byteLength":1088,
			"byteOffset":8384,
			"target":34962
		},
		{
			"buffer":0,
			"byteLength":768,
			"byteOffset":9472,
			"target":34963
		},
		{
			"buffer":0,
			"byteLength":1632,
			"byteOffset":10240,
			"target":34962
		},
		{
			"buffer":0,
			"byteLength":1632,
			"byteOffset":11872,
			"target":34962
		},
		{
			"buffer":0,
			"byteLength":1088,
			"byteOffset":13504,
			"target":34962
		},
		{
			"buffer":0,
			"byteLength":768,
			"byteOffset":14592,
			"target":34963
		},
		{
			"buffer":0,
			"byteLength":384,
			"byteOffset":15360,
			"target":34962
		},
		{
			"buffer":0,
			"byteLength":384,
			"byteOffset":15744,
			"target":34962
		},
		{
			"buffer":0,
			"byteLength":256,
			"byteOffset":16128,
			"target":34962
		},
		{
			"buffer":0,
			"byteLength":180,
			"byteOffset":16384,
			"target":34963
		},
		{
			"buffer":0,
			"byteLength":2304,
			"byteOffset":16564,
			"target":34962
		},
		{
			"buffer":0,
			"byteLength":2304,
			"byteOffset":18868,
			"target":34962
		},
		{
			"buffer":0,
			"byteLength":1536,
			"byteOffset":21172,
			"target":34962
		},
		{
			"buffer":0,
			"byteLength":768,
			"byteOffset":22708,
			"target":34963
		},
		{
			"buffer":0,
			"byteLength":3444,
			"byteOffset":23476,
			"target":34962
		},
		{
			"buffer":0,
			"byteLength":3444,
			"byteOffset":26920,
			"target":34962
		},
		{
			"buffer":0,
			"byteLength":2296,
			"byteOffset":30364,
			"target":34962
		},
		{
			"buffer":0,
			"byteLength":2880,
			"byteOffset":32660,
			"target":34963
		},
		{
			"buffer":0,
			"byteLength":1632,
			"byteOffset":35540,
			"target":34962
		},
		{
			"buffer":0,
			"byteLength":1632,
			"byteOffset":37172,
			"target":34962
		},
		{
			"buffer":0,
			"byteLength":1088,
			"byteOffset":38804,
			"target":34962
		},
		{
			"buffer":0,
			"byteLength":768,
			"byteOffset":39892,
			"target":34963
		},
		{
			"buffer":0,
			"byteLength":384,
			"byteOffset":40660,
			"target":34962
		},
		{
			"buffer":0,
			"byteLength":384,
			"byteOffset":41044,
			"target":34962
		},
		{
			"buffer":0,
			"byteLength":256,
			"byteOffset":41428,
			"target":34962
		},
		{
			"buffer":0,
			"byteLength":2304,
			"byteOffset":41684,
			"target":34962
		},
		{
			"buffer":0,
			"byteLength":2304,
			"byteOffset":43988,
			"target":34962
		},
		{
			"buffer":0,
			"byteLength":1536,
			"byteOffset":46292,
			"target":34962
		},
		{
			"buffer":0,
			"byteLength":768,
			"byteOffset":47828,
			"target":34963
		},
		{
			"buffer":0,
			"byteLength":1632,
			"byteOffset":48596,
			"target":34962
		},
		{
			"buffer":0,
			"byteLength":1632,
			"byteOffset":50228,
			"target":34962
		},
		{
			"buffer":0,
			"byteLength":1088,
			"byteOffset":51860,
			"target":34962
		},
		{
			"buffer":0,
			"byteLength":768,
			"byteOffset":52948,
			"target":34963
		},
		{
			"buffer":0,
			"byteLength":1608,
			"byteOffset":53716,
			"target":34962
		},
		{
			"buffer":0,
			"byteLength":1608,
			"byteOffset":55324,
			"target":34962
		},
		{
			"buffer":0,
			"byteLength":1072,
			"byteOffset":56932,
			"target":34962
		},
		{
			"buffer":0,
			"byteLength":768,
			"byteOffset":58004,
			"target":34963
		},
		{
			"buffer":0,
			"byteLength":3444,
			"byteOffset":58772,
			"target":34962
		},
		{
			"buffer":0,
			"byteLength":3444,
			"byteOffset":62216,
			"target":34962
		},
		{
			"buffer":0,
			"byteLength":2296,
			"byteOffset":65660,
			"target":34962
		},
		{
			"buffer":0,
			"byteLength":200,
			"byteOffset":67956
		},
		{
			"buffer":0,
			"byteLength":600,
			"byteOffset":68156
		},
		{
			"buffer":0,
			"byteLength":800,
			"byteOffset":68756
		},
		{
			"buffer":0,
			"byteLength":8,
			"byteOffset":69556
		},
		{
			"buffer":0,
			"byteLength":24,
			"byteOffset":69564
		},
		{
			"buffer":0,
			"byteLength":24,
			"byteOffset":69588
		},
		{
			"buffer":0,
			"byteLength":32,
			"byteOffset":69612
		},
		{
			"buffer":0,
			"byteLength":24,
			"byteOffset":69644
		},
		{
			"buffer":0,
			"byteLength":24,
			"byteOffset":69668
		},
		{
			"buffer":0,
			"byteLength":32,
			"byteOffset":69692
		},
		{
			"buffer":0,
			"byteLength":24,
			"byteOffset":69724
		},
		{
			"buffer":0,
			"byteLength":24,
			"byteOffset":69748
		},
		{
			"buffer":0,
			"byteLength":32,
			"byteOffset":69772
		},
		{
			"buffer":0,
			"byteLength":24,
			"byteOffset":69804
		},
		{
			"buffer":0,
			"byteLength":24,
			"byteOffset":69828
		},
		{
			"buffer":0,
			"byteLength":32,
			"byteOffset":69852
		},
		{
			"buffer":0,
			"byteLength":24,
			"byteOffset":69884
		},
		{
			"buffer":0,
			"byteLength":24,
			"byteOffset":69908
		},
		{
			"buffer":0,
			"byteLength":32,
			"byteOffset":69932
		},
		{
			"buffer":0,
			"byteLength":24,
			"byteOffset":69964
		},
		{
			"buffer":0,
			"byteLength":600,
			"byteOffset":69988
		},
		{
			"buffer":0,
			"byteLength":800,
			"byteOffset":70588
		},
		{
			"buffer":0,
			"byteLength":24,
			"byteOffset":71388
		},
		{
			"buffer":0,
			"byteLength":24,
			"byteOffset":71412
		},
		{
			"buffer":0,
			"byteLength":32,
			"byteOffset":71436
		},
		{
			"buffer":0,
			"byteLength":24,
			"byteOffset":71468
		},
		{
			"buffer":0,
			"byteLength":24,
			"byteOffset":71492
		},
		{
			"buffer":0,
			"byteLength":32,
			"byteOffset":71516
		},
		{
			"buffer":0,
			"byteLength":24,
			"byteOffset":71548
		},
		{
			"buffer":0,
			"byteLength":24,
			"byteOffset":71572
		},
		{
			"buffer":0,
			"byteLength":32,
			"byteOffset":71596
		},
		{
			"buffer":0,
			"byteLength":24,
			"byteOffset":71628
		},
		{
			"buffer":0,
			"byteLength":24,
			"byteOffset":71652
		},
		{
			"buffer":0,
			"byteLength":32,
			"byteOffset":71676
		},
		{
			"buffer":0,
			"byteLength":24,
			"byteOffset":71708
		},
		{
			"buffer":0,
			"byteLength":24,
			"byteOffset":71732
		},
		{
			"buffer":0,
			"byteLength":32,
			"byteOffset":71756
		},
		{
			"buffer":0,
			"byteLength":24,
			"byteOffset":71788
		}
	],
	"samplers":[
		{
			"magFilter":9729,
			"minFilter":9987
		}
	],
	"buffers":[
		{
			"byteLength":71812,
			"uri":"Sun.bin"
		}
	]
}
