{
	"asset":{
		"generator":"Khronos glTF Blender I/O v4.0.44",
		"version":"2.0"
	},
	"scene":0,
	"scenes":[
		{
			"name":"Scene",
			"nodes":[
				5,
				11
			]
		}
	],
	"nodes":[
		{
			"mesh":0,
			"name":"Sphere.112"
		},
		{
			"mesh":1,
			"name":"Sphere.113"
		},
		{
			"mesh":2,
			"name":"Sphere.114"
		},
		{
			"mesh":3,
			"name":"Sphere.115"
		},
		{
			"mesh":4,
			"name":"Sphere.116"
		},
		{
			"children":[
				0,
				1,
				2,
				3,
				4
			],
			"mesh":5,
			"name":"Sphere.105"
		},
		{
			"mesh":6,
			"name":"Sphere.107"
		},
		{
			"mesh":7,
			"name":"Sphere.108"
		},
		{
			"mesh":8,
			"name":"Sphere.109"
		},
		{
			"mesh":9,
			"name":"Sphere.110"
		},
		{
			"mesh":10,
			"name":"Sphere.111"
		},
		{
			"children":[
				6,
				7,
				8,
				9,
				10
			],
			"mesh":11,
			"name":"Sphere.106"
		}
	],
	"animations":[
		{
			"channels":[
				{
					"sampler":0,
					"target":{
						"node":5,
						"path":"translation"
					}
				},
				{
					"sampler":1,
					"target":{
						"node":5,
						"path":"rotation"
					}
				},
				{
					"sampler":2,
					"target":{
						"node":5,
						"path":"scale"
					}
				}
			],
			"name":"Action.075",
			"samplers":[
				{
					"input":46,
					"interpolation":"LINEAR",
					"output":47
				},
				{
					"input":46,
					"interpolation":"LINEAR",
					"output":48
				},
				{
					"input":49,
					"interpolation":"STEP",
					"output":50
				}
			]
		},
		{
			"channels":[
				{
					"sampler":0,
					"target":{
						"node":0,
						"path":"translation"
					}
				},
				{
					"sampler":1,
					"target":{
						"node":0,
						"path":"rotation"
					}
				},
				{
					"sampler":2,
					"target":{
						"node":0,
						"path":"scale"
					}
				}
			],
			"name":"Action.084",
			"samplers":[
				{
					"input":49,
					"interpolation":"LINEAR",
					"output":51
				},
				{
					"input":49,
					"interpolation":"LINEAR",
					"output":52
				},
				{
					"input":49,
					"interpolation":"STEP",
					"output":53
				}
			]
		},
		{
			"channels":[
				{
					"sampler":0,
					"target":{
						"node":1,
						"path":"translation"
					}
				},
				{
					"sampler":1,
					"target":{
						"node":1,
						"path":"rotation"
					}
				},
				{
					"sampler":2,
					"target":{
						"node":1,
						"path":"scale"
					}
				}
			],
			"name":"Action.085",
			"samplers":[
				{
					"input":49,
					"interpolation":"LINEAR",
					"output":54
				},
				{
					"input":49,
					"interpolation":"LINEAR",
					"output":55
				},
				{
					"input":49,
					"interpolation":"STEP",
					"output":56
				}
			]
		},
		{
			"channels":[
				{
					"sampler":0,
					"target":{
						"node":2,
						"path":"translation"
					}
				},
				{
					"sampler":1,
					"target":{
						"node":2,
						"path":"rotation"
					}
				},
				{
					"sampler":2,
					"target":{
						"node":2,
						"path":"scale"
					}
				}
			],
			"name":"Action.086",
			"samplers":[
				{
					"input":49,
					"interpolation":"LINEAR",
					"output":57
				},
				{
					"input":49,
					"interpolation":"LINEAR",
					"output":58
				},
				{
					"input":49,
					"interpolation":"STEP",
					"output":59
				}
			]
		},
		{
			"channels":[
				{
					"sampler":0,
					"target":{
						"node":3,
						"path":"translation"
					}
				},
				{
					"sampler":1,
					"target":{
						"node":3,
						"path":"rotation"
					}
				},
				{
					"sampler":2,
					"target":{
						"node":3,
						"path":"scale"
					}
				}
			],
			"name":"Action.087",
			"samplers":[
				{
					"input":49,
					"interpolation":"LINEAR",
					"output":60
				},
				{
					"input":49,
					"interpolation":"LINEAR",
					"output":61
				},
				{
					"input":49,
					"interpolation":"STEP",
					"output":62
				}
			]
		},
		{
			"channels":[
				{
					"sampler":0,
					"target":{
						"node":4,
						"path":"translation"
					}
				},
				{
					"sampler":1,
					"target":{
						"node":4,
						"path":"rotation"
					}
				},
				{
					"sampler":2,
					"target":{
						"node":4,
						"path":"scale"
					}
				}
			],
			"name":"Action.088",
			"samplers":[
				{
					"input":49,
					"interpolation":"LINEAR",
					"output":63
				},
				{
					"input":49,
					"interpolation":"LINEAR",
					"output":64
				},
				{
					"input":49,
					"interpolation":"STEP",
					"output":65
				}
			]
		},
		{
			"channels":[
				{
					"sampler":0,
					"target":{
						"node":11,
						"path":"translation"
					}
				},
				{
					"sampler":1,
					"target":{
						"node":11,
						"path":"rotation"
					}
				},
				{
					"sampler":2,
					"target":{
						"node":11,
						"path":"scale"
					}
				}
			],
			"name":"Action.076",
			"samplers":[
				{
					"input":46,
					"interpolation":"LINEAR",
					"output":66
				},
				{
					"input":46,
					"interpolation":"LINEAR",
					"output":67
				},
				{
					"input":49,
					"interpolation":"LINEAR",
					"output":68
				}
			]
		},
		{
			"channels":[
				{
					"sampler":0,
					"target":{
						"node":6,
						"path":"translation"
					}
				},
				{
					"sampler":1,
					"target":{
						"node":6,
						"path":"rotation"
					}
				},
				{
					"sampler":2,
					"target":{
						"node":6,
						"path":"scale"
					}
				}
			],
			"name":"Action.077",
			"samplers":[
				{
					"input":49,
					"interpolation":"LINEAR",
					"output":69
				},
				{
					"input":49,
					"interpolation":"LINEAR",
					"output":70
				},
				{
					"input":49,
					"interpolation":"STEP",
					"output":71
				}
			]
		},
		{
			"channels":[
				{
					"sampler":0,
					"target":{
						"node":7,
						"path":"translation"
					}
				},
				{
					"sampler":1,
					"target":{
						"node":7,
						"path":"rotation"
					}
				},
				{
					"sampler":2,
					"target":{
						"node":7,
						"path":"scale"
					}
				}
			],
			"name":"Action.080",
			"samplers":[
				{
					"input":49,
					"interpolation":"LINEAR",
					"output":72
				},
				{
					"input":49,
					"interpolation":"LINEAR",
					"output":73
				},
				{
					"input":49,
					"interpolation":"STEP",
					"output":74
				}
			]
		},
		{
			"channels":[
				{
					"sampler":0,
					"target":{
						"node":8,
						"path":"translation"
					}
				},
				{
					"sampler":1,
					"target":{
						"node":8,
						"path":"rotation"
					}
				},
				{
					"sampler":2,
					"target":{
						"node":8,
						"path":"scale"
					}
				}
			],
			"name":"Action.081",
			"samplers":[
				{
					"input":49,
					"interpolation":"LINEAR",
					"output":75
				},
				{
					"input":49,
					"interpolation":"LINEAR",
					"output":76
				},
				{
					"input":49,
					"interpolation":"STEP",
					"output":77
				}
			]
		},
		{
			"channels":[
				{
					"sampler":0,
					"target":{
						"node":9,
						"path":"translation"
					}
				},
				{
					"sampler":1,
					"target":{
						"node":9,
						"path":"rotation"
					}
				},
				{
					"sampler":2,
					"target":{
						"node":9,
						"path":"scale"
					}
				}
			],
			"name":"Action.082",
			"samplers":[
				{
					"input":49,
					"interpolation":"LINEAR",
					"output":78
				},
				{
					"input":49,
					"interpolation":"LINEAR",
					"output":79
				},
				{
					"input":49,
					"interpolation":"STEP",
					"output":80
				}
			]
		},
		{
			"channels":[
				{
					"sampler":0,
					"target":{
						"node":10,
						"path":"translation"
					}
				},
				{
					"sampler":1,
					"target":{
						"node":10,
						"path":"rotation"
					}
				},
				{
					"sampler":2,
					"target":{
						"node":10,
						"path":"scale"
					}
				}
			],
			"name":"Action.083",
			"samplers":[
				{
					"input":49,
					"interpolation":"LINEAR",
					"output":81
				},
				{
					"input":49,
					"interpolation":"LINEAR",
					"output":82
				},
				{
					"input":49,
					"interpolation":"STEP",
					"output":83
				}
			]
		}
	],
	"materials":[
		{
			"doubleSided":true,
			"name":"Chocolate with Nuts",
			"normalTexture":{
				"index":0
			},
			"pbrMetallicRoughness":{
				"baseColorTexture":{
					"index":1
				},
				"metallicFactor":0,
				"metallicRoughnessTexture":{
					"index":2
				}
			}
		},
		{
			"doubleSided":true,
			"name":"buscute.002",
			"normalTexture":{
				"index":3
			},
			"pbrMetallicRoughness":{
				"baseColorTexture":{
					"index":4
				},
				"metallicFactor":0,
				"metallicRoughnessTexture":{
					"index":5
				}
			}
		},
		{
			"doubleSided":true,
			"name":"Blueberry",
			"normalTexture":{
				"index":6
			},
			"pbrMetallicRoughness":{
				"baseColorTexture":{
					"index":7
				},
				"metallicFactor":0,
				"metallicRoughnessTexture":{
					"index":8
				}
			}
		},
		{
			"doubleSided":true,
			"name":"buscute.003",
			"normalTexture":{
				"index":9
			},
			"pbrMetallicRoughness":{
				"baseColorTexture":{
					"index":10
				},
				"metallicFactor":0,
				"metallicRoughnessTexture":{
					"index":11
				}
			}
		},
		{
			"doubleSided":true,
			"name":"Chocolate 01",
			"normalTexture":{
				"index":12
			},
			"pbrMetallicRoughness":{
				"baseColorTexture":{
					"index":13
				},
				"metallicFactor":0,
				"metallicRoughnessTexture":{
					"index":14
				}
			}
		},
		{
			"doubleSided":true,
			"name":"Mars",
			"pbrMetallicRoughness":{
				"baseColorTexture":{
					"index":15
				},
				"metallicFactor":0,
				"roughnessFactor":0.5
			}
		}
	],
	"meshes":[
		{
			"name":"Sphere.111",
			"primitives":[
				{
					"attributes":{
						"POSITION":0,
						"NORMAL":1,
						"TEXCOORD_0":2
					},
					"indices":3,
					"material":0
				}
			]
		},
		{
			"name":"Sphere.112",
			"primitives":[
				{
					"attributes":{
						"POSITION":4,
						"NORMAL":5,
						"TEXCOORD_0":6
					},
					"indices":7,
					"material":1
				}
			]
		},
		{
			"name":"Sphere.113",
			"primitives":[
				{
					"attributes":{
						"POSITION":8,
						"NORMAL":9,
						"TEXCOORD_0":10
					},
					"indices":11,
					"material":2
				}
			]
		},
		{
			"name":"Sphere.114",
			"primitives":[
				{
					"attributes":{
						"POSITION":12,
						"NORMAL":13,
						"TEXCOORD_0":14
					},
					"indices":15,
					"material":3
				}
			]
		},
		{
			"name":"Sphere.115",
			"primitives":[
				{
					"attributes":{
						"POSITION":16,
						"NORMAL":17,
						"TEXCOORD_0":18
					},
					"indices":19,
					"material":4
				}
			]
		},
		{
			"name":"Sphere.104",
			"primitives":[
				{
					"attributes":{
						"POSITION":20,
						"NORMAL":21,
						"TEXCOORD_0":22
					},
					"indices":23,
					"material":5
				}
			]
		},
		{
			"name":"Sphere.106",
			"primitives":[
				{
					"attributes":{
						"POSITION":24,
						"NORMAL":25,
						"TEXCOORD_0":26
					},
					"indices":27,
					"material":0
				}
			]
		},
		{
			"name":"Sphere.107",
			"primitives":[
				{
					"attributes":{
						"POSITION":28,
						"NORMAL":29,
						"TEXCOORD_0":30
					},
					"indices":31,
					"material":1
				}
			]
		},
		{
			"name":"Sphere.108",
			"primitives":[
				{
					"attributes":{
						"POSITION":32,
						"NORMAL":33,
						"TEXCOORD_0":34
					},
					"indices":35,
					"material":2
				}
			]
		},
		{
			"name":"Sphere.109",
			"primitives":[
				{
					"attributes":{
						"POSITION":36,
						"NORMAL":37,
						"TEXCOORD_0":38
					},
					"indices":39,
					"material":3
				}
			]
		},
		{
			"name":"Sphere.110",
			"primitives":[
				{
					"attributes":{
						"POSITION":40,
						"NORMAL":41,
						"TEXCOORD_0":42
					},
					"indices":19,
					"material":4
				}
			]
		},
		{
			"name":"Sphere.105",
			"primitives":[
				{
					"attributes":{
						"POSITION":43,
						"NORMAL":44,
						"TEXCOORD_0":45
					},
					"indices":23,
					"material":5
				}
			]
		}
	],
	"textures":[
		{
			"sampler":0,
			"source":0
		},
		{
			"sampler":0,
			"source":1
		},
		{
			"sampler":0,
			"source":2
		},
		{
			"sampler":0,
			"source":0
		},
		{
			"sampler":0,
			"source":1
		},
		{
			"sampler":0,
			"source":2
		},
		{
			"sampler":0,
			"source":0
		},
		{
			"sampler":0,
			"source":1
		},
		{
			"sampler":0,
			"source":2
		},
		{
			"sampler":0,
			"source":0
		},
		{
			"sampler":0,
			"source":1
		},
		{
			"sampler":0,
			"source":2
		},
		{
			"sampler":0,
			"source":0
		},
		{
			"sampler":0,
			"source":1
		},
		{
			"sampler":0,
			"source":2
		},
		{
			"sampler":0,
			"source":3
		}
	],
	"images":[
		{
			"mimeType":"image/png",
			"name":"Mars normal",
			"uri":"Mars%20normal.png"
		},
		{
			"mimeType":"image/png",
			"name":"Mars color",
			"uri":"Mars%20color.png"
		},
		{
			"mimeType":"image/png",
			"name":"Mars roughness",
			"uri":"Mars%20roughness.png"
		},
		{
			"mimeType":"image/jpeg",
			"name":"8k_mars",
			"uri":"8k_mars.jpg"
		}
	],
	"accessors":[
		{
			"bufferView":0,
			"componentType":5126,
			"count":136,
			"max":[
				0.9999990463256836,
				1,
				1.1680879197228933e-06
			],
			"min":[
				-0.9999997019767761,
				-1,
				-0.03970804810523987
			],
			"type":"VEC3"
		},
		{
			"bufferView":1,
			"componentType":5126,
			"count":136,
			"type":"VEC3"
		},
		{
			"bufferView":2,
			"componentType":5126,
			"count":136,
			"type":"VEC2"
		},
		{
			"bufferView":3,
			"componentType":5123,
			"count":384,
			"type":"SCALAR"
		},
		{
			"bufferView":4,
			"componentType":5126,
			"count":134,
			"max":[
				0.8561397790908813,
				0.8561406135559082,
				-0.0270675141364336
			],
			"min":[
				-0.8561403751373291,
				-0.8561406135559082,
				-0.06455443799495697
			],
			"type":"VEC3"
		},
		{
			"bufferView":5,
			"componentType":5126,
			"count":134,
			"type":"VEC3"
		},
		{
			"bufferView":6,
			"componentType":5126,
			"count":134,
			"type":"VEC2"
		},
		{
			"bufferView":7,
			"componentType":5123,
			"count":384,
			"type":"SCALAR"
		},
		{
			"bufferView":8,
			"componentType":5126,
			"count":136,
			"max":[
				0.7122805118560791,
				0.7122812271118164,
				-0.04994847998023033
			],
			"min":[
				-0.7122809886932373,
				-0.7122812271118164,
				-0.09362481534481049
			],
			"type":"VEC3"
		},
		{
			"bufferView":9,
			"componentType":5126,
			"count":136,
			"type":"VEC3"
		},
		{
			"bufferView":10,
			"componentType":5126,
			"count":136,
			"type":"VEC2"
		},
		{
			"bufferView":11,
			"componentType":5123,
			"count":384,
			"type":"SCALAR"
		},
		{
			"bufferView":12,
			"componentType":5126,
			"count":136,
			"max":[
				0.424562007188797,
				0.4245624542236328,
				-0.07491718232631683
			],
			"min":[
				-0.42456233501434326,
				-0.4245624542236328,
				-0.0978781208395958
			],
			"type":"VEC3"
		},
		{
			"bufferView":13,
			"componentType":5126,
			"count":136,
			"type":"VEC3"
		},
		{
			"bufferView":14,
			"componentType":5126,
			"count":136,
			"type":"VEC2"
		},
		{
			"bufferView":15,
			"componentType":5123,
			"count":384,
			"type":"SCALAR"
		},
		{
			"bufferView":16,
			"componentType":5126,
			"count":32,
			"max":[
				0.30979496240615845,
				0.3097953200340271,
				-0.09153775125741959
			],
			"min":[
				-0.3097952604293823,
				-0.3097953200340271,
				-0.09153931587934494
			],
			"type":"VEC3"
		},
		{
			"bufferView":17,
			"componentType":5126,
			"count":32,
			"type":"VEC3"
		},
		{
			"bufferView":18,
			"componentType":5126,
			"count":32,
			"type":"VEC2"
		},
		{
			"bufferView":19,
			"componentType":5123,
			"count":90,
			"type":"SCALAR"
		},
		{
			"bufferView":20,
			"componentType":5126,
			"count":287,
			"max":[
				0.9999990463256836,
				1,
				3.457416255514545e-07
			],
			"min":[
				-0.9999997019767761,
				-1,
				-0.9999993443489075
			],
			"type":"VEC3"
		},
		{
			"bufferView":21,
			"componentType":5126,
			"count":287,
			"type":"VEC3"
		},
		{
			"bufferView":22,
			"componentType":5126,
			"count":287,
			"type":"VEC2"
		},
		{
			"bufferView":23,
			"componentType":5123,
			"count":1440,
			"type":"SCALAR"
		},
		{
			"bufferView":24,
			"componentType":5126,
			"count":136,
			"max":[
				0.9999997019767761,
				1,
				0.03970760107040405
			],
			"min":[
				-0.9999990463256836,
				-1,
				-6.46779767521366e-07
			],
			"type":"VEC3"
		},
		{
			"bufferView":25,
			"componentType":5126,
			"count":136,
			"type":"VEC3"
		},
		{
			"bufferView":26,
			"componentType":5126,
			"count":136,
			"type":"VEC2"
		},
		{
			"bufferView":27,
			"componentType":5123,
			"count":384,
			"type":"SCALAR"
		},
		{
			"bufferView":28,
			"componentType":5126,
			"count":136,
			"max":[
				0.8561403751373291,
				0.8561406135559082,
				0.06455406546592712
			],
			"min":[
				-0.8561397790908813,
				-0.8561406135559082,
				0.027067961171269417
			],
			"type":"VEC3"
		},
		{
			"bufferView":29,
			"componentType":5126,
			"count":136,
			"type":"VEC3"
		},
		{
			"bufferView":30,
			"componentType":5126,
			"count":136,
			"type":"VEC2"
		},
		{
			"bufferView":31,
			"componentType":5123,
			"count":384,
			"type":"SCALAR"
		},
		{
			"bufferView":32,
			"componentType":5126,
			"count":136,
			"max":[
				0.7122809886932373,
				0.7122812271118164,
				0.09362459182739258
			],
			"min":[
				-0.7122805118560791,
				-0.7122812271118164,
				0.04994885250926018
			],
			"type":"VEC3"
		},
		{
			"bufferView":33,
			"componentType":5126,
			"count":136,
			"type":"VEC3"
		},
		{
			"bufferView":34,
			"componentType":5126,
			"count":136,
			"type":"VEC2"
		},
		{
			"bufferView":35,
			"componentType":5123,
			"count":384,
			"type":"SCALAR"
		},
		{
			"bufferView":36,
			"componentType":5126,
			"count":136,
			"max":[
				0.4245623052120209,
				0.4245624542236328,
				0.09787795692682266
			],
			"min":[
				-0.4245620369911194,
				-0.4245624542236328,
				0.07491740584373474
			],
			"type":"VEC3"
		},
		{
			"bufferView":37,
			"componentType":5126,
			"count":136,
			"type":"VEC3"
		},
		{
			"bufferView":38,
			"componentType":5126,
			"count":136,
			"type":"VEC2"
		},
		{
			"bufferView":39,
			"componentType":5123,
			"count":384,
			"type":"SCALAR"
		},
		{
			"bufferView":40,
			"componentType":5126,
			"count":32,
			"max":[
				0.30979520082473755,
				0.3097953200340271,
				0.09153915196657181
			],
			"min":[
				-0.3097950220108032,
				-0.3097953200340271,
				0.09153791517019272
			],
			"type":"VEC3"
		},
		{
			"bufferView":41,
			"componentType":5126,
			"count":32,
			"type":"VEC3"
		},
		{
			"bufferView":42,
			"componentType":5126,
			"count":32,
			"type":"VEC2"
		},
		{
			"bufferView":43,
			"componentType":5126,
			"count":287,
			"max":[
				0.9999997019767761,
				1,
				0.9999993443489075
			],
			"min":[
				-0.9999990463256836,
				-1,
				-6.46779767521366e-07
			],
			"type":"VEC3"
		},
		{
			"bufferView":44,
			"componentType":5126,
			"count":287,
			"type":"VEC3"
		},
		{
			"bufferView":45,
			"componentType":5126,
			"count":287,
			"type":"VEC2"
		},
		{
			"bufferView":46,
			"componentType":5126,
			"count":50,
			"max":[
				2.0833333333333335
			],
			"min":[
				0.041666666666666664
			],
			"type":"SCALAR"
		},
		{
			"bufferView":47,
			"componentType":5126,
			"count":50,
			"type":"VEC3"
		},
		{
			"bufferView":48,
			"componentType":5126,
			"count":50,
			"type":"VEC4"
		},
		{
			"bufferView":49,
			"componentType":5126,
			"count":2,
			"max":[
				2.0833333333333335
			],
			"min":[
				0.041666666666666664
			],
			"type":"SCALAR"
		},
		{
			"bufferView":50,
			"componentType":5126,
			"count":2,
			"type":"VEC3"
		},
		{
			"bufferView":51,
			"componentType":5126,
			"count":2,
			"type":"VEC3"
		},
		{
			"bufferView":52,
			"componentType":5126,
			"count":2,
			"type":"VEC4"
		},
		{
			"bufferView":53,
			"componentType":5126,
			"count":2,
			"type":"VEC3"
		},
		{
			"bufferView":54,
			"componentType":5126,
			"count":2,
			"type":"VEC3"
		},
		{
			"bufferView":55,
			"componentType":5126,
			"count":2,
			"type":"VEC4"
		},
		{
			"bufferView":56,
			"componentType":5126,
			"count":2,
			"type":"VEC3"
		},
		{
			"bufferView":57,
			"componentType":5126,
			"count":2,
			"type":"VEC3"
		},
		{
			"bufferView":58,
			"componentType":5126,
			"count":2,
			"type":"VEC4"
		},
		{
			"bufferView":59,
			"componentType":5126,
			"count":2,
			"type":"VEC3"
		},
		{
			"bufferView":60,
			"componentType":5126,
			"count":2,
			"type":"VEC3"
		},
		{
			"bufferView":61,
			"componentType":5126,
			"count":2,
			"type":"VEC4"
		},
		{
			"bufferView":62,
			"componentType":5126,
			"count":2,
			"type":"VEC3"
		},
		{
			"bufferView":63,
			"componentType":5126,
			"count":2,
			"type":"VEC3"
		},
		{
			"bufferView":64,
			"componentType":5126,
			"count":2,
			"type":"VEC4"
		},
		{
			"bufferView":65,
			"componentType":5126,
			"count":2,
			"type":"VEC3"
		},
		{
			"bufferView":66,
			"componentType":5126,
			"count":50,
			"type":"VEC3"
		},
		{
			"bufferView":67,
			"componentType":5126,
			"count":50,
			"type":"VEC4"
		},
		{
			"bufferView":68,
			"componentType":5126,
			"count":2,
			"type":"VEC3"
		},
		{
			"bufferView":69,
			"componentType":5126,
			"count":2,
			"type":"VEC3"
		},
		{
			"bufferView":70,
			"componentType":5126,
			"count":2,
			"type":"VEC4"
		},
		{
			"bufferView":71,
			"componentType":5126,
			"count":2,
			"type":"VEC3"
		},
		{
			"bufferView":72,
			"componentType":5126,
			"count":2,
			"type":"VEC3"
		},
		{
			"bufferView":73,
			"componentType":5126,
			"count":2,
			"type":"VEC4"
		},
		{
			"bufferView":74,
			"componentType":5126,
			"count":2,
			"type":"VEC3"
		},
		{
			"bufferView":75,
			"componentType":5126,
			"count":2,
			"type":"VEC3"
		},
		{
			"bufferView":76,
			"componentType":5126,
			"count":2,
			"type":"VEC4"
		},
		{
			"bufferView":77,
			"componentType":5126,
			"count":2,
			"type":"VEC3"
		},
		{
			"bufferView":78,
			"componentType":5126,
			"count":2,
			"type":"VEC3"
		},
		{
			"bufferView":79,
			"componentType":5126,
			"count":2,
			"type":"VEC4"
		},
		{
			"bufferView":80,
			"componentType":5126,
			"count":2,
			"type":"VEC3"
		},
		{
			"bufferView":81,
			"componentType":5126,
			"count":2,
			"type":"VEC3"
		},
		{
			"bufferView":82,
			"componentType":5126,
			"count":2,
			"type":"VEC4"
		},
		{
			"bufferView":83,
			"componentType":5126,
			"count":2,
			"type":"VEC3"
		}
	],
	"bufferViews":[
		{
			"buffer":0,
			"byteLength":1632,
			"byteOffset":0,
			"target":34962
		},
		{
			"buffer":0,
			"byteLength":1632,
			"byteOffset":1632,
			"target":34962
		},
		{
			"buffer":0,
			"byteLength":1088,
			"byteOffset":3264,
			"target":34962
		},
		{
			"buffer":0,
			"byteLength":768,
			"byteOffset":4352,
			"target":34963
		},
		{
			"buffer":0,
			"byteLength":1608,
			"byteOffset":5120,
			"target":34962
		},
		{
			"buffer":0,
			"byteLength":1608,
			"byteOffset":6728,
			"target":34962
		},
		{
			"buffer":0,
			"byteLength":1072,
			"byteOffset":8336,
			"target":34962
		},
		{
			"buffer":0,
			"byteLength":768,
			"byteOffset":9408,
			"target":34963
		},
		{
			"buffer":0,
			"byteLength":1632,
			"byteOffset":10176,
			"target":34962
		},
		{
			"buffer":0,
			"byteLength":1632,
			"byteOffset":11808,
			"target":34962
		},
		{
			"buffer":0,
			"byteLength":1088,
			"byteOffset":13440,
			"target":34962
		},
		{
			"buffer":0,
			"byteLength":768,
			"byteOffset":14528,
			"target":34963
		},
		{
			"buffer":0,
			"byteLength":1632,
			"byteOffset":15296,
			"target":34962
		},
		{
			"buffer":0,
			"byteLength":1632,
			"byteOffset":16928,
			"target":34962
		},
		{
			"buffer":0,
			"byteLength":1088,
			"byteOffset":18560,
			"target":34962
		},
		{
			"buffer":0,
			"byteLength":768,
			"byteOffset":19648,
			"target":34963
		},
		{
			"buffer":0,
			"byteLength":384,
			"byteOffset":20416,
			"target":34962
		},
		{
			"buffer":0,
			"byteLength":384,
			"byteOffset":20800,
			"target":34962
		},
		{
			"buffer":0,
			"byteLength":256,
			"byteOffset":21184,
			"target":34962
		},
		{
			"buffer":0,
			"byteLength":180,
			"byteOffset":21440,
			"target":34963
		},
		{
			"buffer":0,
			"byteLength":3444,
			"byteOffset":21620,
			"target":34962
		},
		{
			"buffer":0,
			"byteLength":3444,
			"byteOffset":25064,
			"target":34962
		},
		{
			"buffer":0,
			"byteLength":2296,
			"byteOffset":28508,
			"target":34962
		},
		{
			"buffer":0,
			"byteLength":2880,
			"byteOffset":30804,
			"target":34963
		},
		{
			"buffer":0,
			"byteLength":1632,
			"byteOffset":33684,
			"target":34962
		},
		{
			"buffer":0,
			"byteLength":1632,
			"byteOffset":35316,
			"target":34962
		},
		{
			"buffer":0,
			"byteLength":1088,
			"byteOffset":36948,
			"target":34962
		},
		{
			"buffer":0,
			"byteLength":768,
			"byteOffset":38036,
			"target":34963
		},
		{
			"buffer":0,
			"byteLength":1632,
			"byteOffset":38804,
			"target":34962
		},
		{
			"buffer":0,
			"byteLength":1632,
			"byteOffset":40436,
			"target":34962
		},
		{
			"buffer":0,
			"byteLength":1088,
			"byteOffset":42068,
			"target":34962
		},
		{
			"buffer":0,
			"byteLength":768,
			"byteOffset":43156,
			"target":34963
		},
		{
			"buffer":0,
			"byteLength":1632,
			"byteOffset":43924,
			"target":34962
		},
		{
			"buffer":0,
			"byteLength":1632,
			"byteOffset":45556,
			"target":34962
		},
		{
			"buffer":0,
			"byteLength":1088,
			"byteOffset":47188,
			"target":34962
		},
		{
			"buffer":0,
			"byteLength":768,
			"byteOffset":48276,
			"target":34963
		},
		{
			"buffer":0,
			"byteLength":1632,
			"byteOffset":49044,
			"target":34962
		},
		{
			"buffer":0,
			"byteLength":1632,
			"byteOffset":50676,
			"target":34962
		},
		{
			"buffer":0,
			"byteLength":1088,
			"byteOffset":52308,
			"target":34962
		},
		{
			"buffer":0,
			"byteLength":768,
			"byteOffset":53396,
			"target":34963
		},
		{
			"buffer":0,
			"byteLength":384,
			"byteOffset":54164,
			"target":34962
		},
		{
			"buffer":0,
			"byteLength":384,
			"byteOffset":54548,
			"target":34962
		},
		{
			"buffer":0,
			"byteLength":256,
			"byteOffset":54932,
			"target":34962
		},
		{
			"buffer":0,
			"byteLength":3444,
			"byteOffset":55188,
			"target":34962
		},
		{
			"buffer":0,
			"byteLength":3444,
			"byteOffset":58632,
			"target":34962
		},
		{
			"buffer":0,
			"byteLength":2296,
			"byteOffset":62076,
			"target":34962
		},
		{
			"buffer":0,
			"byteLength":200,
			"byteOffset":64372
		},
		{
			"buffer":0,
			"byteLength":600,
			"byteOffset":64572
		},
		{
			"buffer":0,
			"byteLength":800,
			"byteOffset":65172
		},
		{
			"buffer":0,
			"byteLength":8,
			"byteOffset":65972
		},
		{
			"buffer":0,
			"byteLength":24,
			"byteOffset":65980
		},
		{
			"buffer":0,
			"byteLength":24,
			"byteOffset":66004
		},
		{
			"buffer":0,
			"byteLength":32,
			"byteOffset":66028
		},
		{
			"buffer":0,
			"byteLength":24,
			"byteOffset":66060
		},
		{
			"buffer":0,
			"byteLength":24,
			"byteOffset":66084
		},
		{
			"buffer":0,
			"byteLength":32,
			"byteOffset":66108
		},
		{
			"buffer":0,
			"byteLength":24,
			"byteOffset":66140
		},
		{
			"buffer":0,
			"byteLength":24,
			"byteOffset":66164
		},
		{
			"buffer":0,
			"byteLength":32,
			"byteOffset":66188
		},
		{
			"buffer":0,
			"byteLength":24,
			"byteOffset":66220
		},
		{
			"buffer":0,
			"byteLength":24,
			"byteOffset":66244
		},
		{
			"buffer":0,
			"byteLength":32,
			"byteOffset":66268
		},
		{
			"buffer":0,
			"byteLength":24,
			"byteOffset":66300
		},
		{
			"buffer":0,
			"byteLength":24,
			"byteOffset":66324
		},
		{
			"buffer":0,
			"byteLength":32,
			"byteOffset":66348
		},
		{
			"buffer":0,
			"byteLength":24,
			"byteOffset":66380
		},
		{
			"buffer":0,
			"byteLength":600,
			"byteOffset":66404
		},
		{
			"buffer":0,
			"byteLength":800,
			"byteOffset":67004
		},
		{
			"buffer":0,
			"byteLength":24,
			"byteOffset":67804
		},
		{
			"buffer":0,
			"byteLength":24,
			"byteOffset":67828
		},
		{
			"buffer":0,
			"byteLength":32,
			"byteOffset":67852
		},
		{
			"buffer":0,
			"byteLength":24,
			"byteOffset":67884
		},
		{
			"buffer":0,
			"byteLength":24,
			"byteOffset":67908
		},
		{
			"buffer":0,
			"byteLength":32,
			"byteOffset":67932
		},
		{
			"buffer":0,
			"byteLength":24,
			"byteOffset":67964
		},
		{
			"buffer":0,
			"byteLength":24,
			"byteOffset":67988
		},
		{
			"buffer":0,
			"byteLength":32,
			"byteOffset":68012
		},
		{
			"buffer":0,
			"byteLength":24,
			"byteOffset":68044
		},
		{
			"buffer":0,
			"byteLength":24,
			"byteOffset":68068
		},
		{
			"buffer":0,
			"byteLength":32,
			"byteOffset":68092
		},
		{
			"buffer":0,
			"byteLength":24,
			"byteOffset":68124
		},
		{
			"buffer":0,
			"byteLength":24,
			"byteOffset":68148
		},
		{
			"buffer":0,
			"byteLength":32,
			"byteOffset":68172
		},
		{
			"buffer":0,
			"byteLength":24,
			"byteOffset":68204
		}
	],
	"samplers":[
		{
			"magFilter":9729,
			"minFilter":9987
		}
	],
	"buffers":[
		{
			"byteLength":68228,
			"uri":"Mars.bin"
		}
	]
}
