{
	"asset":{
		"generator":"Khronos glTF Blender I/O v4.0.44",
		"version":"2.0"
	},
	"extensionsUsed":[
		"KHR_materials_specular",
		"KHR_materials_ior"
	],
	"scene":0,
	"scenes":[
		{
			"name":"Scene",
			"nodes":[
				5,
				11
			]
		}
	],
	"nodes":[
		{
			"mesh":0,
			"name":"Sphere.055",
			"translation":[
				0,
				0,
				-0.011879190802574158
			]
		},
		{
			"mesh":1,
			"name":"Sphere.056"
		},
		{
			"mesh":2,
			"name":"Sphere.057"
		},
		{
			"mesh":3,
			"name":"Sphere.058"
		},
		{
			"mesh":4,
			"name":"Sphere.059"
		},
		{
			"children":[
				0,
				1,
				2,
				3,
				4
			],
			"mesh":5,
			"name":"Sphere.048"
		},
		{
			"mesh":6,
			"name":"Sphere.050"
		},
		{
			"mesh":7,
			"name":"Sphere.051"
		},
		{
			"mesh":8,
			"name":"Sphere.052"
		},
		{
			"mesh":9,
			"name":"Sphere.053"
		},
		{
			"mesh":10,
			"name":"Sphere.054"
		},
		{
			"children":[
				6,
				7,
				8,
				9,
				10
			],
			"mesh":11,
			"name":"Sphere.049"
		}
	],
	"animations":[
		{
			"channels":[
				{
					"sampler":0,
					"target":{
						"node":5,
						"path":"translation"
					}
				},
				{
					"sampler":1,
					"target":{
						"node":5,
						"path":"rotation"
					}
				},
				{
					"sampler":2,
					"target":{
						"node":5,
						"path":"scale"
					}
				}
			],
			"name":"Action.036",
			"samplers":[
				{
					"input":47,
					"interpolation":"LINEAR",
					"output":48
				},
				{
					"input":47,
					"interpolation":"LINEAR",
					"output":49
				},
				{
					"input":50,
					"interpolation":"STEP",
					"output":51
				}
			]
		},
		{
			"channels":[
				{
					"sampler":0,
					"target":{
						"node":0,
						"path":"translation"
					}
				},
				{
					"sampler":1,
					"target":{
						"node":0,
						"path":"rotation"
					}
				},
				{
					"sampler":2,
					"target":{
						"node":0,
						"path":"scale"
					}
				}
			],
			"name":"Action.053",
			"samplers":[
				{
					"input":50,
					"interpolation":"LINEAR",
					"output":52
				},
				{
					"input":50,
					"interpolation":"LINEAR",
					"output":53
				},
				{
					"input":50,
					"interpolation":"STEP",
					"output":54
				}
			]
		},
		{
			"channels":[
				{
					"sampler":0,
					"target":{
						"node":1,
						"path":"translation"
					}
				},
				{
					"sampler":1,
					"target":{
						"node":1,
						"path":"rotation"
					}
				},
				{
					"sampler":2,
					"target":{
						"node":1,
						"path":"scale"
					}
				}
			],
			"name":"Action.054",
			"samplers":[
				{
					"input":50,
					"interpolation":"LINEAR",
					"output":55
				},
				{
					"input":50,
					"interpolation":"LINEAR",
					"output":56
				},
				{
					"input":50,
					"interpolation":"STEP",
					"output":57
				}
			]
		},
		{
			"channels":[
				{
					"sampler":0,
					"target":{
						"node":2,
						"path":"translation"
					}
				},
				{
					"sampler":1,
					"target":{
						"node":2,
						"path":"rotation"
					}
				},
				{
					"sampler":2,
					"target":{
						"node":2,
						"path":"scale"
					}
				}
			],
			"name":"Action.055",
			"samplers":[
				{
					"input":50,
					"interpolation":"LINEAR",
					"output":58
				},
				{
					"input":50,
					"interpolation":"LINEAR",
					"output":59
				},
				{
					"input":50,
					"interpolation":"STEP",
					"output":60
				}
			]
		},
		{
			"channels":[
				{
					"sampler":0,
					"target":{
						"node":3,
						"path":"translation"
					}
				},
				{
					"sampler":1,
					"target":{
						"node":3,
						"path":"rotation"
					}
				},
				{
					"sampler":2,
					"target":{
						"node":3,
						"path":"scale"
					}
				}
			],
			"name":"Action.056",
			"samplers":[
				{
					"input":50,
					"interpolation":"LINEAR",
					"output":61
				},
				{
					"input":50,
					"interpolation":"LINEAR",
					"output":62
				},
				{
					"input":50,
					"interpolation":"STEP",
					"output":63
				}
			]
		},
		{
			"channels":[
				{
					"sampler":0,
					"target":{
						"node":4,
						"path":"translation"
					}
				},
				{
					"sampler":1,
					"target":{
						"node":4,
						"path":"rotation"
					}
				},
				{
					"sampler":2,
					"target":{
						"node":4,
						"path":"scale"
					}
				}
			],
			"name":"Action.057",
			"samplers":[
				{
					"input":50,
					"interpolation":"LINEAR",
					"output":64
				},
				{
					"input":50,
					"interpolation":"LINEAR",
					"output":65
				},
				{
					"input":50,
					"interpolation":"STEP",
					"output":66
				}
			]
		},
		{
			"channels":[
				{
					"sampler":0,
					"target":{
						"node":11,
						"path":"translation"
					}
				},
				{
					"sampler":1,
					"target":{
						"node":11,
						"path":"rotation"
					}
				},
				{
					"sampler":2,
					"target":{
						"node":11,
						"path":"scale"
					}
				}
			],
			"name":"Action.037",
			"samplers":[
				{
					"input":47,
					"interpolation":"LINEAR",
					"output":67
				},
				{
					"input":47,
					"interpolation":"LINEAR",
					"output":68
				},
				{
					"input":50,
					"interpolation":"LINEAR",
					"output":69
				}
			]
		},
		{
			"channels":[
				{
					"sampler":0,
					"target":{
						"node":6,
						"path":"translation"
					}
				},
				{
					"sampler":1,
					"target":{
						"node":6,
						"path":"rotation"
					}
				},
				{
					"sampler":2,
					"target":{
						"node":6,
						"path":"scale"
					}
				}
			],
			"name":"Action.048",
			"samplers":[
				{
					"input":50,
					"interpolation":"LINEAR",
					"output":70
				},
				{
					"input":50,
					"interpolation":"LINEAR",
					"output":71
				},
				{
					"input":50,
					"interpolation":"STEP",
					"output":72
				}
			]
		},
		{
			"channels":[
				{
					"sampler":0,
					"target":{
						"node":7,
						"path":"translation"
					}
				},
				{
					"sampler":1,
					"target":{
						"node":7,
						"path":"rotation"
					}
				},
				{
					"sampler":2,
					"target":{
						"node":7,
						"path":"scale"
					}
				}
			],
			"name":"Action.052",
			"samplers":[
				{
					"input":50,
					"interpolation":"LINEAR",
					"output":73
				},
				{
					"input":50,
					"interpolation":"LINEAR",
					"output":74
				},
				{
					"input":50,
					"interpolation":"STEP",
					"output":75
				}
			]
		},
		{
			"channels":[
				{
					"sampler":0,
					"target":{
						"node":8,
						"path":"translation"
					}
				},
				{
					"sampler":1,
					"target":{
						"node":8,
						"path":"rotation"
					}
				},
				{
					"sampler":2,
					"target":{
						"node":8,
						"path":"scale"
					}
				}
			],
			"name":"Action.049",
			"samplers":[
				{
					"input":50,
					"interpolation":"LINEAR",
					"output":76
				},
				{
					"input":50,
					"interpolation":"LINEAR",
					"output":77
				},
				{
					"input":50,
					"interpolation":"STEP",
					"output":78
				}
			]
		},
		{
			"channels":[
				{
					"sampler":0,
					"target":{
						"node":9,
						"path":"translation"
					}
				},
				{
					"sampler":1,
					"target":{
						"node":9,
						"path":"rotation"
					}
				},
				{
					"sampler":2,
					"target":{
						"node":9,
						"path":"scale"
					}
				}
			],
			"name":"Action.050",
			"samplers":[
				{
					"input":50,
					"interpolation":"LINEAR",
					"output":79
				},
				{
					"input":50,
					"interpolation":"LINEAR",
					"output":80
				},
				{
					"input":50,
					"interpolation":"STEP",
					"output":81
				}
			]
		},
		{
			"channels":[
				{
					"sampler":0,
					"target":{
						"node":10,
						"path":"translation"
					}
				},
				{
					"sampler":1,
					"target":{
						"node":10,
						"path":"rotation"
					}
				},
				{
					"sampler":2,
					"target":{
						"node":10,
						"path":"scale"
					}
				}
			],
			"name":"Action.051",
			"samplers":[
				{
					"input":50,
					"interpolation":"LINEAR",
					"output":82
				},
				{
					"input":50,
					"interpolation":"LINEAR",
					"output":83
				},
				{
					"input":50,
					"interpolation":"STEP",
					"output":84
				}
			]
		}
	],
	"materials":[
		{
			"doubleSided":true,
			"extensions":{
				"KHR_materials_specular":{
					"specularFactor":0.5818182229995728
				},
				"KHR_materials_ior":{
					"ior":1.4500000476837158
				}
			},
			"name":"Walnuts",
			"normalTexture":{
				"index":0
			},
			"pbrMetallicRoughness":{
				"baseColorTexture":{
					"index":1
				},
				"metallicFactor":0,
				"metallicRoughnessTexture":{
					"index":2
				}
			}
		},
		{
			"doubleSided":true,
			"name":"Chocolate 01",
			"normalTexture":{
				"index":3
			},
			"pbrMetallicRoughness":{
				"baseColorTexture":{
					"index":4
				},
				"metallicFactor":0,
				"metallicRoughnessTexture":{
					"index":5
				}
			}
		},
		{
			"doubleSided":true,
			"name":"Chocolate with Nuts",
			"normalTexture":{
				"index":6
			},
			"pbrMetallicRoughness":{
				"baseColorTexture":{
					"index":7
				},
				"metallicFactor":0,
				"metallicRoughnessTexture":{
					"index":8
				}
			}
		},
		{
			"name":"Material.003",
			"normalTexture":{
				"index":9
			},
			"pbrMetallicRoughness":{
				"baseColorTexture":{
					"index":10
				},
				"metallicFactor":0,
				"metallicRoughnessTexture":{
					"index":11
				}
			}
		},
		{
			"doubleSided":true,
			"name":"buscute.003",
			"normalTexture":{
				"index":12
			},
			"pbrMetallicRoughness":{
				"baseColorTexture":{
					"index":13
				},
				"metallicFactor":0,
				"metallicRoughnessTexture":{
					"index":14
				}
			}
		},
		{
			"doubleSided":true,
			"name":"earth",
			"pbrMetallicRoughness":{
				"baseColorTexture":{
					"index":15
				},
				"metallicFactor":0,
				"roughnessFactor":0.5
			}
		}
	],
	"meshes":[
		{
			"name":"Sphere.060",
			"primitives":[
				{
					"attributes":{
						"POSITION":0,
						"NORMAL":1,
						"TEXCOORD_0":2
					},
					"indices":3,
					"material":0
				}
			]
		},
		{
			"name":"Sphere.061",
			"primitives":[
				{
					"attributes":{
						"POSITION":4,
						"NORMAL":5,
						"TEXCOORD_0":6
					},
					"indices":7,
					"material":1
				}
			]
		},
		{
			"name":"Sphere.062",
			"primitives":[
				{
					"attributes":{
						"POSITION":8,
						"NORMAL":9,
						"TEXCOORD_0":10
					},
					"indices":11,
					"material":2
				}
			]
		},
		{
			"name":"Sphere.063",
			"primitives":[
				{
					"attributes":{
						"POSITION":12,
						"NORMAL":13,
						"TEXCOORD_0":14
					},
					"indices":15,
					"material":3
				}
			]
		},
		{
			"name":"Sphere.064",
			"primitives":[
				{
					"attributes":{
						"POSITION":16,
						"NORMAL":17,
						"TEXCOORD_0":18
					},
					"indices":19,
					"material":4
				}
			]
		},
		{
			"name":"Sphere.042",
			"primitives":[
				{
					"attributes":{
						"POSITION":20,
						"NORMAL":21,
						"TEXCOORD_0":22
					},
					"indices":23,
					"material":5
				}
			]
		},
		{
			"name":"Sphere.046",
			"primitives":[
				{
					"attributes":{
						"POSITION":24,
						"NORMAL":25,
						"TEXCOORD_0":26
					},
					"indices":27,
					"material":0
				}
			]
		},
		{
			"name":"Sphere.059",
			"primitives":[
				{
					"attributes":{
						"POSITION":28,
						"NORMAL":29,
						"TEXCOORD_0":30
					},
					"indices":31,
					"material":4
				}
			]
		},
		{
			"name":"Sphere.049",
			"primitives":[
				{
					"attributes":{
						"POSITION":32,
						"NORMAL":33,
						"TEXCOORD_0":34
					},
					"indices":35,
					"material":1
				}
			]
		},
		{
			"name":"Sphere.050",
			"primitives":[
				{
					"attributes":{
						"POSITION":36,
						"NORMAL":37,
						"TEXCOORD_0":38
					},
					"indices":39,
					"material":2
				}
			]
		},
		{
			"name":"Sphere.051",
			"primitives":[
				{
					"attributes":{
						"POSITION":40,
						"NORMAL":41,
						"TEXCOORD_0":42
					},
					"indices":43,
					"material":3
				}
			]
		},
		{
			"name":"Sphere.043",
			"primitives":[
				{
					"attributes":{
						"POSITION":44,
						"NORMAL":45,
						"TEXCOORD_0":46
					},
					"indices":23,
					"material":5
				}
			]
		}
	],
	"textures":[
		{
			"sampler":0,
			"source":0
		},
		{
			"sampler":0,
			"source":1
		},
		{
			"sampler":0,
			"source":2
		},
		{
			"sampler":0,
			"source":0
		},
		{
			"sampler":0,
			"source":1
		},
		{
			"sampler":0,
			"source":2
		},
		{
			"sampler":0,
			"source":0
		},
		{
			"sampler":0,
			"source":1
		},
		{
			"sampler":0,
			"source":2
		},
		{
			"sampler":0,
			"source":0
		},
		{
			"sampler":0,
			"source":1
		},
		{
			"sampler":0,
			"source":2
		},
		{
			"sampler":0,
			"source":0
		},
		{
			"sampler":0,
			"source":1
		},
		{
			"sampler":0,
			"source":2
		},
		{
			"sampler":0,
			"source":3
		}
	],
	"images":[
		{
			"mimeType":"image/png",
			"name":"Earth normal",
			"uri":"Earth%20normal.png"
		},
		{
			"mimeType":"image/png",
			"name":"Earth color",
			"uri":"Earth%20color.png"
		},
		{
			"mimeType":"image/png",
			"name":"Earth roughness",
			"uri":"Earth%20roughness.png"
		},
		{
			"mimeType":"image/jpeg",
			"name":"8k_earth_daymap",
			"uri":"8k_earth_daymap.jpg"
		}
	],
	"accessors":[
		{
			"bufferView":0,
			"componentType":5126,
			"count":104,
			"max":[
				0.1821916699409485,
				0.18219196796417236,
				0.08412258327007294
			],
			"min":[
				-0.18219202756881714,
				-0.18219196796417236,
				0.03798385709524155
			],
			"type":"VEC3"
		},
		{
			"bufferView":1,
			"componentType":5126,
			"count":104,
			"type":"VEC3"
		},
		{
			"bufferView":2,
			"componentType":5126,
			"count":104,
			"type":"VEC2"
		},
		{
			"bufferView":3,
			"componentType":5123,
			"count":282,
			"type":"SCALAR"
		},
		{
			"bufferView":4,
			"componentType":5126,
			"count":264,
			"max":[
				0.6118487119674683,
				0.611849308013916,
				0.07333336770534515
			],
			"min":[
				-0.6118491888046265,
				-0.611849308013916,
				0.029577523469924927
			],
			"type":"VEC3"
		},
		{
			"bufferView":5,
			"componentType":5126,
			"count":264,
			"type":"VEC3"
		},
		{
			"bufferView":6,
			"componentType":5126,
			"count":264,
			"type":"VEC2"
		},
		{
			"bufferView":7,
			"componentType":5123,
			"count":576,
			"type":"SCALAR"
		},
		{
			"bufferView":8,
			"componentType":5126,
			"count":208,
			"max":[
				0.8857684135437012,
				0.8857693076133728,
				0.02196257933974266
			],
			"min":[
				-0.8857690691947937,
				-0.8857693076133728,
				-0.0679234117269516
			],
			"type":"VEC3"
		},
		{
			"bufferView":9,
			"componentType":5126,
			"count":208,
			"type":"VEC3"
		},
		{
			"bufferView":10,
			"componentType":5126,
			"count":208,
			"type":"VEC2"
		},
		{
			"bufferView":11,
			"componentType":5123,
			"count":576,
			"type":"SCALAR"
		},
		{
			"bufferView":12,
			"componentType":5126,
			"count":136,
			"max":[
				0.9999990463256836,
				1,
				9.478179094912775e-07
			],
			"min":[
				-0.9999997019767761,
				-1,
				-0.08898672461509705
			],
			"type":"VEC3"
		},
		{
			"bufferView":13,
			"componentType":5126,
			"count":136,
			"type":"VEC3"
		},
		{
			"bufferView":14,
			"componentType":5126,
			"count":136,
			"type":"VEC2"
		},
		{
			"bufferView":15,
			"componentType":5123,
			"count":384,
			"type":"SCALAR"
		},
		{
			"bufferView":16,
			"componentType":5126,
			"count":208,
			"max":[
				0.7766768336296082,
				0.7766776084899902,
				0.04746445268392563
			],
			"min":[
				-0.7766774296760559,
				-0.7766776084899902,
				-0.0024017952382564545
			],
			"type":"VEC3"
		},
		{
			"bufferView":17,
			"componentType":5126,
			"count":208,
			"type":"VEC3"
		},
		{
			"bufferView":18,
			"componentType":5126,
			"count":208,
			"type":"VEC2"
		},
		{
			"bufferView":19,
			"componentType":5123,
			"count":576,
			"type":"SCALAR"
		},
		{
			"bufferView":20,
			"componentType":5126,
			"count":287,
			"max":[
				0.9999990463256836,
				1,
				3.457416255514545e-07
			],
			"min":[
				-0.9999997019767761,
				-1,
				-0.9999993443489075
			],
			"type":"VEC3"
		},
		{
			"bufferView":21,
			"componentType":5126,
			"count":287,
			"type":"VEC3"
		},
		{
			"bufferView":22,
			"componentType":5126,
			"count":287,
			"type":"VEC2"
		},
		{
			"bufferView":23,
			"componentType":5123,
			"count":1440,
			"type":"SCALAR"
		},
		{
			"bufferView":24,
			"componentType":5126,
			"count":32,
			"max":[
				0.18219202756881714,
				0.18219196796417236,
				0.09278734028339386
			],
			"min":[
				-0.1821916699409485,
				-0.18219196796417236,
				0.09278610348701477
			],
			"type":"VEC3"
		},
		{
			"bufferView":25,
			"componentType":5126,
			"count":32,
			"type":"VEC3"
		},
		{
			"bufferView":26,
			"componentType":5126,
			"count":32,
			"type":"VEC2"
		},
		{
			"bufferView":27,
			"componentType":5123,
			"count":90,
			"type":"SCALAR"
		},
		{
			"bufferView":28,
			"componentType":5126,
			"count":208,
			"max":[
				0.7766774296760559,
				0.7766776084899902,
				0.10667061805725098
			],
			"min":[
				-0.7766768336296082,
				-0.7766776084899902,
				0.05680478364229202
			],
			"type":"VEC3"
		},
		{
			"bufferView":29,
			"componentType":5126,
			"count":208,
			"type":"VEC3"
		},
		{
			"bufferView":30,
			"componentType":5126,
			"count":208,
			"type":"VEC2"
		},
		{
			"bufferView":31,
			"componentType":5123,
			"count":576,
			"type":"SCALAR"
		},
		{
			"bufferView":32,
			"componentType":5126,
			"count":264,
			"max":[
				0.6118491888046265,
				0.611849308013916,
				0.1557839810848236
			],
			"min":[
				-0.6118487119674683,
				-0.611849308013916,
				0.07781800627708435
			],
			"type":"VEC3"
		},
		{
			"bufferView":33,
			"componentType":5126,
			"count":264,
			"type":"VEC3"
		},
		{
			"bufferView":34,
			"componentType":5126,
			"count":264,
			"type":"VEC2"
		},
		{
			"bufferView":35,
			"componentType":5123,
			"count":576,
			"type":"SCALAR"
		},
		{
			"bufferView":36,
			"componentType":5126,
			"count":208,
			"max":[
				0.8857690691947937,
				0.8857693076133728,
				0.1185237392783165
			],
			"min":[
				-0.8857684135437012,
				-0.8857693076133728,
				0.028638243675231934
			],
			"type":"VEC3"
		},
		{
			"bufferView":37,
			"componentType":5126,
			"count":208,
			"type":"VEC3"
		},
		{
			"bufferView":38,
			"componentType":5126,
			"count":208,
			"type":"VEC2"
		},
		{
			"bufferView":39,
			"componentType":5123,
			"count":576,
			"type":"SCALAR"
		},
		{
			"bufferView":40,
			"componentType":5126,
			"count":136,
			"max":[
				0.9999997019767761,
				1,
				0.08898645639419556
			],
			"min":[
				-0.9999990463256836,
				-1,
				-6.46779767521366e-07
			],
			"type":"VEC3"
		},
		{
			"bufferView":41,
			"componentType":5126,
			"count":136,
			"type":"VEC3"
		},
		{
			"bufferView":42,
			"componentType":5126,
			"count":136,
			"type":"VEC2"
		},
		{
			"bufferView":43,
			"componentType":5123,
			"count":384,
			"type":"SCALAR"
		},
		{
			"bufferView":44,
			"componentType":5126,
			"count":287,
			"max":[
				0.9999997019767761,
				1,
				0.9999993443489075
			],
			"min":[
				-0.9999990463256836,
				-1,
				-6.46779767521366e-07
			],
			"type":"VEC3"
		},
		{
			"bufferView":45,
			"componentType":5126,
			"count":287,
			"type":"VEC3"
		},
		{
			"bufferView":46,
			"componentType":5126,
			"count":287,
			"type":"VEC2"
		},
		{
			"bufferView":47,
			"componentType":5126,
			"count":50,
			"max":[
				2.0833333333333335
			],
			"min":[
				0.041666666666666664
			],
			"type":"SCALAR"
		},
		{
			"bufferView":48,
			"componentType":5126,
			"count":50,
			"type":"VEC3"
		},
		{
			"bufferView":49,
			"componentType":5126,
			"count":50,
			"type":"VEC4"
		},
		{
			"bufferView":50,
			"componentType":5126,
			"count":2,
			"max":[
				2.0833333333333335
			],
			"min":[
				0.041666666666666664
			],
			"type":"SCALAR"
		},
		{
			"bufferView":51,
			"componentType":5126,
			"count":2,
			"type":"VEC3"
		},
		{
			"bufferView":52,
			"componentType":5126,
			"count":2,
			"type":"VEC3"
		},
		{
			"bufferView":53,
			"componentType":5126,
			"count":2,
			"type":"VEC4"
		},
		{
			"bufferView":54,
			"componentType":5126,
			"count":2,
			"type":"VEC3"
		},
		{
			"bufferView":55,
			"componentType":5126,
			"count":2,
			"type":"VEC3"
		},
		{
			"bufferView":56,
			"componentType":5126,
			"count":2,
			"type":"VEC4"
		},
		{
			"bufferView":57,
			"componentType":5126,
			"count":2,
			"type":"VEC3"
		},
		{
			"bufferView":58,
			"componentType":5126,
			"count":2,
			"type":"VEC3"
		},
		{
			"bufferView":59,
			"componentType":5126,
			"count":2,
			"type":"VEC4"
		},
		{
			"bufferView":60,
			"componentType":5126,
			"count":2,
			"type":"VEC3"
		},
		{
			"bufferView":61,
			"componentType":5126,
			"count":2,
			"type":"VEC3"
		},
		{
			"bufferView":62,
			"componentType":5126,
			"count":2,
			"type":"VEC4"
		},
		{
			"bufferView":63,
			"componentType":5126,
			"count":2,
			"type":"VEC3"
		},
		{
			"bufferView":64,
			"componentType":5126,
			"count":2,
			"type":"VEC3"
		},
		{
			"bufferView":65,
			"componentType":5126,
			"count":2,
			"type":"VEC4"
		},
		{
			"bufferView":66,
			"componentType":5126,
			"count":2,
			"type":"VEC3"
		},
		{
			"bufferView":67,
			"componentType":5126,
			"count":50,
			"type":"VEC3"
		},
		{
			"bufferView":68,
			"componentType":5126,
			"count":50,
			"type":"VEC4"
		},
		{
			"bufferView":69,
			"componentType":5126,
			"count":2,
			"type":"VEC3"
		},
		{
			"bufferView":70,
			"componentType":5126,
			"count":2,
			"type":"VEC3"
		},
		{
			"bufferView":71,
			"componentType":5126,
			"count":2,
			"type":"VEC4"
		},
		{
			"bufferView":72,
			"componentType":5126,
			"count":2,
			"type":"VEC3"
		},
		{
			"bufferView":73,
			"componentType":5126,
			"count":2,
			"type":"VEC3"
		},
		{
			"bufferView":74,
			"componentType":5126,
			"count":2,
			"type":"VEC4"
		},
		{
			"bufferView":75,
			"componentType":5126,
			"count":2,
			"type":"VEC3"
		},
		{
			"bufferView":76,
			"componentType":5126,
			"count":2,
			"type":"VEC3"
		},
		{
			"bufferView":77,
			"componentType":5126,
			"count":2,
			"type":"VEC4"
		},
		{
			"bufferView":78,
			"componentType":5126,
			"count":2,
			"type":"VEC3"
		},
		{
			"bufferView":79,
			"componentType":5126,
			"count":2,
			"type":"VEC3"
		},
		{
			"bufferView":80,
			"componentType":5126,
			"count":2,
			"type":"VEC4"
		},
		{
			"bufferView":81,
			"componentType":5126,
			"count":2,
			"type":"VEC3"
		},
		{
			"bufferView":82,
			"componentType":5126,
			"count":2,
			"type":"VEC3"
		},
		{
			"bufferView":83,
			"componentType":5126,
			"count":2,
			"type":"VEC4"
		},
		{
			"bufferView":84,
			"componentType":5126,
			"count":2,
			"type":"VEC3"
		}
	],
	"bufferViews":[
		{
			"buffer":0,
			"byteLength":1248,
			"byteOffset":0,
			"target":34962
		},
		{
			"buffer":0,
			"byteLength":1248,
			"byteOffset":1248,
			"target":34962
		},
		{
			"buffer":0,
			"byteLength":832,
			"byteOffset":2496,
			"target":34962
		},
		{
			"buffer":0,
			"byteLength":564,
			"byteOffset":3328,
			"target":34963
		},
		{
			"buffer":0,
			"byteLength":3168,
			"byteOffset":3892,
			"target":34962
		},
		{
			"buffer":0,
			"byteLength":3168,
			"byteOffset":7060,
			"target":34962
		},
		{
			"buffer":0,
			"byteLength":2112,
			"byteOffset":10228,
			"target":34962
		},
		{
			"buffer":0,
			"byteLength":1152,
			"byteOffset":12340,
			"target":34963
		},
		{
			"buffer":0,
			"byteLength":2496,
			"byteOffset":13492,
			"target":34962
		},
		{
			"buffer":0,
			"byteLength":2496,
			"byteOffset":15988,
			"target":34962
		},
		{
			"buffer":0,
			"byteLength":1664,
			"byteOffset":18484,
			"target":34962
		},
		{
			"buffer":0,
			"byteLength":1152,
			"byteOffset":20148,
			"target":34963
		},
		{
			"buffer":0,
			"byteLength":1632,
			"byteOffset":21300,
			"target":34962
		},
		{
			"buffer":0,
			"byteLength":1632,
			"byteOffset":22932,
			"target":34962
		},
		{
			"buffer":0,
			"byteLength":1088,
			"byteOffset":24564,
			"target":34962
		},
		{
			"buffer":0,
			"byteLength":768,
			"byteOffset":25652,
			"target":34963
		},
		{
			"buffer":0,
			"byteLength":2496,
			"byteOffset":26420,
			"target":34962
		},
		{
			"buffer":0,
			"byteLength":2496,
			"byteOffset":28916,
			"target":34962
		},
		{
			"buffer":0,
			"byteLength":1664,
			"byteOffset":31412,
			"target":34962
		},
		{
			"buffer":0,
			"byteLength":1152,
			"byteOffset":33076,
			"target":34963
		},
		{
			"buffer":0,
			"byteLength":3444,
			"byteOffset":34228,
			"target":34962
		},
		{
			"buffer":0,
			"byteLength":3444,
			"byteOffset":37672,
			"target":34962
		},
		{
			"buffer":0,
			"byteLength":2296,
			"byteOffset":41116,
			"target":34962
		},
		{
			"buffer":0,
			"byteLength":2880,
			"byteOffset":43412,
			"target":34963
		},
		{
			"buffer":0,
			"byteLength":384,
			"byteOffset":46292,
			"target":34962
		},
		{
			"buffer":0,
			"byteLength":384,
			"byteOffset":46676,
			"target":34962
		},
		{
			"buffer":0,
			"byteLength":256,
			"byteOffset":47060,
			"target":34962
		},
		{
			"buffer":0,
			"byteLength":180,
			"byteOffset":47316,
			"target":34963
		},
		{
			"buffer":0,
			"byteLength":2496,
			"byteOffset":47496,
			"target":34962
		},
		{
			"buffer":0,
			"byteLength":2496,
			"byteOffset":49992,
			"target":34962
		},
		{
			"buffer":0,
			"byteLength":1664,
			"byteOffset":52488,
			"target":34962
		},
		{
			"buffer":0,
			"byteLength":1152,
			"byteOffset":54152,
			"target":34963
		},
		{
			"buffer":0,
			"byteLength":3168,
			"byteOffset":55304,
			"target":34962
		},
		{
			"buffer":0,
			"byteLength":3168,
			"byteOffset":58472,
			"target":34962
		},
		{
			"buffer":0,
			"byteLength":2112,
			"byteOffset":61640,
			"target":34962
		},
		{
			"buffer":0,
			"byteLength":1152,
			"byteOffset":63752,
			"target":34963
		},
		{
			"buffer":0,
			"byteLength":2496,
			"byteOffset":64904,
			"target":34962
		},
		{
			"buffer":0,
			"byteLength":2496,
			"byteOffset":67400,
			"target":34962
		},
		{
			"buffer":0,
			"byteLength":1664,
			"byteOffset":69896,
			"target":34962
		},
		{
			"buffer":0,
			"byteLength":1152,
			"byteOffset":71560,
			"target":34963
		},
		{
			"buffer":0,
			"byteLength":1632,
			"byteOffset":72712,
			"target":34962
		},
		{
			"buffer":0,
			"byteLength":1632,
			"byteOffset":74344,
			"target":34962
		},
		{
			"buffer":0,
			"byteLength":1088,
			"byteOffset":75976,
			"target":34962
		},
		{
			"buffer":0,
			"byteLength":768,
			"byteOffset":77064,
			"target":34963
		},
		{
			"buffer":0,
			"byteLength":3444,
			"byteOffset":77832,
			"target":34962
		},
		{
			"buffer":0,
			"byteLength":3444,
			"byteOffset":81276,
			"target":34962
		},
		{
			"buffer":0,
			"byteLength":2296,
			"byteOffset":84720,
			"target":34962
		},
		{
			"buffer":0,
			"byteLength":200,
			"byteOffset":87016
		},
		{
			"buffer":0,
			"byteLength":600,
			"byteOffset":87216
		},
		{
			"buffer":0,
			"byteLength":800,
			"byteOffset":87816
		},
		{
			"buffer":0,
			"byteLength":8,
			"byteOffset":88616
		},
		{
			"buffer":0,
			"byteLength":24,
			"byteOffset":88624
		},
		{
			"buffer":0,
			"byteLength":24,
			"byteOffset":88648
		},
		{
			"buffer":0,
			"byteLength":32,
			"byteOffset":88672
		},
		{
			"buffer":0,
			"byteLength":24,
			"byteOffset":88704
		},
		{
			"buffer":0,
			"byteLength":24,
			"byteOffset":88728
		},
		{
			"buffer":0,
			"byteLength":32,
			"byteOffset":88752
		},
		{
			"buffer":0,
			"byteLength":24,
			"byteOffset":88784
		},
		{
			"buffer":0,
			"byteLength":24,
			"byteOffset":88808
		},
		{
			"buffer":0,
			"byteLength":32,
			"byteOffset":88832
		},
		{
			"buffer":0,
			"byteLength":24,
			"byteOffset":88864
		},
		{
			"buffer":0,
			"byteLength":24,
			"byteOffset":88888
		},
		{
			"buffer":0,
			"byteLength":32,
			"byteOffset":88912
		},
		{
			"buffer":0,
			"byteLength":24,
			"byteOffset":88944
		},
		{
			"buffer":0,
			"byteLength":24,
			"byteOffset":88968
		},
		{
			"buffer":0,
			"byteLength":32,
			"byteOffset":88992
		},
		{
			"buffer":0,
			"byteLength":24,
			"byteOffset":89024
		},
		{
			"buffer":0,
			"byteLength":600,
			"byteOffset":89048
		},
		{
			"buffer":0,
			"byteLength":800,
			"byteOffset":89648
		},
		{
			"buffer":0,
			"byteLength":24,
			"byteOffset":90448
		},
		{
			"buffer":0,
			"byteLength":24,
			"byteOffset":90472
		},
		{
			"buffer":0,
			"byteLength":32,
			"byteOffset":90496
		},
		{
			"buffer":0,
			"byteLength":24,
			"byteOffset":90528
		},
		{
			"buffer":0,
			"byteLength":24,
			"byteOffset":90552
		},
		{
			"buffer":0,
			"byteLength":32,
			"byteOffset":90576
		},
		{
			"buffer":0,
			"byteLength":24,
			"byteOffset":90608
		},
		{
			"buffer":0,
			"byteLength":24,
			"byteOffset":90632
		},
		{
			"buffer":0,
			"byteLength":32,
			"byteOffset":90656
		},
		{
			"buffer":0,
			"byteLength":24,
			"byteOffset":90688
		},
		{
			"buffer":0,
			"byteLength":24,
			"byteOffset":90712
		},
		{
			"buffer":0,
			"byteLength":32,
			"byteOffset":90736
		},
		{
			"buffer":0,
			"byteLength":24,
			"byteOffset":90768
		},
		{
			"buffer":0,
			"byteLength":24,
			"byteOffset":90792
		},
		{
			"buffer":0,
			"byteLength":32,
			"byteOffset":90816
		},
		{
			"buffer":0,
			"byteLength":24,
			"byteOffset":90848
		}
	],
	"samplers":[
		{
			"magFilter":9729,
			"minFilter":9987
		}
	],
	"buffers":[
		{
			"byteLength":90872,
			"uri":"earth.bin"
		}
	]
}
