{
	"asset":{
		"generator":"Khronos glTF Blender I/O v4.0.44",
		"version":"2.0"
	},
	"scene":0,
	"scenes":[
		{
			"name":"Scene",
			"nodes":[
				4,
				9
			]
		}
	],
	"nodes":[
		{
			"mesh":0,
			"name":"Sphere.076"
		},
		{
			"mesh":1,
			"name":"Sphere.077"
		},
		{
			"mesh":2,
			"name":"Sphere.078"
		},
		{
			"mesh":3,
			"name":"Sphere.079"
		},
		{
			"children":[
				0,
				1,
				2,
				3
			],
			"mesh":4,
			"name":"Sphere.070"
		},
		{
			"mesh":5,
			"name":"Sphere.072"
		},
		{
			"mesh":6,
			"name":"Sphere.073"
		},
		{
			"mesh":7,
			"name":"Sphere.074"
		},
		{
			"mesh":8,
			"name":"Sphere.075"
		},
		{
			"children":[
				5,
				6,
				7,
				8
			],
			"mesh":9,
			"name":"Sphere.071"
		}
	],
	"animations":[
		{
			"channels":[
				{
					"sampler":0,
					"target":{
						"node":4,
						"path":"translation"
					}
				},
				{
					"sampler":1,
					"target":{
						"node":4,
						"path":"rotation"
					}
				},
				{
					"sampler":2,
					"target":{
						"node":4,
						"path":"scale"
					}
				}
			],
			"name":"Action.012",
			"samplers":[
				{
					"input":39,
					"interpolation":"LINEAR",
					"output":40
				},
				{
					"input":39,
					"interpolation":"LINEAR",
					"output":41
				},
				{
					"input":42,
					"interpolation":"STEP",
					"output":43
				}
			]
		},
		{
			"channels":[
				{
					"sampler":0,
					"target":{
						"node":0,
						"path":"translation"
					}
				},
				{
					"sampler":1,
					"target":{
						"node":0,
						"path":"rotation"
					}
				},
				{
					"sampler":2,
					"target":{
						"node":0,
						"path":"scale"
					}
				}
			],
			"name":"Action.032",
			"samplers":[
				{
					"input":42,
					"interpolation":"LINEAR",
					"output":44
				},
				{
					"input":42,
					"interpolation":"LINEAR",
					"output":45
				},
				{
					"input":42,
					"interpolation":"STEP",
					"output":46
				}
			]
		},
		{
			"channels":[
				{
					"sampler":0,
					"target":{
						"node":1,
						"path":"translation"
					}
				},
				{
					"sampler":1,
					"target":{
						"node":1,
						"path":"rotation"
					}
				},
				{
					"sampler":2,
					"target":{
						"node":1,
						"path":"scale"
					}
				}
			],
			"name":"Action.033",
			"samplers":[
				{
					"input":42,
					"interpolation":"LINEAR",
					"output":47
				},
				{
					"input":42,
					"interpolation":"LINEAR",
					"output":48
				},
				{
					"input":42,
					"interpolation":"STEP",
					"output":49
				}
			]
		},
		{
			"channels":[
				{
					"sampler":0,
					"target":{
						"node":2,
						"path":"translation"
					}
				},
				{
					"sampler":1,
					"target":{
						"node":2,
						"path":"rotation"
					}
				},
				{
					"sampler":2,
					"target":{
						"node":2,
						"path":"scale"
					}
				}
			],
			"name":"Action.058",
			"samplers":[
				{
					"input":42,
					"interpolation":"LINEAR",
					"output":50
				},
				{
					"input":42,
					"interpolation":"LINEAR",
					"output":51
				},
				{
					"input":42,
					"interpolation":"STEP",
					"output":52
				}
			]
		},
		{
			"channels":[
				{
					"sampler":0,
					"target":{
						"node":3,
						"path":"translation"
					}
				},
				{
					"sampler":1,
					"target":{
						"node":3,
						"path":"rotation"
					}
				},
				{
					"sampler":2,
					"target":{
						"node":3,
						"path":"scale"
					}
				}
			],
			"name":"Action.059",
			"samplers":[
				{
					"input":42,
					"interpolation":"LINEAR",
					"output":53
				},
				{
					"input":42,
					"interpolation":"LINEAR",
					"output":54
				},
				{
					"input":42,
					"interpolation":"STEP",
					"output":55
				}
			]
		},
		{
			"channels":[
				{
					"sampler":0,
					"target":{
						"node":9,
						"path":"translation"
					}
				},
				{
					"sampler":1,
					"target":{
						"node":9,
						"path":"rotation"
					}
				},
				{
					"sampler":2,
					"target":{
						"node":9,
						"path":"scale"
					}
				}
			],
			"name":"Action.013",
			"samplers":[
				{
					"input":39,
					"interpolation":"LINEAR",
					"output":56
				},
				{
					"input":39,
					"interpolation":"LINEAR",
					"output":57
				},
				{
					"input":42,
					"interpolation":"LINEAR",
					"output":58
				}
			]
		},
		{
			"channels":[
				{
					"sampler":0,
					"target":{
						"node":5,
						"path":"translation"
					}
				},
				{
					"sampler":1,
					"target":{
						"node":5,
						"path":"rotation"
					}
				},
				{
					"sampler":2,
					"target":{
						"node":5,
						"path":"scale"
					}
				}
			],
			"name":"Action.014",
			"samplers":[
				{
					"input":42,
					"interpolation":"LINEAR",
					"output":59
				},
				{
					"input":42,
					"interpolation":"LINEAR",
					"output":60
				},
				{
					"input":42,
					"interpolation":"STEP",
					"output":61
				}
			]
		},
		{
			"channels":[
				{
					"sampler":0,
					"target":{
						"node":6,
						"path":"translation"
					}
				},
				{
					"sampler":1,
					"target":{
						"node":6,
						"path":"rotation"
					}
				},
				{
					"sampler":2,
					"target":{
						"node":6,
						"path":"scale"
					}
				}
			],
			"name":"Action.015",
			"samplers":[
				{
					"input":42,
					"interpolation":"LINEAR",
					"output":62
				},
				{
					"input":42,
					"interpolation":"LINEAR",
					"output":63
				},
				{
					"input":42,
					"interpolation":"STEP",
					"output":64
				}
			]
		},
		{
			"channels":[
				{
					"sampler":0,
					"target":{
						"node":7,
						"path":"translation"
					}
				},
				{
					"sampler":1,
					"target":{
						"node":7,
						"path":"rotation"
					}
				},
				{
					"sampler":2,
					"target":{
						"node":7,
						"path":"scale"
					}
				}
			],
			"name":"Action.016",
			"samplers":[
				{
					"input":42,
					"interpolation":"LINEAR",
					"output":65
				},
				{
					"input":42,
					"interpolation":"LINEAR",
					"output":66
				},
				{
					"input":42,
					"interpolation":"STEP",
					"output":67
				}
			]
		},
		{
			"channels":[
				{
					"sampler":0,
					"target":{
						"node":8,
						"path":"translation"
					}
				},
				{
					"sampler":1,
					"target":{
						"node":8,
						"path":"rotation"
					}
				},
				{
					"sampler":2,
					"target":{
						"node":8,
						"path":"scale"
					}
				}
			],
			"name":"Action.017",
			"samplers":[
				{
					"input":42,
					"interpolation":"LINEAR",
					"output":68
				},
				{
					"input":42,
					"interpolation":"LINEAR",
					"output":69
				},
				{
					"input":42,
					"interpolation":"STEP",
					"output":70
				}
			]
		}
	],
	"materials":[
		{
			"doubleSided":true,
			"name":"WhiteChocolate ",
			"normalTexture":{
				"index":0
			},
			"pbrMetallicRoughness":{
				"baseColorTexture":{
					"index":1
				},
				"metallicFactor":0,
				"metallicRoughnessTexture":{
					"index":2
				}
			}
		},
		{
			"doubleSided":true,
			"name":"buscute",
			"normalTexture":{
				"index":3
			},
			"pbrMetallicRoughness":{
				"baseColorTexture":{
					"index":4
				},
				"metallicFactor":0,
				"metallicRoughnessTexture":{
					"index":5
				}
			}
		},
		{
			"doubleSided":true,
			"name":"Tomato sauce with basil",
			"normalTexture":{
				"index":6
			},
			"pbrMetallicRoughness":{
				"baseColorTexture":{
					"index":7
				},
				"metallicFactor":0,
				"metallicRoughnessTexture":{
					"index":8
				}
			}
		},
		{
			"name":"Material.003",
			"pbrMetallicRoughness":{
				"baseColorFactor":[
					0.05821754038333893,
					0.02308841422200203,
					0.015226775780320168,
					1
				],
				"metallicFactor":0,
				"roughnessFactor":0.8872727751731873
			}
		},
		{
			"doubleSided":true,
			"name":"Venus",
			"pbrMetallicRoughness":{
				"baseColorTexture":{
					"index":9
				},
				"metallicFactor":0,
				"roughnessFactor":0.5
			}
		},
		{
			"name":"Material.002",
			"normalTexture":{
				"index":10
			},
			"pbrMetallicRoughness":{
				"baseColorTexture":{
					"index":11
				},
				"metallicFactor":0,
				"metallicRoughnessTexture":{
					"index":12
				}
			}
		}
	],
	"meshes":[
		{
			"name":"Sphere.084",
			"primitives":[
				{
					"attributes":{
						"POSITION":0,
						"NORMAL":1,
						"TEXCOORD_0":2
					},
					"indices":3,
					"material":0
				}
			]
		},
		{
			"name":"Sphere.085",
			"primitives":[
				{
					"attributes":{
						"POSITION":4,
						"NORMAL":5,
						"TEXCOORD_0":6
					},
					"indices":7,
					"material":1
				}
			]
		},
		{
			"name":"Sphere.086",
			"primitives":[
				{
					"attributes":{
						"POSITION":8,
						"NORMAL":9,
						"TEXCOORD_0":10
					},
					"indices":11,
					"material":2
				}
			]
		},
		{
			"name":"Sphere.087",
			"primitives":[
				{
					"attributes":{
						"POSITION":12,
						"NORMAL":13,
						"TEXCOORD_0":14
					},
					"indices":15,
					"material":3
				}
			]
		},
		{
			"name":"Sphere.074",
			"primitives":[
				{
					"attributes":{
						"POSITION":16,
						"NORMAL":17,
						"TEXCOORD_0":18
					},
					"indices":19,
					"material":4
				}
			]
		},
		{
			"name":"Sphere.080",
			"primitives":[
				{
					"attributes":{
						"POSITION":20,
						"NORMAL":21,
						"TEXCOORD_0":22
					},
					"indices":23,
					"material":0
				}
			]
		},
		{
			"name":"Sphere.081",
			"primitives":[
				{
					"attributes":{
						"POSITION":24,
						"NORMAL":25,
						"TEXCOORD_0":26
					},
					"indices":27,
					"material":1
				}
			]
		},
		{
			"name":"Sphere.082",
			"primitives":[
				{
					"attributes":{
						"POSITION":28,
						"NORMAL":29,
						"TEXCOORD_0":30
					},
					"indices":31,
					"material":2
				}
			]
		},
		{
			"name":"Sphere.083",
			"primitives":[
				{
					"attributes":{
						"POSITION":32,
						"NORMAL":33,
						"TEXCOORD_0":34
					},
					"indices":35,
					"material":5
				}
			]
		},
		{
			"name":"Sphere.075",
			"primitives":[
				{
					"attributes":{
						"POSITION":36,
						"NORMAL":37,
						"TEXCOORD_0":38
					},
					"indices":19,
					"material":4
				}
			]
		}
	],
	"textures":[
		{
			"sampler":0,
			"source":0
		},
		{
			"sampler":0,
			"source":1
		},
		{
			"sampler":0,
			"source":2
		},
		{
			"sampler":0,
			"source":0
		},
		{
			"sampler":0,
			"source":1
		},
		{
			"sampler":0,
			"source":2
		},
		{
			"sampler":0,
			"source":0
		},
		{
			"sampler":0,
			"source":1
		},
		{
			"sampler":0,
			"source":2
		},
		{
			"sampler":0,
			"source":3
		},
		{
			"sampler":0,
			"source":0
		},
		{
			"sampler":0,
			"source":1
		},
		{
			"sampler":0,
			"source":2
		}
	],
	"images":[
		{
			"mimeType":"image/png",
			"name":"Venus normal",
			"uri":"Venus%20normal.png"
		},
		{
			"mimeType":"image/png",
			"name":"Venus color",
			"uri":"Venus%20color.png"
		},
		{
			"mimeType":"image/png",
			"name":"Venus roughness",
			"uri":"Venus%20roughness.png"
		},
		{
			"mimeType":"image/jpeg",
			"name":"8k_venus_surface",
			"uri":"8k_venus_surface.jpg"
		}
	],
	"accessors":[
		{
			"bufferView":0,
			"componentType":5126,
			"count":104,
			"max":[
				0.19044971466064453,
				0.19044995307922363,
				0.08213743567466736
			],
			"min":[
				-0.1904500126838684,
				-0.19044995307922363,
				0.05940447002649307
			],
			"type":"VEC3"
		},
		{
			"bufferView":1,
			"componentType":5126,
			"count":104,
			"type":"VEC3"
		},
		{
			"bufferView":2,
			"componentType":5126,
			"count":104,
			"type":"VEC2"
		},
		{
			"bufferView":3,
			"componentType":5123,
			"count":282,
			"type":"SCALAR"
		},
		{
			"bufferView":4,
			"componentType":5126,
			"count":136,
			"max":[
				0.39494526386260986,
				0.3949456810951233,
				0.06767883896827698
			],
			"min":[
				-0.3949456512928009,
				-0.3949456810951233,
				0.023293256759643555
			],
			"type":"VEC3"
		},
		{
			"bufferView":5,
			"componentType":5126,
			"count":136,
			"type":"VEC3"
		},
		{
			"bufferView":6,
			"componentType":5126,
			"count":136,
			"type":"VEC2"
		},
		{
			"bufferView":7,
			"componentType":5123,
			"count":384,
			"type":"SCALAR"
		},
		{
			"bufferView":8,
			"componentType":5126,
			"count":136,
			"max":[
				0.8624511957168579,
				0.86245197057724,
				0.03521012142300606
			],
			"min":[
				-0.8624517917633057,
				-0.86245197057724,
				-0.007763393223285675
			],
			"type":"VEC3"
		},
		{
			"bufferView":9,
			"componentType":5126,
			"count":136,
			"type":"VEC3"
		},
		{
			"bufferView":10,
			"componentType":5126,
			"count":136,
			"type":"VEC2"
		},
		{
			"bufferView":11,
			"componentType":5123,
			"count":384,
			"type":"SCALAR"
		},
		{
			"bufferView":12,
			"componentType":5126,
			"count":136,
			"max":[
				0.9958697557449341,
				0.9958707094192505,
				1.1632645282588783e-06
			],
			"min":[
				-0.9958704113960266,
				-0.9958707094192505,
				-0.03650931268930435
			],
			"type":"VEC3"
		},
		{
			"bufferView":13,
			"componentType":5126,
			"count":136,
			"type":"VEC3"
		},
		{
			"bufferView":14,
			"componentType":5126,
			"count":136,
			"type":"VEC2"
		},
		{
			"bufferView":15,
			"componentType":5123,
			"count":384,
			"type":"SCALAR"
		},
		{
			"bufferView":16,
			"componentType":5126,
			"count":287,
			"max":[
				0.9999990463256836,
				1,
				3.457416255514545e-07
			],
			"min":[
				-0.9999997019767761,
				-1,
				-0.9999993443489075
			],
			"type":"VEC3"
		},
		{
			"bufferView":17,
			"componentType":5126,
			"count":287,
			"type":"VEC3"
		},
		{
			"bufferView":18,
			"componentType":5126,
			"count":287,
			"type":"VEC2"
		},
		{
			"bufferView":19,
			"componentType":5123,
			"count":1440,
			"type":"SCALAR"
		},
		{
			"bufferView":20,
			"componentType":5126,
			"count":32,
			"max":[
				0.1904500126838684,
				0.19044995307922363,
				0.08213727921247482
			],
			"min":[
				-0.19044971466064453,
				-0.19044995307922363,
				0.08213604241609573
			],
			"type":"VEC3"
		},
		{
			"bufferView":21,
			"componentType":5126,
			"count":32,
			"type":"VEC3"
		},
		{
			"bufferView":22,
			"componentType":5126,
			"count":32,
			"type":"VEC2"
		},
		{
			"bufferView":23,
			"componentType":5123,
			"count":90,
			"type":"SCALAR"
		},
		{
			"bufferView":24,
			"componentType":5126,
			"count":136,
			"max":[
				0.3949456214904785,
				0.3949456810951233,
				0.11080638319253922
			],
			"min":[
				-0.39494526386260986,
				-0.3949456810951233,
				0.067677341401577
			],
			"type":"VEC3"
		},
		{
			"bufferView":25,
			"componentType":5126,
			"count":136,
			"type":"VEC3"
		},
		{
			"bufferView":26,
			"componentType":5126,
			"count":136,
			"type":"VEC2"
		},
		{
			"bufferView":27,
			"componentType":5123,
			"count":384,
			"type":"SCALAR"
		},
		{
			"bufferView":28,
			"componentType":5126,
			"count":136,
			"max":[
				0.8624517917633057,
				0.86245197057724,
				0.08443570882081985
			],
			"min":[
				-0.8624511957168579,
				-0.86245197057724,
				0.03520837798714638
			],
			"type":"VEC3"
		},
		{
			"bufferView":29,
			"componentType":5126,
			"count":136,
			"type":"VEC3"
		},
		{
			"bufferView":30,
			"componentType":5126,
			"count":136,
			"type":"VEC2"
		},
		{
			"bufferView":31,
			"componentType":5123,
			"count":384,
			"type":"SCALAR"
		},
		{
			"bufferView":32,
			"componentType":5126,
			"count":136,
			"max":[
				0.9999997019767761,
				1,
				0.04713558778166771
			],
			"min":[
				-0.9999990463256836,
				-1,
				-6.46779767521366e-07
			],
			"type":"VEC3"
		},
		{
			"bufferView":33,
			"componentType":5126,
			"count":136,
			"type":"VEC3"
		},
		{
			"bufferView":34,
			"componentType":5126,
			"count":136,
			"type":"VEC2"
		},
		{
			"bufferView":35,
			"componentType":5123,
			"count":384,
			"type":"SCALAR"
		},
		{
			"bufferView":36,
			"componentType":5126,
			"count":287,
			"max":[
				0.9999997019767761,
				1,
				0.9999993443489075
			],
			"min":[
				-0.9999990463256836,
				-1,
				-6.46779767521366e-07
			],
			"type":"VEC3"
		},
		{
			"bufferView":37,
			"componentType":5126,
			"count":287,
			"type":"VEC3"
		},
		{
			"bufferView":38,
			"componentType":5126,
			"count":287,
			"type":"VEC2"
		},
		{
			"bufferView":39,
			"componentType":5126,
			"count":50,
			"max":[
				2.0833333333333335
			],
			"min":[
				0.041666666666666664
			],
			"type":"SCALAR"
		},
		{
			"bufferView":40,
			"componentType":5126,
			"count":50,
			"type":"VEC3"
		},
		{
			"bufferView":41,
			"componentType":5126,
			"count":50,
			"type":"VEC4"
		},
		{
			"bufferView":42,
			"componentType":5126,
			"count":2,
			"max":[
				2.0833333333333335
			],
			"min":[
				0.041666666666666664
			],
			"type":"SCALAR"
		},
		{
			"bufferView":43,
			"componentType":5126,
			"count":2,
			"type":"VEC3"
		},
		{
			"bufferView":44,
			"componentType":5126,
			"count":2,
			"type":"VEC3"
		},
		{
			"bufferView":45,
			"componentType":5126,
			"count":2,
			"type":"VEC4"
		},
		{
			"bufferView":46,
			"componentType":5126,
			"count":2,
			"type":"VEC3"
		},
		{
			"bufferView":47,
			"componentType":5126,
			"count":2,
			"type":"VEC3"
		},
		{
			"bufferView":48,
			"componentType":5126,
			"count":2,
			"type":"VEC4"
		},
		{
			"bufferView":49,
			"componentType":5126,
			"count":2,
			"type":"VEC3"
		},
		{
			"bufferView":50,
			"componentType":5126,
			"count":2,
			"type":"VEC3"
		},
		{
			"bufferView":51,
			"componentType":5126,
			"count":2,
			"type":"VEC4"
		},
		{
			"bufferView":52,
			"componentType":5126,
			"count":2,
			"type":"VEC3"
		},
		{
			"bufferView":53,
			"componentType":5126,
			"count":2,
			"type":"VEC3"
		},
		{
			"bufferView":54,
			"componentType":5126,
			"count":2,
			"type":"VEC4"
		},
		{
			"bufferView":55,
			"componentType":5126,
			"count":2,
			"type":"VEC3"
		},
		{
			"bufferView":56,
			"componentType":5126,
			"count":50,
			"type":"VEC3"
		},
		{
			"bufferView":57,
			"componentType":5126,
			"count":50,
			"type":"VEC4"
		},
		{
			"bufferView":58,
			"componentType":5126,
			"count":2,
			"type":"VEC3"
		},
		{
			"bufferView":59,
			"componentType":5126,
			"count":2,
			"type":"VEC3"
		},
		{
			"bufferView":60,
			"componentType":5126,
			"count":2,
			"type":"VEC4"
		},
		{
			"bufferView":61,
			"componentType":5126,
			"count":2,
			"type":"VEC3"
		},
		{
			"bufferView":62,
			"componentType":5126,
			"count":2,
			"type":"VEC3"
		},
		{
			"bufferView":63,
			"componentType":5126,
			"count":2,
			"type":"VEC4"
		},
		{
			"bufferView":64,
			"componentType":5126,
			"count":2,
			"type":"VEC3"
		},
		{
			"bufferView":65,
			"componentType":5126,
			"count":2,
			"type":"VEC3"
		},
		{
			"bufferView":66,
			"componentType":5126,
			"count":2,
			"type":"VEC4"
		},
		{
			"bufferView":67,
			"componentType":5126,
			"count":2,
			"type":"VEC3"
		},
		{
			"bufferView":68,
			"componentType":5126,
			"count":2,
			"type":"VEC3"
		},
		{
			"bufferView":69,
			"componentType":5126,
			"count":2,
			"type":"VEC4"
		},
		{
			"bufferView":70,
			"componentType":5126,
			"count":2,
			"type":"VEC3"
		}
	],
	"bufferViews":[
		{
			"buffer":0,
			"byteLength":1248,
			"byteOffset":0,
			"target":34962
		},
		{
			"buffer":0,
			"byteLength":1248,
			"byteOffset":1248,
			"target":34962
		},
		{
			"buffer":0,
			"byteLength":832,
			"byteOffset":2496,
			"target":34962
		},
		{
			"buffer":0,
			"byteLength":564,
			"byteOffset":3328,
			"target":34963
		},
		{
			"buffer":0,
			"byteLength":1632,
			"byteOffset":3892,
			"target":34962
		},
		{
			"buffer":0,
			"byteLength":1632,
			"byteOffset":5524,
			"target":34962
		},
		{
			"buffer":0,
			"byteLength":1088,
			"byteOffset":7156,
			"target":34962
		},
		{
			"buffer":0,
			"byteLength":768,
			"byteOffset":8244,
			"target":34963
		},
		{
			"buffer":0,
			"byteLength":1632,
			"byteOffset":9012,
			"target":34962
		},
		{
			"buffer":0,
			"byteLength":1632,
			"byteOffset":10644,
			"target":34962
		},
		{
			"buffer":0,
			"byteLength":1088,
			"byteOffset":12276,
			"target":34962
		},
		{
			"buffer":0,
			"byteLength":768,
			"byteOffset":13364,
			"target":34963
		},
		{
			"buffer":0,
			"byteLength":1632,
			"byteOffset":14132,
			"target":34962
		},
		{
			"buffer":0,
			"byteLength":1632,
			"byteOffset":15764,
			"target":34962
		},
		{
			"buffer":0,
			"byteLength":1088,
			"byteOffset":17396,
			"target":34962
		},
		{
			"buffer":0,
			"byteLength":768,
			"byteOffset":18484,
			"target":34963
		},
		{
			"buffer":0,
			"byteLength":3444,
			"byteOffset":19252,
			"target":34962
		},
		{
			"buffer":0,
			"byteLength":3444,
			"byteOffset":22696,
			"target":34962
		},
		{
			"buffer":0,
			"byteLength":2296,
			"byteOffset":26140,
			"target":34962
		},
		{
			"buffer":0,
			"byteLength":2880,
			"byteOffset":28436,
			"target":34963
		},
		{
			"buffer":0,
			"byteLength":384,
			"byteOffset":31316,
			"target":34962
		},
		{
			"buffer":0,
			"byteLength":384,
			"byteOffset":31700,
			"target":34962
		},
		{
			"buffer":0,
			"byteLength":256,
			"byteOffset":32084,
			"target":34962
		},
		{
			"buffer":0,
			"byteLength":180,
			"byteOffset":32340,
			"target":34963
		},
		{
			"buffer":0,
			"byteLength":1632,
			"byteOffset":32520,
			"target":34962
		},
		{
			"buffer":0,
			"byteLength":1632,
			"byteOffset":34152,
			"target":34962
		},
		{
			"buffer":0,
			"byteLength":1088,
			"byteOffset":35784,
			"target":34962
		},
		{
			"buffer":0,
			"byteLength":768,
			"byteOffset":36872,
			"target":34963
		},
		{
			"buffer":0,
			"byteLength":1632,
			"byteOffset":37640,
			"target":34962
		},
		{
			"buffer":0,
			"byteLength":1632,
			"byteOffset":39272,
			"target":34962
		},
		{
			"buffer":0,
			"byteLength":1088,
			"byteOffset":40904,
			"target":34962
		},
		{
			"buffer":0,
			"byteLength":768,
			"byteOffset":41992,
			"target":34963
		},
		{
			"buffer":0,
			"byteLength":1632,
			"byteOffset":42760,
			"target":34962
		},
		{
			"buffer":0,
			"byteLength":1632,
			"byteOffset":44392,
			"target":34962
		},
		{
			"buffer":0,
			"byteLength":1088,
			"byteOffset":46024,
			"target":34962
		},
		{
			"buffer":0,
			"byteLength":768,
			"byteOffset":47112,
			"target":34963
		},
		{
			"buffer":0,
			"byteLength":3444,
			"byteOffset":47880,
			"target":34962
		},
		{
			"buffer":0,
			"byteLength":3444,
			"byteOffset":51324,
			"target":34962
		},
		{
			"buffer":0,
			"byteLength":2296,
			"byteOffset":54768,
			"target":34962
		},
		{
			"buffer":0,
			"byteLength":200,
			"byteOffset":57064
		},
		{
			"buffer":0,
			"byteLength":600,
			"byteOffset":57264
		},
		{
			"buffer":0,
			"byteLength":800,
			"byteOffset":57864
		},
		{
			"buffer":0,
			"byteLength":8,
			"byteOffset":58664
		},
		{
			"buffer":0,
			"byteLength":24,
			"byteOffset":58672
		},
		{
			"buffer":0,
			"byteLength":24,
			"byteOffset":58696
		},
		{
			"buffer":0,
			"byteLength":32,
			"byteOffset":58720
		},
		{
			"buffer":0,
			"byteLength":24,
			"byteOffset":58752
		},
		{
			"buffer":0,
			"byteLength":24,
			"byteOffset":58776
		},
		{
			"buffer":0,
			"byteLength":32,
			"byteOffset":58800
		},
		{
			"buffer":0,
			"byteLength":24,
			"byteOffset":58832
		},
		{
			"buffer":0,
			"byteLength":24,
			"byteOffset":58856
		},
		{
			"buffer":0,
			"byteLength":32,
			"byteOffset":58880
		},
		{
			"buffer":0,
			"byteLength":24,
			"byteOffset":58912
		},
		{
			"buffer":0,
			"byteLength":24,
			"byteOffset":58936
		},
		{
			"buffer":0,
			"byteLength":32,
			"byteOffset":58960
		},
		{
			"buffer":0,
			"byteLength":24,
			"byteOffset":58992
		},
		{
			"buffer":0,
			"byteLength":600,
			"byteOffset":59016
		},
		{
			"buffer":0,
			"byteLength":800,
			"byteOffset":59616
		},
		{
			"buffer":0,
			"byteLength":24,
			"byteOffset":60416
		},
		{
			"buffer":0,
			"byteLength":24,
			"byteOffset":60440
		},
		{
			"buffer":0,
			"byteLength":32,
			"byteOffset":60464
		},
		{
			"buffer":0,
			"byteLength":24,
			"byteOffset":60496
		},
		{
			"buffer":0,
			"byteLength":24,
			"byteOffset":60520
		},
		{
			"buffer":0,
			"byteLength":32,
			"byteOffset":60544
		},
		{
			"buffer":0,
			"byteLength":24,
			"byteOffset":60576
		},
		{
			"buffer":0,
			"byteLength":24,
			"byteOffset":60600
		},
		{
			"buffer":0,
			"byteLength":32,
			"byteOffset":60624
		},
		{
			"buffer":0,
			"byteLength":24,
			"byteOffset":60656
		},
		{
			"buffer":0,
			"byteLength":24,
			"byteOffset":60680
		},
		{
			"buffer":0,
			"byteLength":32,
			"byteOffset":60704
		},
		{
			"buffer":0,
			"byteLength":24,
			"byteOffset":60736
		}
	],
	"samplers":[
		{
			"magFilter":9729,
			"minFilter":9987
		}
	],
	"buffers":[
		{
			"byteLength":60760,
			"uri":"Venus.bin"
		}
	]
}
