{
	"asset":{
		"generator":"Khronos glTF Blender I/O v4.0.44",
		"version":"2.0"
	},
	"scene":0,
	"scenes":[
		{
			"name":"Scene",
			"nodes":[
				6,
				13
			]
		}
	],
	"nodes":[
		{
			"mesh":0,
			"name":"Sphere.038"
		},
		{
			"mesh":1,
			"name":"Sphere.044"
		},
		{
			"mesh":2,
			"name":"Sphere.045"
		},
		{
			"mesh":3,
			"name":"Sphere.046"
		},
		{
			"mesh":4,
			"name":"Sphere.047"
		},
		{
			"mesh":5,
			"name":"Text.003"
		},
		{
			"children":[
				0,
				1,
				2,
				3,
				4,
				5
			],
			"mesh":6,
			"name":"Sphere.035"
		},
		{
			"mesh":7,
			"name":"Sphere.039"
		},
		{
			"mesh":8,
			"name":"Sphere.040"
		},
		{
			"mesh":9,
			"name":"Sphere.041"
		},
		{
			"mesh":10,
			"name":"Sphere.042"
		},
		{
			"mesh":11,
			"name":"Sphere.043"
		},
		{
			"mesh":12,
			"name":"Text.012"
		},
		{
			"children":[
				7,
				8,
				9,
				10,
				11,
				12
			],
			"mesh":13,
			"name":"Sphere.036"
		}
	],
	"animations":[
		{
			"channels":[
				{
					"sampler":0,
					"target":{
						"node":6,
						"path":"translation"
					}
				},
				{
					"sampler":1,
					"target":{
						"node":6,
						"path":"rotation"
					}
				},
				{
					"sampler":2,
					"target":{
						"node":6,
						"path":"scale"
					}
				}
			],
			"name":"Action.018",
			"samplers":[
				{
					"input":54,
					"interpolation":"LINEAR",
					"output":55
				},
				{
					"input":54,
					"interpolation":"LINEAR",
					"output":56
				},
				{
					"input":57,
					"interpolation":"STEP",
					"output":58
				}
			]
		},
		{
			"channels":[
				{
					"sampler":0,
					"target":{
						"node":0,
						"path":"translation"
					}
				},
				{
					"sampler":1,
					"target":{
						"node":0,
						"path":"rotation"
					}
				},
				{
					"sampler":2,
					"target":{
						"node":0,
						"path":"scale"
					}
				}
			],
			"name":"Action.031",
			"samplers":[
				{
					"input":57,
					"interpolation":"LINEAR",
					"output":59
				},
				{
					"input":57,
					"interpolation":"LINEAR",
					"output":60
				},
				{
					"input":57,
					"interpolation":"STEP",
					"output":61
				}
			]
		},
		{
			"channels":[
				{
					"sampler":0,
					"target":{
						"node":1,
						"path":"translation"
					}
				},
				{
					"sampler":1,
					"target":{
						"node":1,
						"path":"rotation"
					}
				},
				{
					"sampler":2,
					"target":{
						"node":1,
						"path":"scale"
					}
				}
			],
			"name":"Action.026",
			"samplers":[
				{
					"input":57,
					"interpolation":"LINEAR",
					"output":62
				},
				{
					"input":57,
					"interpolation":"LINEAR",
					"output":63
				},
				{
					"input":57,
					"interpolation":"STEP",
					"output":64
				}
			]
		},
		{
			"channels":[
				{
					"sampler":0,
					"target":{
						"node":2,
						"path":"translation"
					}
				},
				{
					"sampler":1,
					"target":{
						"node":2,
						"path":"rotation"
					}
				},
				{
					"sampler":2,
					"target":{
						"node":2,
						"path":"scale"
					}
				}
			],
			"name":"Action.027",
			"samplers":[
				{
					"input":57,
					"interpolation":"LINEAR",
					"output":65
				},
				{
					"input":57,
					"interpolation":"LINEAR",
					"output":66
				},
				{
					"input":57,
					"interpolation":"STEP",
					"output":67
				}
			]
		},
		{
			"channels":[
				{
					"sampler":0,
					"target":{
						"node":3,
						"path":"translation"
					}
				},
				{
					"sampler":1,
					"target":{
						"node":3,
						"path":"rotation"
					}
				},
				{
					"sampler":2,
					"target":{
						"node":3,
						"path":"scale"
					}
				}
			],
			"name":"Action.028",
			"samplers":[
				{
					"input":57,
					"interpolation":"LINEAR",
					"output":68
				},
				{
					"input":57,
					"interpolation":"LINEAR",
					"output":69
				},
				{
					"input":57,
					"interpolation":"STEP",
					"output":70
				}
			]
		},
		{
			"channels":[
				{
					"sampler":0,
					"target":{
						"node":4,
						"path":"translation"
					}
				},
				{
					"sampler":1,
					"target":{
						"node":4,
						"path":"rotation"
					}
				},
				{
					"sampler":2,
					"target":{
						"node":4,
						"path":"scale"
					}
				}
			],
			"name":"Action.029",
			"samplers":[
				{
					"input":57,
					"interpolation":"LINEAR",
					"output":71
				},
				{
					"input":57,
					"interpolation":"LINEAR",
					"output":72
				},
				{
					"input":57,
					"interpolation":"STEP",
					"output":73
				}
			]
		},
		{
			"channels":[
				{
					"sampler":0,
					"target":{
						"node":5,
						"path":"translation"
					}
				},
				{
					"sampler":1,
					"target":{
						"node":5,
						"path":"rotation"
					}
				},
				{
					"sampler":2,
					"target":{
						"node":5,
						"path":"scale"
					}
				}
			],
			"name":"Action.030",
			"samplers":[
				{
					"input":57,
					"interpolation":"LINEAR",
					"output":74
				},
				{
					"input":57,
					"interpolation":"LINEAR",
					"output":75
				},
				{
					"input":57,
					"interpolation":"STEP",
					"output":76
				}
			]
		},
		{
			"channels":[
				{
					"sampler":0,
					"target":{
						"node":13,
						"path":"translation"
					}
				},
				{
					"sampler":1,
					"target":{
						"node":13,
						"path":"rotation"
					}
				},
				{
					"sampler":2,
					"target":{
						"node":13,
						"path":"scale"
					}
				}
			],
			"name":"Action.019",
			"samplers":[
				{
					"input":54,
					"interpolation":"LINEAR",
					"output":77
				},
				{
					"input":54,
					"interpolation":"LINEAR",
					"output":78
				},
				{
					"input":57,
					"interpolation":"LINEAR",
					"output":79
				}
			]
		},
		{
			"channels":[
				{
					"sampler":0,
					"target":{
						"node":7,
						"path":"translation"
					}
				},
				{
					"sampler":1,
					"target":{
						"node":7,
						"path":"rotation"
					}
				},
				{
					"sampler":2,
					"target":{
						"node":7,
						"path":"scale"
					}
				}
			],
			"name":"Action.020",
			"samplers":[
				{
					"input":57,
					"interpolation":"LINEAR",
					"output":80
				},
				{
					"input":57,
					"interpolation":"LINEAR",
					"output":81
				},
				{
					"input":57,
					"interpolation":"STEP",
					"output":82
				}
			]
		},
		{
			"channels":[
				{
					"sampler":0,
					"target":{
						"node":8,
						"path":"translation"
					}
				},
				{
					"sampler":1,
					"target":{
						"node":8,
						"path":"rotation"
					}
				},
				{
					"sampler":2,
					"target":{
						"node":8,
						"path":"scale"
					}
				}
			],
			"name":"Action.021",
			"samplers":[
				{
					"input":57,
					"interpolation":"LINEAR",
					"output":83
				},
				{
					"input":57,
					"interpolation":"LINEAR",
					"output":84
				},
				{
					"input":57,
					"interpolation":"STEP",
					"output":85
				}
			]
		},
		{
			"channels":[
				{
					"sampler":0,
					"target":{
						"node":9,
						"path":"translation"
					}
				},
				{
					"sampler":1,
					"target":{
						"node":9,
						"path":"rotation"
					}
				},
				{
					"sampler":2,
					"target":{
						"node":9,
						"path":"scale"
					}
				}
			],
			"name":"Action.022",
			"samplers":[
				{
					"input":57,
					"interpolation":"LINEAR",
					"output":86
				},
				{
					"input":57,
					"interpolation":"LINEAR",
					"output":87
				},
				{
					"input":57,
					"interpolation":"STEP",
					"output":88
				}
			]
		},
		{
			"channels":[
				{
					"sampler":0,
					"target":{
						"node":10,
						"path":"translation"
					}
				},
				{
					"sampler":1,
					"target":{
						"node":10,
						"path":"rotation"
					}
				},
				{
					"sampler":2,
					"target":{
						"node":10,
						"path":"scale"
					}
				}
			],
			"name":"Action.023",
			"samplers":[
				{
					"input":57,
					"interpolation":"LINEAR",
					"output":89
				},
				{
					"input":57,
					"interpolation":"LINEAR",
					"output":90
				},
				{
					"input":57,
					"interpolation":"STEP",
					"output":91
				}
			]
		},
		{
			"channels":[
				{
					"sampler":0,
					"target":{
						"node":11,
						"path":"translation"
					}
				},
				{
					"sampler":1,
					"target":{
						"node":11,
						"path":"rotation"
					}
				},
				{
					"sampler":2,
					"target":{
						"node":11,
						"path":"scale"
					}
				}
			],
			"name":"Action.025",
			"samplers":[
				{
					"input":57,
					"interpolation":"LINEAR",
					"output":92
				},
				{
					"input":57,
					"interpolation":"LINEAR",
					"output":93
				},
				{
					"input":57,
					"interpolation":"STEP",
					"output":94
				}
			]
		},
		{
			"channels":[
				{
					"sampler":0,
					"target":{
						"node":12,
						"path":"translation"
					}
				},
				{
					"sampler":1,
					"target":{
						"node":12,
						"path":"rotation"
					}
				},
				{
					"sampler":2,
					"target":{
						"node":12,
						"path":"scale"
					}
				}
			],
			"name":"Action.024",
			"samplers":[
				{
					"input":57,
					"interpolation":"LINEAR",
					"output":95
				},
				{
					"input":57,
					"interpolation":"LINEAR",
					"output":96
				},
				{
					"input":57,
					"interpolation":"STEP",
					"output":97
				}
			]
		}
	],
	"materials":[
		{
			"name":"Material.002",
			"normalTexture":{
				"index":0
			},
			"pbrMetallicRoughness":{
				"baseColorTexture":{
					"index":1
				},
				"metallicFactor":0,
				"metallicRoughnessTexture":{
					"index":2
				}
			}
		},
		{
			"doubleSided":true,
			"name":"buscute.002",
			"normalTexture":{
				"index":3
			},
			"pbrMetallicRoughness":{
				"baseColorTexture":{
					"index":4
				},
				"metallicFactor":0,
				"metallicRoughnessTexture":{
					"index":5
				}
			}
		},
		{
			"doubleSided":true,
			"name":"liquedchoclate2.001",
			"normalTexture":{
				"index":6
			},
			"pbrMetallicRoughness":{
				"baseColorTexture":{
					"index":7
				},
				"metallicFactor":0,
				"metallicRoughnessTexture":{
					"index":8
				}
			}
		},
		{
			"doubleSided":true,
			"name":"liquedchoclate2",
			"normalTexture":{
				"index":9
			},
			"pbrMetallicRoughness":{
				"baseColorTexture":{
					"index":10
				},
				"metallicFactor":0,
				"metallicRoughnessTexture":{
					"index":11
				}
			}
		},
		{
			"doubleSided":true,
			"name":"Material",
			"normalTexture":{
				"index":12
			},
			"pbrMetallicRoughness":{
				"baseColorTexture":{
					"index":13
				},
				"metallicFactor":0,
				"metallicRoughnessTexture":{
					"index":14
				}
			}
		},
		{
			"doubleSided":true,
			"name":"Jupiter",
			"pbrMetallicRoughness":{
				"baseColorTexture":{
					"index":15
				},
				"metallicFactor":0,
				"roughnessFactor":0.5
			}
		},
		{
			"doubleSided":true,
			"name":"Jupiter",
			"pbrMetallicRoughness":{
				"baseColorTexture":{
					"index":16
				},
				"metallicFactor":0,
				"roughnessFactor":0.5
			}
		}
	],
	"meshes":[
		{
			"name":"Sphere.038",
			"primitives":[
				{
					"attributes":{
						"POSITION":0,
						"NORMAL":1,
						"TEXCOORD_0":2
					},
					"indices":3,
					"material":0
				}
			]
		},
		{
			"name":"Sphere.034",
			"primitives":[
				{
					"attributes":{
						"POSITION":4,
						"NORMAL":5,
						"TEXCOORD_0":6
					},
					"indices":7,
					"material":1
				}
			]
		},
		{
			"name":"Sphere.035",
			"primitives":[
				{
					"attributes":{
						"POSITION":8,
						"NORMAL":9,
						"TEXCOORD_0":10
					},
					"indices":11,
					"material":2
				}
			]
		},
		{
			"name":"Sphere.036",
			"primitives":[
				{
					"attributes":{
						"POSITION":12,
						"NORMAL":13,
						"TEXCOORD_0":14
					},
					"indices":15,
					"material":3
				}
			]
		},
		{
			"name":"Sphere.037",
			"primitives":[
				{
					"attributes":{
						"POSITION":16,
						"NORMAL":17,
						"TEXCOORD_0":18
					},
					"indices":19,
					"material":0
				}
			]
		},
		{
			"name":"Text.055",
			"primitives":[
				{
					"attributes":{
						"POSITION":20,
						"NORMAL":21,
						"TEXCOORD_0":22
					},
					"indices":23,
					"material":4
				}
			]
		},
		{
			"name":"Sphere.057",
			"primitives":[
				{
					"attributes":{
						"POSITION":24,
						"NORMAL":25,
						"TEXCOORD_0":26
					},
					"indices":27,
					"material":5
				}
			]
		},
		{
			"name":"Sphere.017",
			"primitives":[
				{
					"attributes":{
						"POSITION":28,
						"NORMAL":29,
						"TEXCOORD_0":30
					},
					"indices":31,
					"material":1
				}
			]
		},
		{
			"name":"Sphere.018",
			"primitives":[
				{
					"attributes":{
						"POSITION":32,
						"NORMAL":33,
						"TEXCOORD_0":34
					},
					"indices":35,
					"material":2
				}
			]
		},
		{
			"name":"Sphere.019",
			"primitives":[
				{
					"attributes":{
						"POSITION":36,
						"NORMAL":37,
						"TEXCOORD_0":38
					},
					"indices":39,
					"material":3
				}
			]
		},
		{
			"name":"Sphere.026",
			"primitives":[
				{
					"attributes":{
						"POSITION":40,
						"NORMAL":41,
						"TEXCOORD_0":42
					},
					"indices":43,
					"material":0
				}
			]
		},
		{
			"name":"Sphere.027",
			"primitives":[
				{
					"attributes":{
						"POSITION":44,
						"NORMAL":45,
						"TEXCOORD_0":46
					},
					"indices":3,
					"material":0
				}
			]
		},
		{
			"name":"Text.011",
			"primitives":[
				{
					"attributes":{
						"POSITION":47,
						"NORMAL":48,
						"TEXCOORD_0":49
					},
					"indices":50,
					"material":4
				}
			]
		},
		{
			"name":"Sphere.058",
			"primitives":[
				{
					"attributes":{
						"POSITION":51,
						"NORMAL":52,
						"TEXCOORD_0":53
					},
					"indices":27,
					"material":6
				}
			]
		}
	],
	"textures":[
		{
			"sampler":0,
			"source":0
		},
		{
			"sampler":0,
			"source":1
		},
		{
			"sampler":0,
			"source":2
		},
		{
			"sampler":0,
			"source":0
		},
		{
			"sampler":0,
			"source":1
		},
		{
			"sampler":0,
			"source":2
		},
		{
			"sampler":0,
			"source":0
		},
		{
			"sampler":0,
			"source":1
		},
		{
			"sampler":0,
			"source":2
		},
		{
			"sampler":0,
			"source":0
		},
		{
			"sampler":0,
			"source":1
		},
		{
			"sampler":0,
			"source":2
		},
		{
			"sampler":0,
			"source":0
		},
		{
			"sampler":0,
			"source":1
		},
		{
			"sampler":0,
			"source":2
		},
		{
			"sampler":0,
			"source":3
		},
		{
			"sampler":0,
			"source":3
		}
	],
	"images":[
		{
			"mimeType":"image/png",
			"name":"Jupiter normal",
			"uri":"Jupiter%20normal.png"
		},
		{
			"mimeType":"image/png",
			"name":"Jupiter color",
			"uri":"Jupiter%20color.png"
		},
		{
			"mimeType":"image/png",
			"name":"Jupiter roughness",
			"uri":"Jupiter%20roughness.png"
		},
		{
			"mimeType":"image/jpeg",
			"name":"8k_jupiter",
			"uri":"8k_jupiter.jpg"
		}
	],
	"accessors":[
		{
			"bufferView":0,
			"componentType":5126,
			"count":160,
			"max":[
				0.2068522870540619,
				0.2068524956703186,
				-0.09997091442346573
			],
			"min":[
				-0.20685246586799622,
				-0.2068524956703186,
				-0.09997227042913437
			],
			"type":"VEC3"
		},
		{
			"bufferView":1,
			"componentType":5126,
			"count":160,
			"type":"VEC3"
		},
		{
			"bufferView":2,
			"componentType":5126,
			"count":160,
			"type":"VEC2"
		},
		{
			"bufferView":3,
			"componentType":5123,
			"count":858,
			"type":"SCALAR"
		},
		{
			"bufferView":4,
			"componentType":5126,
			"count":208,
			"max":[
				0.619549572467804,
				0.6195501089096069,
				-0.08338723331689835
			],
			"min":[
				-0.6195499897003174,
				-0.6195501089096069,
				-0.13026922941207886
			],
			"type":"VEC3"
		},
		{
			"bufferView":5,
			"componentType":5126,
			"count":208,
			"type":"VEC3"
		},
		{
			"bufferView":6,
			"componentType":5126,
			"count":208,
			"type":"VEC2"
		},
		{
			"bufferView":7,
			"componentType":5123,
			"count":576,
			"type":"SCALAR"
		},
		{
			"bufferView":8,
			"componentType":5126,
			"count":208,
			"max":[
				0.792239248752594,
				0.7922399640083313,
				-0.056013740599155426
			],
			"min":[
				-0.792239785194397,
				-0.7922399640083313,
				-0.1147555559873581
			],
			"type":"VEC3"
		},
		{
			"bufferView":9,
			"componentType":5126,
			"count":208,
			"type":"VEC3"
		},
		{
			"bufferView":10,
			"componentType":5126,
			"count":208,
			"type":"VEC2"
		},
		{
			"bufferView":11,
			"componentType":5123,
			"count":576,
			"type":"SCALAR"
		},
		{
			"bufferView":12,
			"componentType":5126,
			"count":208,
			"max":[
				0.9005471467971802,
				0.900547981262207,
				-0.031691521406173706
			],
			"min":[
				-0.9005477428436279,
				-0.900547981262207,
				-0.09586480259895325
			],
			"type":"VEC3"
		},
		{
			"bufferView":13,
			"componentType":5126,
			"count":208,
			"type":"VEC3"
		},
		{
			"bufferView":14,
			"componentType":5126,
			"count":208,
			"type":"VEC2"
		},
		{
			"bufferView":15,
			"componentType":5123,
			"count":576,
			"type":"SCALAR"
		},
		{
			"bufferView":16,
			"componentType":5126,
			"count":136,
			"max":[
				0.9999990463256836,
				1,
				9.478179094912775e-07
			],
			"min":[
				-0.9999997019767761,
				-1,
				-0.05953030660748482
			],
			"type":"VEC3"
		},
		{
			"bufferView":17,
			"componentType":5126,
			"count":136,
			"type":"VEC3"
		},
		{
			"bufferView":18,
			"componentType":5126,
			"count":136,
			"type":"VEC2"
		},
		{
			"bufferView":19,
			"componentType":5123,
			"count":384,
			"type":"SCALAR"
		},
		{
			"bufferView":20,
			"componentType":5126,
			"count":2958,
			"max":[
				0.19911302626132965,
				0.2076338529586792,
				-0.053867507725954056
			],
			"min":[
				-0.1972230076789856,
				-0.192702978849411,
				-0.16564513742923737
			],
			"type":"VEC3"
		},
		{
			"bufferView":21,
			"componentType":5126,
			"count":2958,
			"type":"VEC3"
		},
		{
			"bufferView":22,
			"componentType":5126,
			"count":2958,
			"type":"VEC2"
		},
		{
			"bufferView":23,
			"componentType":5123,
			"count":4992,
			"type":"SCALAR"
		},
		{
			"bufferView":24,
			"componentType":5126,
			"count":287,
			"max":[
				0.9999990463256836,
				1,
				3.457416255514545e-07
			],
			"min":[
				-0.9999997019767761,
				-1,
				-0.9999993443489075
			],
			"type":"VEC3"
		},
		{
			"bufferView":25,
			"componentType":5126,
			"count":287,
			"type":"VEC3"
		},
		{
			"bufferView":26,
			"componentType":5126,
			"count":287,
			"type":"VEC2"
		},
		{
			"bufferView":27,
			"componentType":5123,
			"count":1440,
			"type":"SCALAR"
		},
		{
			"bufferView":28,
			"componentType":5126,
			"count":208,
			"max":[
				0.6195499300956726,
				0.6195501089096069,
				0.13026903569698334
			],
			"min":[
				-0.619549572467804,
				-0.6195501089096069,
				0.08338741958141327
			],
			"type":"VEC3"
		},
		{
			"bufferView":29,
			"componentType":5126,
			"count":208,
			"type":"VEC3"
		},
		{
			"bufferView":30,
			"componentType":5126,
			"count":208,
			"type":"VEC2"
		},
		{
			"bufferView":31,
			"componentType":5123,
			"count":576,
			"type":"SCALAR"
		},
		{
			"bufferView":32,
			"componentType":5126,
			"count":208,
			"max":[
				0.7922397255897522,
				0.7922399640083313,
				0.11475531756877899
			],
			"min":[
				-0.792239248752594,
				-0.7922399640083313,
				0.05601397901773453
			],
			"type":"VEC3"
		},
		{
			"bufferView":33,
			"componentType":5126,
			"count":208,
			"type":"VEC3"
		},
		{
			"bufferView":34,
			"componentType":5126,
			"count":208,
			"type":"VEC2"
		},
		{
			"bufferView":35,
			"componentType":5123,
			"count":576,
			"type":"SCALAR"
		},
		{
			"bufferView":36,
			"componentType":5126,
			"count":208,
			"max":[
				0.9005476832389832,
				0.900547981262207,
				0.09586453437805176
			],
			"min":[
				-0.9005471467971802,
				-0.900547981262207,
				0.031691793352365494
			],
			"type":"VEC3"
		},
		{
			"bufferView":37,
			"componentType":5126,
			"count":208,
			"type":"VEC3"
		},
		{
			"bufferView":38,
			"componentType":5126,
			"count":208,
			"type":"VEC2"
		},
		{
			"bufferView":39,
			"componentType":5123,
			"count":576,
			"type":"SCALAR"
		},
		{
			"bufferView":40,
			"componentType":5126,
			"count":136,
			"max":[
				0.9999997019767761,
				1,
				0.05953003466129303
			],
			"min":[
				-0.9999990463256836,
				-1,
				-6.46779767521366e-07
			],
			"type":"VEC3"
		},
		{
			"bufferView":41,
			"componentType":5126,
			"count":136,
			"type":"VEC3"
		},
		{
			"bufferView":42,
			"componentType":5126,
			"count":136,
			"type":"VEC2"
		},
		{
			"bufferView":43,
			"componentType":5123,
			"count":384,
			"type":"SCALAR"
		},
		{
			"bufferView":44,
			"componentType":5126,
			"count":160,
			"max":[
				0.20685243606567383,
				0.2068524956703186,
				0.0999722108244896
			],
			"min":[
				-0.20685231685638428,
				-0.2068524956703186,
				0.0999709740281105
			],
			"type":"VEC3"
		},
		{
			"bufferView":45,
			"componentType":5126,
			"count":160,
			"type":"VEC3"
		},
		{
			"bufferView":46,
			"componentType":5126,
			"count":160,
			"type":"VEC2"
		},
		{
			"bufferView":47,
			"componentType":5126,
			"count":2958,
			"max":[
				0.19722296297550201,
				0.2076338529586792,
				0.16564515233039856
			],
			"min":[
				-0.19911305606365204,
				-0.192702978849411,
				0.05386749655008316
			],
			"type":"VEC3"
		},
		{
			"bufferView":48,
			"componentType":5126,
			"count":2958,
			"type":"VEC3"
		},
		{
			"bufferView":49,
			"componentType":5126,
			"count":2958,
			"type":"VEC2"
		},
		{
			"bufferView":50,
			"componentType":5123,
			"count":4992,
			"type":"SCALAR"
		},
		{
			"bufferView":51,
			"componentType":5126,
			"count":287,
			"max":[
				0.9999997019767761,
				1,
				0.9999993443489075
			],
			"min":[
				-0.9999990463256836,
				-1,
				-6.46779767521366e-07
			],
			"type":"VEC3"
		},
		{
			"bufferView":52,
			"componentType":5126,
			"count":287,
			"type":"VEC3"
		},
		{
			"bufferView":53,
			"componentType":5126,
			"count":287,
			"type":"VEC2"
		},
		{
			"bufferView":54,
			"componentType":5126,
			"count":50,
			"max":[
				2.0833333333333335
			],
			"min":[
				0.041666666666666664
			],
			"type":"SCALAR"
		},
		{
			"bufferView":55,
			"componentType":5126,
			"count":50,
			"type":"VEC3"
		},
		{
			"bufferView":56,
			"componentType":5126,
			"count":50,
			"type":"VEC4"
		},
		{
			"bufferView":57,
			"componentType":5126,
			"count":2,
			"max":[
				2.0833333333333335
			],
			"min":[
				0.041666666666666664
			],
			"type":"SCALAR"
		},
		{
			"bufferView":58,
			"componentType":5126,
			"count":2,
			"type":"VEC3"
		},
		{
			"bufferView":59,
			"componentType":5126,
			"count":2,
			"type":"VEC3"
		},
		{
			"bufferView":60,
			"componentType":5126,
			"count":2,
			"type":"VEC4"
		},
		{
			"bufferView":61,
			"componentType":5126,
			"count":2,
			"type":"VEC3"
		},
		{
			"bufferView":62,
			"componentType":5126,
			"count":2,
			"type":"VEC3"
		},
		{
			"bufferView":63,
			"componentType":5126,
			"count":2,
			"type":"VEC4"
		},
		{
			"bufferView":64,
			"componentType":5126,
			"count":2,
			"type":"VEC3"
		},
		{
			"bufferView":65,
			"componentType":5126,
			"count":2,
			"type":"VEC3"
		},
		{
			"bufferView":66,
			"componentType":5126,
			"count":2,
			"type":"VEC4"
		},
		{
			"bufferView":67,
			"componentType":5126,
			"count":2,
			"type":"VEC3"
		},
		{
			"bufferView":68,
			"componentType":5126,
			"count":2,
			"type":"VEC3"
		},
		{
			"bufferView":69,
			"componentType":5126,
			"count":2,
			"type":"VEC4"
		},
		{
			"bufferView":70,
			"componentType":5126,
			"count":2,
			"type":"VEC3"
		},
		{
			"bufferView":71,
			"componentType":5126,
			"count":2,
			"type":"VEC3"
		},
		{
			"bufferView":72,
			"componentType":5126,
			"count":2,
			"type":"VEC4"
		},
		{
			"bufferView":73,
			"componentType":5126,
			"count":2,
			"type":"VEC3"
		},
		{
			"bufferView":74,
			"componentType":5126,
			"count":2,
			"type":"VEC3"
		},
		{
			"bufferView":75,
			"componentType":5126,
			"count":2,
			"type":"VEC4"
		},
		{
			"bufferView":76,
			"componentType":5126,
			"count":2,
			"type":"VEC3"
		},
		{
			"bufferView":77,
			"componentType":5126,
			"count":50,
			"type":"VEC3"
		},
		{
			"bufferView":78,
			"componentType":5126,
			"count":50,
			"type":"VEC4"
		},
		{
			"bufferView":79,
			"componentType":5126,
			"count":2,
			"type":"VEC3"
		},
		{
			"bufferView":80,
			"componentType":5126,
			"count":2,
			"type":"VEC3"
		},
		{
			"bufferView":81,
			"componentType":5126,
			"count":2,
			"type":"VEC4"
		},
		{
			"bufferView":82,
			"componentType":5126,
			"count":2,
			"type":"VEC3"
		},
		{
			"bufferView":83,
			"componentType":5126,
			"count":2,
			"type":"VEC3"
		},
		{
			"bufferView":84,
			"componentType":5126,
			"count":2,
			"type":"VEC4"
		},
		{
			"bufferView":85,
			"componentType":5126,
			"count":2,
			"type":"VEC3"
		},
		{
			"bufferView":86,
			"componentType":5126,
			"count":2,
			"type":"VEC3"
		},
		{
			"bufferView":87,
			"componentType":5126,
			"count":2,
			"type":"VEC4"
		},
		{
			"bufferView":88,
			"componentType":5126,
			"count":2,
			"type":"VEC3"
		},
		{
			"bufferView":89,
			"componentType":5126,
			"count":2,
			"type":"VEC3"
		},
		{
			"bufferView":90,
			"componentType":5126,
			"count":2,
			"type":"VEC4"
		},
		{
			"bufferView":91,
			"componentType":5126,
			"count":2,
			"type":"VEC3"
		},
		{
			"bufferView":92,
			"componentType":5126,
			"count":2,
			"type":"VEC3"
		},
		{
			"bufferView":93,
			"componentType":5126,
			"count":2,
			"type":"VEC4"
		},
		{
			"bufferView":94,
			"componentType":5126,
			"count":2,
			"type":"VEC3"
		},
		{
			"bufferView":95,
			"componentType":5126,
			"count":2,
			"type":"VEC3"
		},
		{
			"bufferView":96,
			"componentType":5126,
			"count":2,
			"type":"VEC4"
		},
		{
			"bufferView":97,
			"componentType":5126,
			"count":2,
			"type":"VEC3"
		}
	],
	"bufferViews":[
		{
			"buffer":0,
			"byteLength":1920,
			"byteOffset":0,
			"target":34962
		},
		{
			"buffer":0,
			"byteLength":1920,
			"byteOffset":1920,
			"target":34962
		},
		{
			"buffer":0,
			"byteLength":1280,
			"byteOffset":3840,
			"target":34962
		},
		{
			"buffer":0,
			"byteLength":1716,
			"byteOffset":5120,
			"target":34963
		},
		{
			"buffer":0,
			"byteLength":2496,
			"byteOffset":6836,
			"target":34962
		},
		{
			"buffer":0,
			"byteLength":2496,
			"byteOffset":9332,
			"target":34962
		},
		{
			"buffer":0,
			"byteLength":1664,
			"byteOffset":11828,
			"target":34962
		},
		{
			"buffer":0,
			"byteLength":1152,
			"byteOffset":13492,
			"target":34963
		},
		{
			"buffer":0,
			"byteLength":2496,
			"byteOffset":14644,
			"target":34962
		},
		{
			"buffer":0,
			"byteLength":2496,
			"byteOffset":17140,
			"target":34962
		},
		{
			"buffer":0,
			"byteLength":1664,
			"byteOffset":19636,
			"target":34962
		},
		{
			"buffer":0,
			"byteLength":1152,
			"byteOffset":21300,
			"target":34963
		},
		{
			"buffer":0,
			"byteLength":2496,
			"byteOffset":22452,
			"target":34962
		},
		{
			"buffer":0,
			"byteLength":2496,
			"byteOffset":24948,
			"target":34962
		},
		{
			"buffer":0,
			"byteLength":1664,
			"byteOffset":27444,
			"target":34962
		},
		{
			"buffer":0,
			"byteLength":1152,
			"byteOffset":29108,
			"target":34963
		},
		{
			"buffer":0,
			"byteLength":1632,
			"byteOffset":30260,
			"target":34962
		},
		{
			"buffer":0,
			"byteLength":1632,
			"byteOffset":31892,
			"target":34962
		},
		{
			"buffer":0,
			"byteLength":1088,
			"byteOffset":33524,
			"target":34962
		},
		{
			"buffer":0,
			"byteLength":768,
			"byteOffset":34612,
			"target":34963
		},
		{
			"buffer":0,
			"byteLength":35496,
			"byteOffset":35380,
			"target":34962
		},
		{
			"buffer":0,
			"byteLength":35496,
			"byteOffset":70876,
			"target":34962
		},
		{
			"buffer":0,
			"byteLength":23664,
			"byteOffset":106372,
			"target":34962
		},
		{
			"buffer":0,
			"byteLength":9984,
			"byteOffset":130036,
			"target":34963
		},
		{
			"buffer":0,
			"byteLength":3444,
			"byteOffset":140020,
			"target":34962
		},
		{
			"buffer":0,
			"byteLength":3444,
			"byteOffset":143464,
			"target":34962
		},
		{
			"buffer":0,
			"byteLength":2296,
			"byteOffset":146908,
			"target":34962
		},
		{
			"buffer":0,
			"byteLength":2880,
			"byteOffset":149204,
			"target":34963
		},
		{
			"buffer":0,
			"byteLength":2496,
			"byteOffset":152084,
			"target":34962
		},
		{
			"buffer":0,
			"byteLength":2496,
			"byteOffset":154580,
			"target":34962
		},
		{
			"buffer":0,
			"byteLength":1664,
			"byteOffset":157076,
			"target":34962
		},
		{
			"buffer":0,
			"byteLength":1152,
			"byteOffset":158740,
			"target":34963
		},
		{
			"buffer":0,
			"byteLength":2496,
			"byteOffset":159892,
			"target":34962
		},
		{
			"buffer":0,
			"byteLength":2496,
			"byteOffset":162388,
			"target":34962
		},
		{
			"buffer":0,
			"byteLength":1664,
			"byteOffset":164884,
			"target":34962
		},
		{
			"buffer":0,
			"byteLength":1152,
			"byteOffset":166548,
			"target":34963
		},
		{
			"buffer":0,
			"byteLength":2496,
			"byteOffset":167700,
			"target":34962
		},
		{
			"buffer":0,
			"byteLength":2496,
			"byteOffset":170196,
			"target":34962
		},
		{
			"buffer":0,
			"byteLength":1664,
			"byteOffset":172692,
			"target":34962
		},
		{
			"buffer":0,
			"byteLength":1152,
			"byteOffset":174356,
			"target":34963
		},
		{
			"buffer":0,
			"byteLength":1632,
			"byteOffset":175508,
			"target":34962
		},
		{
			"buffer":0,
			"byteLength":1632,
			"byteOffset":177140,
			"target":34962
		},
		{
			"buffer":0,
			"byteLength":1088,
			"byteOffset":178772,
			"target":34962
		},
		{
			"buffer":0,
			"byteLength":768,
			"byteOffset":179860,
			"target":34963
		},
		{
			"buffer":0,
			"byteLength":1920,
			"byteOffset":180628,
			"target":34962
		},
		{
			"buffer":0,
			"byteLength":1920,
			"byteOffset":182548,
			"target":34962
		},
		{
			"buffer":0,
			"byteLength":1280,
			"byteOffset":184468,
			"target":34962
		},
		{
			"buffer":0,
			"byteLength":35496,
			"byteOffset":185748,
			"target":34962
		},
		{
			"buffer":0,
			"byteLength":35496,
			"byteOffset":221244,
			"target":34962
		},
		{
			"buffer":0,
			"byteLength":23664,
			"byteOffset":256740,
			"target":34962
		},
		{
			"buffer":0,
			"byteLength":9984,
			"byteOffset":280404,
			"target":34963
		},
		{
			"buffer":0,
			"byteLength":3444,
			"byteOffset":290388,
			"target":34962
		},
		{
			"buffer":0,
			"byteLength":3444,
			"byteOffset":293832,
			"target":34962
		},
		{
			"buffer":0,
			"byteLength":2296,
			"byteOffset":297276,
			"target":34962
		},
		{
			"buffer":0,
			"byteLength":200,
			"byteOffset":299572
		},
		{
			"buffer":0,
			"byteLength":600,
			"byteOffset":299772
		},
		{
			"buffer":0,
			"byteLength":800,
			"byteOffset":300372
		},
		{
			"buffer":0,
			"byteLength":8,
			"byteOffset":301172
		},
		{
			"buffer":0,
			"byteLength":24,
			"byteOffset":301180
		},
		{
			"buffer":0,
			"byteLength":24,
			"byteOffset":301204
		},
		{
			"buffer":0,
			"byteLength":32,
			"byteOffset":301228
		},
		{
			"buffer":0,
			"byteLength":24,
			"byteOffset":301260
		},
		{
			"buffer":0,
			"byteLength":24,
			"byteOffset":301284
		},
		{
			"buffer":0,
			"byteLength":32,
			"byteOffset":301308
		},
		{
			"buffer":0,
			"byteLength":24,
			"byteOffset":301340
		},
		{
			"buffer":0,
			"byteLength":24,
			"byteOffset":301364
		},
		{
			"buffer":0,
			"byteLength":32,
			"byteOffset":301388
		},
		{
			"buffer":0,
			"byteLength":24,
			"byteOffset":301420
		},
		{
			"buffer":0,
			"byteLength":24,
			"byteOffset":301444
		},
		{
			"buffer":0,
			"byteLength":32,
			"byteOffset":301468
		},
		{
			"buffer":0,
			"byteLength":24,
			"byteOffset":301500
		},
		{
			"buffer":0,
			"byteLength":24,
			"byteOffset":301524
		},
		{
			"buffer":0,
			"byteLength":32,
			"byteOffset":301548
		},
		{
			"buffer":0,
			"byteLength":24,
			"byteOffset":301580
		},
		{
			"buffer":0,
			"byteLength":24,
			"byteOffset":301604
		},
		{
			"buffer":0,
			"byteLength":32,
			"byteOffset":301628
		},
		{
			"buffer":0,
			"byteLength":24,
			"byteOffset":301660
		},
		{
			"buffer":0,
			"byteLength":600,
			"byteOffset":301684
		},
		{
			"buffer":0,
			"byteLength":800,
			"byteOffset":302284
		},
		{
			"buffer":0,
			"byteLength":24,
			"byteOffset":303084
		},
		{
			"buffer":0,
			"byteLength":24,
			"byteOffset":303108
		},
		{
			"buffer":0,
			"byteLength":32,
			"byteOffset":303132
		},
		{
			"buffer":0,
			"byteLength":24,
			"byteOffset":303164
		},
		{
			"buffer":0,
			"byteLength":24,
			"byteOffset":303188
		},
		{
			"buffer":0,
			"byteLength":32,
			"byteOffset":303212
		},
		{
			"buffer":0,
			"byteLength":24,
			"byteOffset":303244
		},
		{
			"buffer":0,
			"byteLength":24,
			"byteOffset":303268
		},
		{
			"buffer":0,
			"byteLength":32,
			"byteOffset":303292
		},
		{
			"buffer":0,
			"byteLength":24,
			"byteOffset":303324
		},
		{
			"buffer":0,
			"byteLength":24,
			"byteOffset":303348
		},
		{
			"buffer":0,
			"byteLength":32,
			"byteOffset":303372
		},
		{
			"buffer":0,
			"byteLength":24,
			"byteOffset":303404
		},
		{
			"buffer":0,
			"byteLength":24,
			"byteOffset":303428
		},
		{
			"buffer":0,
			"byteLength":32,
			"byteOffset":303452
		},
		{
			"buffer":0,
			"byteLength":24,
			"byteOffset":303484
		},
		{
			"buffer":0,
			"byteLength":24,
			"byteOffset":303508
		},
		{
			"buffer":0,
			"byteLength":32,
			"byteOffset":303532
		},
		{
			"buffer":0,
			"byteLength":24,
			"byteOffset":303564
		}
	],
	"samplers":[
		{
			"magFilter":9729,
			"minFilter":9987
		}
	],
	"buffers":[
		{
			"byteLength":303588,
			"uri":"Jupiter.bin"
		}
	]
}
