{
	"asset":{
		"generator":"Khronos glTF Blender I/O v4.0.44",
		"version":"2.0"
	},
	"scene":0,
	"scenes":[
		{
			"name":"Scene",
			"nodes":[
				0,
				1,
				7,
				8,
				9,
				10,
				11,
				12,
				13,
				14,
				15
			]
		}
	],
	"nodes":[
		{
			"mesh":0,
			"name":"Sphere.129",
			"rotation":[
				-0.0002705557562876493,
				0.0005142084555700421,
				-0.00033495016396045685,
				1
			]
		},
		{
			"mesh":1,
			"name":"Plane.002"
		},
		{
			"name":"Bone.002",
			"rotation":[
				0.7070400714874268,
				-0.004856853745877743,
				-0.00971302017569542,
				0.7070900797843933
			],
			"scale":[
				0.9999999403953552,
				1.0000001192092896,
				1
			],
			"translation":[
				1.8360424292040989e-09,
				5.717532157897949,
				-2.4496875994373113e-07
			]
		},
		{
			"children":[
				2
			],
			"name":"Bone.001",
			"rotation":[
				0.7070901989936829,
				1.1063806937272602e-07,
				-0.004856656305491924,
				0.7071067094802856
			],
			"scale":[
				1,
				0.9999999403953552,
				1
			],
			"translation":[
				5.587935447692871e-09,
				4.561041831970215,
				3.691602614708245e-07
			]
		},
		{
			"children":[
				3
			],
			"name":"Bone",
			"rotation":[
				-1.1857800927828066e-05,
				-0.003434168640524149,
				-0.0034341684076935053,
				0.9999882578849792
			],
			"scale":[
				1,
				0.9999999403953552,
				0.9999999403953552
			]
		},
		{
			"name":"neutral_bone",
			"rotation":[
				-0.7071067690849304,
				0,
				0,
				0.7071067690849304
			]
		},
		{
			"mesh":2,
			"name":"Plane.006",
			"skin":0
		},
		{
			"children":[
				6,
				4,
				5
			],
			"name":"Armature.002",
			"translation":[
				-0.0313267707824707,
				-2.2939319610595703,
				-2.8429901599884033
			]
		},
		{
			"mesh":3,
			"name":"Sphere.130"
		},
		{
			"mesh":4,
			"name":"Sphere.131"
		},
		{
			"mesh":5,
			"name":"Sphere.132"
		},
		{
			"mesh":6,
			"name":"Sphere.133"
		},
		{
			"mesh":7,
			"name":"Sphere.134"
		},
		{
			"mesh":8,
			"name":"Sphere.135"
		},
		{
			"mesh":9,
			"name":"Sphere.136"
		},
		{
			"mesh":10,
			"name":"Sphere.137"
		}
	],
	"animations":[
		{
			"channels":[
				{
					"sampler":0,
					"target":{
						"node":4,
						"path":"translation"
					}
				},
				{
					"sampler":1,
					"target":{
						"node":4,
						"path":"rotation"
					}
				},
				{
					"sampler":2,
					"target":{
						"node":4,
						"path":"scale"
					}
				},
				{
					"sampler":3,
					"target":{
						"node":3,
						"path":"translation"
					}
				},
				{
					"sampler":4,
					"target":{
						"node":3,
						"path":"rotation"
					}
				},
				{
					"sampler":5,
					"target":{
						"node":3,
						"path":"scale"
					}
				},
				{
					"sampler":6,
					"target":{
						"node":2,
						"path":"translation"
					}
				},
				{
					"sampler":7,
					"target":{
						"node":2,
						"path":"rotation"
					}
				},
				{
					"sampler":8,
					"target":{
						"node":2,
						"path":"scale"
					}
				}
			],
			"name":"ArmatureAction.003",
			"samplers":[
				{
					"input":57,
					"interpolation":"STEP",
					"output":58
				},
				{
					"input":57,
					"interpolation":"STEP",
					"output":59
				},
				{
					"input":57,
					"interpolation":"STEP",
					"output":60
				},
				{
					"input":57,
					"interpolation":"STEP",
					"output":61
				},
				{
					"input":62,
					"interpolation":"LINEAR",
					"output":63
				},
				{
					"input":57,
					"interpolation":"STEP",
					"output":64
				},
				{
					"input":57,
					"interpolation":"STEP",
					"output":65
				},
				{
					"input":62,
					"interpolation":"LINEAR",
					"output":66
				},
				{
					"input":57,
					"interpolation":"STEP",
					"output":67
				}
			]
		},
		{
			"channels":[
				{
					"sampler":0,
					"target":{
						"node":4,
						"path":"translation"
					}
				},
				{
					"sampler":1,
					"target":{
						"node":4,
						"path":"rotation"
					}
				},
				{
					"sampler":2,
					"target":{
						"node":4,
						"path":"scale"
					}
				},
				{
					"sampler":3,
					"target":{
						"node":3,
						"path":"translation"
					}
				},
				{
					"sampler":4,
					"target":{
						"node":3,
						"path":"rotation"
					}
				},
				{
					"sampler":5,
					"target":{
						"node":3,
						"path":"scale"
					}
				},
				{
					"sampler":6,
					"target":{
						"node":2,
						"path":"translation"
					}
				},
				{
					"sampler":7,
					"target":{
						"node":2,
						"path":"rotation"
					}
				},
				{
					"sampler":8,
					"target":{
						"node":2,
						"path":"scale"
					}
				}
			],
			"name":"ArmatureAction.004",
			"samplers":[
				{
					"input":57,
					"interpolation":"STEP",
					"output":68
				},
				{
					"input":57,
					"interpolation":"STEP",
					"output":69
				},
				{
					"input":57,
					"interpolation":"STEP",
					"output":70
				},
				{
					"input":57,
					"interpolation":"STEP",
					"output":71
				},
				{
					"input":62,
					"interpolation":"LINEAR",
					"output":72
				},
				{
					"input":57,
					"interpolation":"STEP",
					"output":73
				},
				{
					"input":57,
					"interpolation":"STEP",
					"output":74
				},
				{
					"input":62,
					"interpolation":"LINEAR",
					"output":75
				},
				{
					"input":57,
					"interpolation":"STEP",
					"output":76
				}
			]
		},
		{
			"channels":[
				{
					"sampler":0,
					"target":{
						"node":8,
						"path":"translation"
					}
				}
			],
			"name":"Sphere.119Action.001",
			"samplers":[
				{
					"input":77,
					"interpolation":"LINEAR",
					"output":78
				}
			]
		},
		{
			"channels":[
				{
					"sampler":0,
					"target":{
						"node":9,
						"path":"translation"
					}
				}
			],
			"name":"Sphere.120Action.001",
			"samplers":[
				{
					"input":79,
					"interpolation":"LINEAR",
					"output":80
				}
			]
		},
		{
			"channels":[
				{
					"sampler":0,
					"target":{
						"node":10,
						"path":"translation"
					}
				}
			],
			"name":"Sphere.122Action.001",
			"samplers":[
				{
					"input":81,
					"interpolation":"LINEAR",
					"output":82
				}
			]
		},
		{
			"channels":[
				{
					"sampler":0,
					"target":{
						"node":11,
						"path":"translation"
					}
				}
			],
			"name":"Sphere.123Action.001",
			"samplers":[
				{
					"input":83,
					"interpolation":"LINEAR",
					"output":84
				}
			]
		},
		{
			"channels":[
				{
					"sampler":0,
					"target":{
						"node":12,
						"path":"translation"
					}
				}
			],
			"name":"Sphere.124Action.001",
			"samplers":[
				{
					"input":83,
					"interpolation":"LINEAR",
					"output":85
				}
			]
		},
		{
			"channels":[
				{
					"sampler":0,
					"target":{
						"node":13,
						"path":"translation"
					}
				}
			],
			"name":"Sphere.125Action.001",
			"samplers":[
				{
					"input":81,
					"interpolation":"LINEAR",
					"output":86
				}
			]
		},
		{
			"channels":[
				{
					"sampler":0,
					"target":{
						"node":14,
						"path":"translation"
					}
				}
			],
			"name":"Sphere.126Action.001",
			"samplers":[
				{
					"input":79,
					"interpolation":"LINEAR",
					"output":87
				}
			]
		},
		{
			"channels":[
				{
					"sampler":0,
					"target":{
						"node":15,
						"path":"translation"
					}
				}
			],
			"name":"Sphere.127Action.001",
			"samplers":[
				{
					"input":77,
					"interpolation":"LINEAR",
					"output":88
				}
			]
		}
	],
	"materials":[
		{
			"doubleSided":true,
			"name":"Blueberry",
			"normalTexture":{
				"index":0,
				"texCoord":1
			},
			"pbrMetallicRoughness":{
				"baseColorTexture":{
					"index":1,
					"texCoord":1
				},
				"metallicFactor":0,
				"metallicRoughnessTexture":{
					"index":2,
					"texCoord":1
				}
			}
		},
		{
			"doubleSided":true,
			"name":"fullPackage",
			"normalTexture":{
				"index":3,
				"texCoord":1
			},
			"pbrMetallicRoughness":{
				"baseColorTexture":{
					"index":4,
					"texCoord":1
				},
				"metallicFactor":0,
				"metallicRoughnessTexture":{
					"index":5,
					"texCoord":1
				}
			}
		},
		{
			"doubleSided":true,
			"name":"fullPackage",
			"normalTexture":{
				"index":6,
				"texCoord":1
			},
			"pbrMetallicRoughness":{
				"baseColorTexture":{
					"index":7,
					"texCoord":1
				},
				"metallicFactor":0,
				"metallicRoughnessTexture":{
					"index":8,
					"texCoord":1
				}
			}
		},
		{
			"doubleSided":true,
			"name":"Material.008",
			"pbrMetallicRoughness":{
				"baseColorTexture":{
					"index":9
				},
				"metallicFactor":0,
				"roughnessFactor":0
			}
		},
		{
			"doubleSided":true,
			"name":"Material.009",
			"pbrMetallicRoughness":{
				"baseColorTexture":{
					"index":10
				},
				"metallicFactor":0,
				"roughnessFactor":0
			}
		},
		{
			"doubleSided":true,
			"name":"buscute.001",
			"pbrMetallicRoughness":{
				"baseColorTexture":{
					"index":11
				},
				"metallicFactor":0,
				"roughnessFactor":0
			}
		},
		{
			"doubleSided":true,
			"name":"buscute.004",
			"pbrMetallicRoughness":{
				"baseColorTexture":{
					"index":12
				},
				"metallicFactor":0,
				"roughnessFactor":0
			}
		},
		{
			"doubleSided":true,
			"name":"buscute",
			"pbrMetallicRoughness":{
				"baseColorTexture":{
					"index":13
				},
				"metallicFactor":0,
				"roughnessFactor":0
			}
		},
		{
			"doubleSided":true,
			"name":"Material.007",
			"pbrMetallicRoughness":{
				"baseColorTexture":{
					"index":14
				},
				"metallicFactor":0,
				"roughnessFactor":0
			}
		},
		{
			"doubleSided":true,
			"name":"Material.006",
			"pbrMetallicRoughness":{
				"baseColorTexture":{
					"index":15
				},
				"metallicFactor":0,
				"roughnessFactor":0
			}
		},
		{
			"doubleSided":true,
			"name":"Material.005",
			"pbrMetallicRoughness":{
				"baseColorTexture":{
					"index":16
				},
				"metallicFactor":0,
				"roughnessFactor":0
			}
		}
	],
	"meshes":[
		{
			"name":"Sphere.119",
			"primitives":[
				{
					"attributes":{
						"POSITION":0,
						"NORMAL":1,
						"TEXCOORD_0":2,
						"TEXCOORD_1":3
					},
					"indices":4,
					"material":0
				}
			]
		},
		{
			"name":"Plane.002",
			"primitives":[
				{
					"attributes":{
						"POSITION":5,
						"NORMAL":6,
						"TEXCOORD_0":7,
						"TEXCOORD_1":8
					},
					"indices":9,
					"material":1
				}
			]
		},
		{
			"name":"Plane.006",
			"primitives":[
				{
					"attributes":{
						"POSITION":10,
						"NORMAL":11,
						"TEXCOORD_0":12,
						"TEXCOORD_1":13,
						"JOINTS_0":14,
						"WEIGHTS_0":15
					},
					"indices":16,
					"material":2
				},
				{
					"attributes":{
						"POSITION":17,
						"NORMAL":18,
						"TEXCOORD_0":19,
						"TEXCOORD_1":20,
						"JOINTS_0":21,
						"WEIGHTS_0":22
					},
					"indices":23,
					"material":2
				},
				{
					"attributes":{
						"POSITION":24,
						"NORMAL":25,
						"TEXCOORD_0":26,
						"TEXCOORD_1":27,
						"JOINTS_0":28,
						"WEIGHTS_0":29
					},
					"indices":30,
					"material":2
				}
			]
		},
		{
			"name":"Sphere.130",
			"primitives":[
				{
					"attributes":{
						"POSITION":32,
						"NORMAL":33,
						"TEXCOORD_0":34
					},
					"indices":35,
					"material":3
				}
			]
		},
		{
			"name":"Sphere.131",
			"primitives":[
				{
					"attributes":{
						"POSITION":36,
						"NORMAL":37,
						"TEXCOORD_0":38
					},
					"indices":35,
					"material":4
				}
			]
		},
		{
			"name":"Sphere.132",
			"primitives":[
				{
					"attributes":{
						"POSITION":39,
						"NORMAL":40,
						"TEXCOORD_0":41
					},
					"indices":35,
					"material":5
				}
			]
		},
		{
			"name":"Sphere.134",
			"primitives":[
				{
					"attributes":{
						"POSITION":42,
						"NORMAL":43,
						"TEXCOORD_0":44
					},
					"indices":35,
					"material":6
				}
			]
		},
		{
			"name":"Sphere.135",
			"primitives":[
				{
					"attributes":{
						"POSITION":45,
						"NORMAL":46,
						"TEXCOORD_0":47
					},
					"indices":35,
					"material":7
				}
			]
		},
		{
			"name":"Sphere.136",
			"primitives":[
				{
					"attributes":{
						"POSITION":48,
						"NORMAL":49,
						"TEXCOORD_0":50
					},
					"indices":35,
					"material":8
				}
			]
		},
		{
			"name":"Sphere.137",
			"primitives":[
				{
					"attributes":{
						"POSITION":51,
						"NORMAL":52,
						"TEXCOORD_0":53
					},
					"indices":35,
					"material":9
				}
			]
		},
		{
			"name":"Sphere.138",
			"primitives":[
				{
					"attributes":{
						"POSITION":54,
						"NORMAL":55,
						"TEXCOORD_0":56
					},
					"indices":35,
					"material":10
				}
			]
		}
	],
	"textures":[
		{
			"sampler":0,
			"source":0
		},
		{
			"sampler":0,
			"source":1
		},
		{
			"sampler":0,
			"source":2
		},
		{
			"sampler":0,
			"source":3
		},
		{
			"sampler":0,
			"source":4
		},
		{
			"sampler":0,
			"source":5
		},
		{
			"sampler":0,
			"source":3
		},
		{
			"sampler":0,
			"source":4
		},
		{
			"sampler":0,
			"source":5
		},
		{
			"sampler":0,
			"source":6
		},
		{
			"sampler":0,
			"source":7
		},
		{
			"sampler":0,
			"source":8
		},
		{
			"sampler":0,
			"source":9
		},
		{
			"sampler":0,
			"source":10
		},
		{
			"sampler":0,
			"source":11
		},
		{
			"sampler":0,
			"source":12
		},
		{
			"sampler":0,
			"source":13
		}
	],
	"images":[
		{
			"mimeType":"image/png",
			"name":"notVIPnormal",
			"uri":"notVIPnormal.png"
		},
		{
			"mimeType":"image/png",
			"name":"notVIPcolor",
			"uri":"notVIPcolor.png"
		},
		{
			"mimeType":"image/png",
			"name":"notVIPRoughness",
			"uri":"notVIPRoughness.png"
		},
		{
			"mimeType":"image/png",
			"name":"coverNormal",
			"uri":"coverNormal.png"
		},
		{
			"mimeType":"image/png",
			"name":"coverColor",
			"uri":"coverColor.png"
		},
		{
			"mimeType":"image/png",
			"name":"coverRoughness",
			"uri":"coverRoughness.png"
		},
		{
			"mimeType":"image/jpeg",
			"name":"8k_mercury",
			"uri":"8k_mercury.jpg"
		},
		{
			"mimeType":"image/jpeg",
			"name":"8k_mars",
			"uri":"8k_mars.jpg"
		},
		{
			"mimeType":"image/jpeg",
			"name":"8k_jupiter",
			"uri":"8k_jupiter.jpg"
		},
		{
			"mimeType":"image/jpeg",
			"name":"8k_earth_daymap",
			"uri":"8k_earth_daymap.jpg"
		},
		{
			"mimeType":"image/jpeg",
			"name":"8k_venus_surface",
			"uri":"8k_venus_surface.jpg"
		},
		{
			"mimeType":"image/jpeg",
			"name":"8k_saturn",
			"uri":"8k_saturn.jpg"
		},
		{
			"mimeType":"image/jpeg",
			"name":"2k_uranus",
			"uri":"2k_uranus.jpg"
		},
		{
			"mimeType":"image/jpeg",
			"name":"2k_neptune",
			"uri":"2k_neptune.jpg"
		}
	],
	"skins":[
		{
			"inverseBindMatrices":31,
			"joints":[
				4,
				3,
				2,
				5
			],
			"name":"Armature.002"
		}
	],
	"accessors":[
		{
			"bufferView":0,
			"componentType":5126,
			"count":3149,
			"max":[
				9.070388793945312,
				-0.09395183622837067,
				2.8372669219970703
			],
			"min":[
				-9.069015502929688,
				-1.10172438621521,
				-2.8183887004852295
			],
			"type":"VEC3"
		},
		{
			"bufferView":1,
			"componentType":5126,
			"count":3149,
			"type":"VEC3"
		},
		{
			"bufferView":2,
			"componentType":5126,
			"count":3149,
			"type":"VEC2"
		},
		{
			"bufferView":3,
			"componentType":5126,
			"count":3149,
			"type":"VEC2"
		},
		{
			"bufferView":4,
			"componentType":5123,
			"count":13356,
			"type":"SCALAR"
		},
		{
			"bufferView":5,
			"componentType":5126,
			"count":68,
			"max":[
				9.359633445739746,
				2.2670021057128906,
				2.877180576324463
			],
			"min":[
				-9.328307151794434,
				-2.293931484222412,
				-2.822991371154785
			],
			"type":"VEC3"
		},
		{
			"bufferView":6,
			"componentType":5126,
			"count":68,
			"type":"VEC3"
		},
		{
			"bufferView":7,
			"componentType":5126,
			"count":68,
			"type":"VEC2"
		},
		{
			"bufferView":8,
			"componentType":5126,
			"count":68,
			"type":"VEC2"
		},
		{
			"bufferView":9,
			"componentType":5123,
			"count":132,
			"type":"SCALAR"
		},
		{
			"bufferView":10,
			"componentType":5126,
			"count":116,
			"max":[
				9.12830638885498,
				2.46700382232666,
				3.0745460987091064
			],
			"min":[
				-9.159632682800293,
				-2.2939319610595703,
				-3.0429909229278564
			],
			"type":"VEC3"
		},
		{
			"bufferView":11,
			"componentType":5126,
			"count":116,
			"type":"VEC3"
		},
		{
			"bufferView":12,
			"componentType":5126,
			"count":116,
			"type":"VEC2"
		},
		{
			"bufferView":13,
			"componentType":5126,
			"count":116,
			"type":"VEC2"
		},
		{
			"bufferView":14,
			"componentType":5121,
			"count":116,
			"type":"VEC4"
		},
		{
			"bufferView":15,
			"componentType":5126,
			"count":116,
			"type":"VEC4"
		},
		{
			"bufferView":16,
			"componentType":5123,
			"count":204,
			"type":"SCALAR"
		},
		{
			"bufferView":17,
			"componentType":5126,
			"count":114,
			"max":[
				-1.8113152980804443,
				2.4975156784057617,
				1.005063533782959
			],
			"min":[
				-2.939875841140747,
				2.447514057159424,
				-1.4857490062713623
			],
			"type":"VEC3"
		},
		{
			"bufferView":18,
			"componentType":5126,
			"count":114,
			"type":"VEC3"
		},
		{
			"bufferView":19,
			"componentType":5126,
			"count":114,
			"type":"VEC2"
		},
		{
			"bufferView":20,
			"componentType":5126,
			"count":114,
			"type":"VEC2"
		},
		{
			"bufferView":21,
			"componentType":5121,
			"count":114,
			"type":"VEC4"
		},
		{
			"bufferView":22,
			"componentType":5126,
			"count":114,
			"type":"VEC4"
		},
		{
			"bufferView":23,
			"componentType":5123,
			"count":192,
			"type":"SCALAR"
		},
		{
			"bufferView":24,
			"componentType":5126,
			"count":1722,
			"max":[
				3.312803268432617,
				2.497515916824341,
				1.0307121276855469
			],
			"min":[
				-1.7286685705184937,
				2.4475131034851074,
				-0.9385688900947571
			],
			"type":"VEC3"
		},
		{
			"bufferView":25,
			"componentType":5126,
			"count":1722,
			"type":"VEC3"
		},
		{
			"bufferView":26,
			"componentType":5126,
			"count":1722,
			"type":"VEC2"
		},
		{
			"bufferView":27,
			"componentType":5126,
			"count":1722,
			"type":"VEC2"
		},
		{
			"bufferView":28,
			"componentType":5121,
			"count":1722,
			"type":"VEC4"
		},
		{
			"bufferView":29,
			"componentType":5126,
			"count":1722,
			"type":"VEC4"
		},
		{
			"bufferView":30,
			"componentType":5123,
			"count":3072,
			"type":"SCALAR"
		},
		{
			"bufferView":31,
			"componentType":5126,
			"count":4,
			"type":"MAT4"
		},
		{
			"bufferView":32,
			"componentType":5126,
			"count":574,
			"max":[
				2.1777281761169434,
				0.9944319725036621,
				0.9999978542327881
			],
			"min":[
				0.17772865295410156,
				-1.005568027496338,
				-1.0000008344650269
			],
			"type":"VEC3"
		},
		{
			"bufferView":33,
			"componentType":5126,
			"count":574,
			"type":"VEC3"
		},
		{
			"bufferView":34,
			"componentType":5126,
			"count":574,
			"type":"VEC2"
		},
		{
			"bufferView":35,
			"componentType":5123,
			"count":2880,
			"type":"SCALAR"
		},
		{
			"bufferView":36,
			"componentType":5126,
			"count":574,
			"max":[
				4.336761951446533,
				0.9944319725036621,
				0.9999971389770508
			],
			"min":[
				2.3367629051208496,
				-1.005568027496338,
				-1.0000015497207642
			],
			"type":"VEC3"
		},
		{
			"bufferView":37,
			"componentType":5126,
			"count":574,
			"type":"VEC3"
		},
		{
			"bufferView":38,
			"componentType":5126,
			"count":574,
			"type":"VEC2"
		},
		{
			"bufferView":39,
			"componentType":5126,
			"count":574,
			"max":[
				6.5092668533325195,
				0.9944319725036621,
				0.9999963641166687
			],
			"min":[
				4.509267330169678,
				-1.005568027496338,
				-1.0000022649765015
			],
			"type":"VEC3"
		},
		{
			"bufferView":40,
			"componentType":5126,
			"count":574,
			"type":"VEC3"
		},
		{
			"bufferView":41,
			"componentType":5126,
			"count":574,
			"type":"VEC2"
		},
		{
			"bufferView":42,
			"componentType":5126,
			"count":574,
			"max":[
				8.69524097442627,
				0.9944319725036621,
				0.9999955892562866
			],
			"min":[
				6.6952409744262695,
				-1.005568027496338,
				-1.0000030994415283
			],
			"type":"VEC3"
		},
		{
			"bufferView":43,
			"componentType":5126,
			"count":574,
			"type":"VEC3"
		},
		{
			"bufferView":44,
			"componentType":5126,
			"count":574,
			"type":"VEC2"
		},
		{
			"bufferView":45,
			"componentType":5126,
			"count":574,
			"max":[
				-6.693734169006348,
				0.9944319725036621,
				1.0000030994415283
			],
			"min":[
				-8.693734169006348,
				-1.005568027496338,
				-0.9999955892562866
			],
			"type":"VEC3"
		},
		{
			"bufferView":46,
			"componentType":5126,
			"count":574,
			"type":"VEC3"
		},
		{
			"bufferView":47,
			"componentType":5126,
			"count":574,
			"type":"VEC2"
		},
		{
			"bufferView":48,
			"componentType":5126,
			"count":574,
			"max":[
				-4.534700870513916,
				0.9944319725036621,
				1.000002384185791
			],
			"min":[
				-6.534700393676758,
				-1.005568027496338,
				-0.9999963641166687
			],
			"type":"VEC3"
		},
		{
			"bufferView":49,
			"componentType":5126,
			"count":574,
			"type":"VEC3"
		},
		{
			"bufferView":50,
			"componentType":5126,
			"count":574,
			"type":"VEC2"
		},
		{
			"bufferView":51,
			"componentType":5126,
			"count":574,
			"max":[
				-2.362196445465088,
				0.9944319725036621,
				1.0000015497207642
			],
			"min":[
				-4.3621954917907715,
				-1.005568027496338,
				-0.9999971389770508
			],
			"type":"VEC3"
		},
		{
			"bufferView":52,
			"componentType":5126,
			"count":574,
			"type":"VEC3"
		},
		{
			"bufferView":53,
			"componentType":5126,
			"count":574,
			"type":"VEC2"
		},
		{
			"bufferView":54,
			"componentType":5126,
			"count":574,
			"max":[
				-0.1762220859527588,
				0.9944319725036621,
				1.0000008344650269
			],
			"min":[
				-2.1762213706970215,
				-1.005568027496338,
				-0.9999978542327881
			],
			"type":"VEC3"
		},
		{
			"bufferView":55,
			"componentType":5126,
			"count":574,
			"type":"VEC3"
		},
		{
			"bufferView":56,
			"componentType":5126,
			"count":574,
			"type":"VEC2"
		},
		{
			"bufferView":57,
			"componentType":5126,
			"count":2,
			"max":[
				2.2916666666666665
			],
			"min":[
				0.20833333333333334
			],
			"type":"SCALAR"
		},
		{
			"bufferView":58,
			"componentType":5126,
			"count":2,
			"type":"VEC3"
		},
		{
			"bufferView":59,
			"componentType":5126,
			"count":2,
			"type":"VEC4"
		},
		{
			"bufferView":60,
			"componentType":5126,
			"count":2,
			"type":"VEC3"
		},
		{
			"bufferView":61,
			"componentType":5126,
			"count":2,
			"type":"VEC3"
		},
		{
			"bufferView":62,
			"componentType":5126,
			"count":51,
			"max":[
				2.2916666666666665
			],
			"min":[
				0.20833333333333334
			],
			"type":"SCALAR"
		},
		{
			"bufferView":63,
			"componentType":5126,
			"count":51,
			"type":"VEC4"
		},
		{
			"bufferView":64,
			"componentType":5126,
			"count":2,
			"type":"VEC3"
		},
		{
			"bufferView":65,
			"componentType":5126,
			"count":2,
			"type":"VEC3"
		},
		{
			"bufferView":66,
			"componentType":5126,
			"count":51,
			"type":"VEC4"
		},
		{
			"bufferView":67,
			"componentType":5126,
			"count":2,
			"type":"VEC3"
		},
		{
			"bufferView":68,
			"componentType":5126,
			"count":2,
			"type":"VEC3"
		},
		{
			"bufferView":69,
			"componentType":5126,
			"count":2,
			"type":"VEC4"
		},
		{
			"bufferView":70,
			"componentType":5126,
			"count":2,
			"type":"VEC3"
		},
		{
			"bufferView":71,
			"componentType":5126,
			"count":2,
			"type":"VEC3"
		},
		{
			"bufferView":72,
			"componentType":5126,
			"count":51,
			"type":"VEC4"
		},
		{
			"bufferView":73,
			"componentType":5126,
			"count":2,
			"type":"VEC3"
		},
		{
			"bufferView":74,
			"componentType":5126,
			"count":2,
			"type":"VEC3"
		},
		{
			"bufferView":75,
			"componentType":5126,
			"count":51,
			"type":"VEC4"
		},
		{
			"bufferView":76,
			"componentType":5126,
			"count":2,
			"type":"VEC3"
		},
		{
			"bufferView":77,
			"componentType":5126,
			"count":26,
			"max":[
				2.7083333333333335
			],
			"min":[
				1.6666666666666667
			],
			"type":"SCALAR"
		},
		{
			"bufferView":78,
			"componentType":5126,
			"count":26,
			"type":"VEC3"
		},
		{
			"bufferView":79,
			"componentType":5126,
			"count":36,
			"max":[
				2.7083333333333335
			],
			"min":[
				1.25
			],
			"type":"SCALAR"
		},
		{
			"bufferView":80,
			"componentType":5126,
			"count":36,
			"type":"VEC3"
		},
		{
			"bufferView":81,
			"componentType":5126,
			"count":46,
			"max":[
				2.7083333333333335
			],
			"min":[
				0.8333333333333334
			],
			"type":"SCALAR"
		},
		{
			"bufferView":82,
			"componentType":5126,
			"count":46,
			"type":"VEC3"
		},
		{
			"bufferView":83,
			"componentType":5126,
			"count":56,
			"max":[
				2.7083333333333335
			],
			"min":[
				0.4166666666666667
			],
			"type":"SCALAR"
		},
		{
			"bufferView":84,
			"componentType":5126,
			"count":56,
			"type":"VEC3"
		},
		{
			"bufferView":85,
			"componentType":5126,
			"count":56,
			"type":"VEC3"
		},
		{
			"bufferView":86,
			"componentType":5126,
			"count":46,
			"type":"VEC3"
		},
		{
			"bufferView":87,
			"componentType":5126,
			"count":36,
			"type":"VEC3"
		},
		{
			"bufferView":88,
			"componentType":5126,
			"count":26,
			"type":"VEC3"
		}
	],
	"bufferViews":[
		{
			"buffer":0,
			"byteLength":37788,
			"byteOffset":0,
			"target":34962
		},
		{
			"buffer":0,
			"byteLength":37788,
			"byteOffset":37788,
			"target":34962
		},
		{
			"buffer":0,
			"byteLength":25192,
			"byteOffset":75576,
			"target":34962
		},
		{
			"buffer":0,
			"byteLength":25192,
			"byteOffset":100768,
			"target":34962
		},
		{
			"buffer":0,
			"byteLength":26712,
			"byteOffset":125960,
			"target":34963
		},
		{
			"buffer":0,
			"byteLength":816,
			"byteOffset":152672,
			"target":34962
		},
		{
			"buffer":0,
			"byteLength":816,
			"byteOffset":153488,
			"target":34962
		},
		{
			"buffer":0,
			"byteLength":544,
			"byteOffset":154304,
			"target":34962
		},
		{
			"buffer":0,
			"byteLength":544,
			"byteOffset":154848,
			"target":34962
		},
		{
			"buffer":0,
			"byteLength":264,
			"byteOffset":155392,
			"target":34963
		},
		{
			"buffer":0,
			"byteLength":1392,
			"byteOffset":155656,
			"target":34962
		},
		{
			"buffer":0,
			"byteLength":1392,
			"byteOffset":157048,
			"target":34962
		},
		{
			"buffer":0,
			"byteLength":928,
			"byteOffset":158440,
			"target":34962
		},
		{
			"buffer":0,
			"byteLength":928,
			"byteOffset":159368,
			"target":34962
		},
		{
			"buffer":0,
			"byteLength":464,
			"byteOffset":160296,
			"target":34962
		},
		{
			"buffer":0,
			"byteLength":1856,
			"byteOffset":160760,
			"target":34962
		},
		{
			"buffer":0,
			"byteLength":408,
			"byteOffset":162616,
			"target":34963
		},
		{
			"buffer":0,
			"byteLength":1368,
			"byteOffset":163024,
			"target":34962
		},
		{
			"buffer":0,
			"byteLength":1368,
			"byteOffset":164392,
			"target":34962
		},
		{
			"buffer":0,
			"byteLength":912,
			"byteOffset":165760,
			"target":34962
		},
		{
			"buffer":0,
			"byteLength":912,
			"byteOffset":166672,
			"target":34962
		},
		{
			"buffer":0,
			"byteLength":456,
			"byteOffset":167584,
			"target":34962
		},
		{
			"buffer":0,
			"byteLength":1824,
			"byteOffset":168040,
			"target":34962
		},
		{
			"buffer":0,
			"byteLength":384,
			"byteOffset":169864,
			"target":34963
		},
		{
			"buffer":0,
			"byteLength":20664,
			"byteOffset":170248,
			"target":34962
		},
		{
			"buffer":0,
			"byteLength":20664,
			"byteOffset":190912,
			"target":34962
		},
		{
			"buffer":0,
			"byteLength":13776,
			"byteOffset":211576,
			"target":34962
		},
		{
			"buffer":0,
			"byteLength":13776,
			"byteOffset":225352,
			"target":34962
		},
		{
			"buffer":0,
			"byteLength":6888,
			"byteOffset":239128,
			"target":34962
		},
		{
			"buffer":0,
			"byteLength":27552,
			"byteOffset":246016,
			"target":34962
		},
		{
			"buffer":0,
			"byteLength":6144,
			"byteOffset":273568,
			"target":34963
		},
		{
			"buffer":0,
			"byteLength":256,
			"byteOffset":279712
		},
		{
			"buffer":0,
			"byteLength":6888,
			"byteOffset":279968,
			"target":34962
		},
		{
			"buffer":0,
			"byteLength":6888,
			"byteOffset":286856,
			"target":34962
		},
		{
			"buffer":0,
			"byteLength":4592,
			"byteOffset":293744,
			"target":34962
		},
		{
			"buffer":0,
			"byteLength":5760,
			"byteOffset":298336,
			"target":34963
		},
		{
			"buffer":0,
			"byteLength":6888,
			"byteOffset":304096,
			"target":34962
		},
		{
			"buffer":0,
			"byteLength":6888,
			"byteOffset":310984,
			"target":34962
		},
		{
			"buffer":0,
			"byteLength":4592,
			"byteOffset":317872,
			"target":34962
		},
		{
			"buffer":0,
			"byteLength":6888,
			"byteOffset":322464,
			"target":34962
		},
		{
			"buffer":0,
			"byteLength":6888,
			"byteOffset":329352,
			"target":34962
		},
		{
			"buffer":0,
			"byteLength":4592,
			"byteOffset":336240,
			"target":34962
		},
		{
			"buffer":0,
			"byteLength":6888,
			"byteOffset":340832,
			"target":34962
		},
		{
			"buffer":0,
			"byteLength":6888,
			"byteOffset":347720,
			"target":34962
		},
		{
			"buffer":0,
			"byteLength":4592,
			"byteOffset":354608,
			"target":34962
		},
		{
			"buffer":0,
			"byteLength":6888,
			"byteOffset":359200,
			"target":34962
		},
		{
			"buffer":0,
			"byteLength":6888,
			"byteOffset":366088,
			"target":34962
		},
		{
			"buffer":0,
			"byteLength":4592,
			"byteOffset":372976,
			"target":34962
		},
		{
			"buffer":0,
			"byteLength":6888,
			"byteOffset":377568,
			"target":34962
		},
		{
			"buffer":0,
			"byteLength":6888,
			"byteOffset":384456,
			"target":34962
		},
		{
			"buffer":0,
			"byteLength":4592,
			"byteOffset":391344,
			"target":34962
		},
		{
			"buffer":0,
			"byteLength":6888,
			"byteOffset":395936,
			"target":34962
		},
		{
			"buffer":0,
			"byteLength":6888,
			"byteOffset":402824,
			"target":34962
		},
		{
			"buffer":0,
			"byteLength":4592,
			"byteOffset":409712,
			"target":34962
		},
		{
			"buffer":0,
			"byteLength":6888,
			"byteOffset":414304,
			"target":34962
		},
		{
			"buffer":0,
			"byteLength":6888,
			"byteOffset":421192,
			"target":34962
		},
		{
			"buffer":0,
			"byteLength":4592,
			"byteOffset":428080,
			"target":34962
		},
		{
			"buffer":0,
			"byteLength":8,
			"byteOffset":432672
		},
		{
			"buffer":0,
			"byteLength":24,
			"byteOffset":432680
		},
		{
			"buffer":0,
			"byteLength":32,
			"byteOffset":432704
		},
		{
			"buffer":0,
			"byteLength":24,
			"byteOffset":432736
		},
		{
			"buffer":0,
			"byteLength":24,
			"byteOffset":432760
		},
		{
			"buffer":0,
			"byteLength":204,
			"byteOffset":432784
		},
		{
			"buffer":0,
			"byteLength":816,
			"byteOffset":432988
		},
		{
			"buffer":0,
			"byteLength":24,
			"byteOffset":433804
		},
		{
			"buffer":0,
			"byteLength":24,
			"byteOffset":433828
		},
		{
			"buffer":0,
			"byteLength":816,
			"byteOffset":433852
		},
		{
			"buffer":0,
			"byteLength":24,
			"byteOffset":434668
		},
		{
			"buffer":0,
			"byteLength":24,
			"byteOffset":434692
		},
		{
			"buffer":0,
			"byteLength":32,
			"byteOffset":434716
		},
		{
			"buffer":0,
			"byteLength":24,
			"byteOffset":434748
		},
		{
			"buffer":0,
			"byteLength":24,
			"byteOffset":434772
		},
		{
			"buffer":0,
			"byteLength":816,
			"byteOffset":434796
		},
		{
			"buffer":0,
			"byteLength":24,
			"byteOffset":435612
		},
		{
			"buffer":0,
			"byteLength":24,
			"byteOffset":435636
		},
		{
			"buffer":0,
			"byteLength":816,
			"byteOffset":435660
		},
		{
			"buffer":0,
			"byteLength":24,
			"byteOffset":436476
		},
		{
			"buffer":0,
			"byteLength":104,
			"byteOffset":436500
		},
		{
			"buffer":0,
			"byteLength":312,
			"byteOffset":436604
		},
		{
			"buffer":0,
			"byteLength":144,
			"byteOffset":436916
		},
		{
			"buffer":0,
			"byteLength":432,
			"byteOffset":437060
		},
		{
			"buffer":0,
			"byteLength":184,
			"byteOffset":437492
		},
		{
			"buffer":0,
			"byteLength":552,
			"byteOffset":437676
		},
		{
			"buffer":0,
			"byteLength":224,
			"byteOffset":438228
		},
		{
			"buffer":0,
			"byteLength":672,
			"byteOffset":438452
		},
		{
			"buffer":0,
			"byteLength":672,
			"byteOffset":439124
		},
		{
			"buffer":0,
			"byteLength":552,
			"byteOffset":439796
		},
		{
			"buffer":0,
			"byteLength":432,
			"byteOffset":440348
		},
		{
			"buffer":0,
			"byteLength":312,
			"byteOffset":440780
		}
	],
	"samplers":[
		{
			"magFilter":9729,
			"minFilter":9987
		}
	],
	"buffers":[
		{
			"byteLength":441092,
			"uri":"smallPackage.bin"
		}
	]
}
