{
	"asset":{
		"generator":"Khronos glTF Blender I/O v4.0.44",
		"version":"2.0"
	},
	"scene":0,
	"scenes":[
		{
			"name":"Scene",
			"nodes":[
				4,
				9
			]
		}
	],
	"nodes":[
		{
			"mesh":0,
			"name":"Sphere.066"
		},
		{
			"mesh":1,
			"name":"Sphere.067"
		},
		{
			"mesh":2,
			"name":"Sphere.068"
		},
		{
			"mesh":3,
			"name":"Sphere.069"
		},
		{
			"children":[
				0,
				1,
				2,
				3
			],
			"mesh":4,
			"name":"Sphere.060"
		},
		{
			"mesh":5,
			"name":"Sphere.062"
		},
		{
			"mesh":6,
			"name":"Sphere.063"
		},
		{
			"mesh":7,
			"name":"Sphere.064"
		},
		{
			"mesh":8,
			"name":"Sphere.065"
		},
		{
			"children":[
				5,
				6,
				7,
				8
			],
			"mesh":9,
			"name":"Sphere.061"
		}
	],
	"animations":[
		{
			"channels":[
				{
					"sampler":0,
					"target":{
						"node":4,
						"path":"translation"
					}
				},
				{
					"sampler":1,
					"target":{
						"node":4,
						"path":"rotation"
					}
				},
				{
					"sampler":2,
					"target":{
						"node":4,
						"path":"scale"
					}
				}
			],
			"name":"Action.038",
			"samplers":[
				{
					"input":47,
					"interpolation":"LINEAR",
					"output":48
				},
				{
					"input":47,
					"interpolation":"LINEAR",
					"output":49
				},
				{
					"input":50,
					"interpolation":"STEP",
					"output":51
				}
			]
		},
		{
			"channels":[
				{
					"sampler":0,
					"target":{
						"node":0,
						"path":"translation"
					}
				},
				{
					"sampler":1,
					"target":{
						"node":0,
						"path":"rotation"
					}
				},
				{
					"sampler":2,
					"target":{
						"node":0,
						"path":"scale"
					}
				}
			],
			"name":"Action.044",
			"samplers":[
				{
					"input":50,
					"interpolation":"LINEAR",
					"output":52
				},
				{
					"input":50,
					"interpolation":"LINEAR",
					"output":53
				},
				{
					"input":50,
					"interpolation":"STEP",
					"output":54
				}
			]
		},
		{
			"channels":[
				{
					"sampler":0,
					"target":{
						"node":1,
						"path":"translation"
					}
				},
				{
					"sampler":1,
					"target":{
						"node":1,
						"path":"rotation"
					}
				},
				{
					"sampler":2,
					"target":{
						"node":1,
						"path":"scale"
					}
				}
			],
			"name":"Action.045",
			"samplers":[
				{
					"input":50,
					"interpolation":"LINEAR",
					"output":55
				},
				{
					"input":50,
					"interpolation":"LINEAR",
					"output":56
				},
				{
					"input":50,
					"interpolation":"STEP",
					"output":57
				}
			]
		},
		{
			"channels":[
				{
					"sampler":0,
					"target":{
						"node":2,
						"path":"translation"
					}
				},
				{
					"sampler":1,
					"target":{
						"node":2,
						"path":"rotation"
					}
				},
				{
					"sampler":2,
					"target":{
						"node":2,
						"path":"scale"
					}
				}
			],
			"name":"Action.046",
			"samplers":[
				{
					"input":50,
					"interpolation":"LINEAR",
					"output":58
				},
				{
					"input":50,
					"interpolation":"LINEAR",
					"output":59
				},
				{
					"input":50,
					"interpolation":"STEP",
					"output":60
				}
			]
		},
		{
			"channels":[
				{
					"sampler":0,
					"target":{
						"node":3,
						"path":"translation"
					}
				},
				{
					"sampler":1,
					"target":{
						"node":3,
						"path":"rotation"
					}
				},
				{
					"sampler":2,
					"target":{
						"node":3,
						"path":"scale"
					}
				}
			],
			"name":"Action.047",
			"samplers":[
				{
					"input":50,
					"interpolation":"LINEAR",
					"output":61
				},
				{
					"input":50,
					"interpolation":"LINEAR",
					"output":62
				},
				{
					"input":50,
					"interpolation":"STEP",
					"output":63
				}
			]
		},
		{
			"channels":[
				{
					"sampler":0,
					"target":{
						"node":9,
						"path":"translation"
					}
				},
				{
					"sampler":1,
					"target":{
						"node":9,
						"path":"rotation"
					}
				},
				{
					"sampler":2,
					"target":{
						"node":9,
						"path":"scale"
					}
				}
			],
			"name":"Action.039",
			"samplers":[
				{
					"input":47,
					"interpolation":"LINEAR",
					"output":64
				},
				{
					"input":47,
					"interpolation":"LINEAR",
					"output":65
				},
				{
					"input":50,
					"interpolation":"LINEAR",
					"output":66
				}
			]
		},
		{
			"channels":[
				{
					"sampler":0,
					"target":{
						"node":5,
						"path":"translation"
					}
				},
				{
					"sampler":1,
					"target":{
						"node":5,
						"path":"rotation"
					}
				},
				{
					"sampler":2,
					"target":{
						"node":5,
						"path":"scale"
					}
				}
			],
			"name":"Action.040",
			"samplers":[
				{
					"input":50,
					"interpolation":"LINEAR",
					"output":67
				},
				{
					"input":50,
					"interpolation":"LINEAR",
					"output":68
				},
				{
					"input":50,
					"interpolation":"STEP",
					"output":69
				}
			]
		},
		{
			"channels":[
				{
					"sampler":0,
					"target":{
						"node":6,
						"path":"translation"
					}
				},
				{
					"sampler":1,
					"target":{
						"node":6,
						"path":"rotation"
					}
				},
				{
					"sampler":2,
					"target":{
						"node":6,
						"path":"scale"
					}
				}
			],
			"name":"Action.041",
			"samplers":[
				{
					"input":50,
					"interpolation":"LINEAR",
					"output":70
				},
				{
					"input":50,
					"interpolation":"LINEAR",
					"output":71
				},
				{
					"input":50,
					"interpolation":"STEP",
					"output":72
				}
			]
		},
		{
			"channels":[
				{
					"sampler":0,
					"target":{
						"node":7,
						"path":"translation"
					}
				},
				{
					"sampler":1,
					"target":{
						"node":7,
						"path":"rotation"
					}
				},
				{
					"sampler":2,
					"target":{
						"node":7,
						"path":"scale"
					}
				}
			],
			"name":"Action.042",
			"samplers":[
				{
					"input":50,
					"interpolation":"LINEAR",
					"output":73
				},
				{
					"input":50,
					"interpolation":"LINEAR",
					"output":74
				},
				{
					"input":50,
					"interpolation":"STEP",
					"output":75
				}
			]
		},
		{
			"channels":[
				{
					"sampler":0,
					"target":{
						"node":8,
						"path":"translation"
					}
				},
				{
					"sampler":1,
					"target":{
						"node":8,
						"path":"rotation"
					}
				},
				{
					"sampler":2,
					"target":{
						"node":8,
						"path":"scale"
					}
				}
			],
			"name":"Action.043",
			"samplers":[
				{
					"input":50,
					"interpolation":"LINEAR",
					"output":76
				},
				{
					"input":50,
					"interpolation":"LINEAR",
					"output":77
				},
				{
					"input":50,
					"interpolation":"STEP",
					"output":78
				}
			]
		}
	],
	"materials":[
		{
			"doubleSided":true,
			"name":"Blueberry",
			"normalTexture":{
				"index":0,
				"texCoord":1
			},
			"pbrMetallicRoughness":{
				"baseColorTexture":{
					"index":1,
					"texCoord":1
				},
				"metallicFactor":0,
				"metallicRoughnessTexture":{
					"index":2,
					"texCoord":1
				}
			}
		},
		{
			"name":"Material.003",
			"normalTexture":{
				"index":3,
				"texCoord":1
			},
			"pbrMetallicRoughness":{
				"baseColorTexture":{
					"index":4,
					"texCoord":1
				},
				"metallicFactor":0,
				"metallicRoughnessTexture":{
					"index":5,
					"texCoord":1
				}
			}
		},
		{
			"doubleSided":true,
			"name":"buscute",
			"normalTexture":{
				"index":6,
				"texCoord":1
			},
			"pbrMetallicRoughness":{
				"baseColorTexture":{
					"index":7,
					"texCoord":1
				},
				"metallicFactor":0,
				"metallicRoughnessTexture":{
					"index":8,
					"texCoord":1
				}
			}
		},
		{
			"doubleSided":true,
			"name":"Chocolate 01",
			"normalTexture":{
				"index":9,
				"texCoord":1
			},
			"pbrMetallicRoughness":{
				"baseColorTexture":{
					"index":10,
					"texCoord":1
				},
				"metallicFactor":0,
				"metallicRoughnessTexture":{
					"index":11,
					"texCoord":1
				}
			}
		},
		{
			"doubleSided":true,
			"name":"Neptune",
			"pbrMetallicRoughness":{
				"baseColorTexture":{
					"index":12
				},
				"metallicFactor":0,
				"roughnessFactor":0.5854545831680298
			}
		}
	],
	"meshes":[
		{
			"name":"Sphere.070",
			"primitives":[
				{
					"attributes":{
						"POSITION":0,
						"NORMAL":1,
						"TEXCOORD_0":2,
						"TEXCOORD_1":3
					},
					"indices":4,
					"material":0
				}
			]
		},
		{
			"name":"Sphere.071",
			"primitives":[
				{
					"attributes":{
						"POSITION":5,
						"NORMAL":6,
						"TEXCOORD_0":7,
						"TEXCOORD_1":8
					},
					"indices":9,
					"material":1
				}
			]
		},
		{
			"name":"Sphere.072",
			"primitives":[
				{
					"attributes":{
						"POSITION":10,
						"NORMAL":11,
						"TEXCOORD_0":12,
						"TEXCOORD_1":13
					},
					"indices":14,
					"material":2
				}
			]
		},
		{
			"name":"Sphere.073",
			"primitives":[
				{
					"attributes":{
						"POSITION":15,
						"NORMAL":16,
						"TEXCOORD_0":17,
						"TEXCOORD_1":18
					},
					"indices":19,
					"material":3
				}
			]
		},
		{
			"name":"Sphere.001",
			"primitives":[
				{
					"attributes":{
						"POSITION":20,
						"NORMAL":21,
						"TEXCOORD_0":22
					},
					"indices":23,
					"material":4
				}
			]
		},
		{
			"name":"Sphere.039",
			"primitives":[
				{
					"attributes":{
						"POSITION":24,
						"NORMAL":25,
						"TEXCOORD_0":26,
						"TEXCOORD_1":27
					},
					"indices":28,
					"material":0
				}
			]
		},
		{
			"name":"Sphere.040",
			"primitives":[
				{
					"attributes":{
						"POSITION":29,
						"NORMAL":30,
						"TEXCOORD_0":31,
						"TEXCOORD_1":32
					},
					"indices":33,
					"material":1
				}
			]
		},
		{
			"name":"Sphere.041",
			"primitives":[
				{
					"attributes":{
						"POSITION":34,
						"NORMAL":35,
						"TEXCOORD_0":36,
						"TEXCOORD_1":37
					},
					"indices":38,
					"material":2
				}
			]
		},
		{
			"name":"Sphere.048",
			"primitives":[
				{
					"attributes":{
						"POSITION":39,
						"NORMAL":40,
						"TEXCOORD_0":41,
						"TEXCOORD_1":42
					},
					"indices":43,
					"material":3
				}
			]
		},
		{
			"name":"Sphere.029",
			"primitives":[
				{
					"attributes":{
						"POSITION":44,
						"NORMAL":45,
						"TEXCOORD_0":46
					},
					"indices":23,
					"material":4
				}
			]
		}
	],
	"textures":[
		{
			"sampler":0,
			"source":0
		},
		{
			"sampler":0,
			"source":1
		},
		{
			"sampler":0,
			"source":2
		},
		{
			"sampler":0,
			"source":0
		},
		{
			"sampler":0,
			"source":1
		},
		{
			"sampler":0,
			"source":2
		},
		{
			"sampler":0,
			"source":0
		},
		{
			"sampler":0,
			"source":1
		},
		{
			"sampler":0,
			"source":2
		},
		{
			"sampler":0,
			"source":0
		},
		{
			"sampler":0,
			"source":1
		},
		{
			"sampler":0,
			"source":2
		},
		{
			"sampler":0,
			"source":3
		}
	],
	"images":[
		{
			"mimeType":"image/png",
			"name":"Neptune normal",
			"uri":"Neptune%20normal.png"
		},
		{
			"mimeType":"image/png",
			"name":"Neptune color",
			"uri":"Neptune%20color.png"
		},
		{
			"mimeType":"image/png",
			"name":"Neptune roughness",
			"uri":"Neptune%20roughness.png"
		},
		{
			"mimeType":"image/jpeg",
			"name":"2k_neptune",
			"uri":"2k_neptune.jpg"
		}
	],
	"accessors":[
		{
			"bufferView":0,
			"componentType":5126,
			"count":216,
			"max":[
				0.8858171105384827,
				0.8858180046081543,
				0.02771739475429058
			],
			"min":[
				-0.8858177661895752,
				-0.8858180046081543,
				-0.02722591906785965
			],
			"type":"VEC3"
		},
		{
			"bufferView":1,
			"componentType":5126,
			"count":216,
			"type":"VEC3"
		},
		{
			"bufferView":2,
			"componentType":5126,
			"count":216,
			"type":"VEC2"
		},
		{
			"bufferView":3,
			"componentType":5126,
			"count":216,
			"type":"VEC2"
		},
		{
			"bufferView":4,
			"componentType":5123,
			"count":576,
			"type":"SCALAR"
		},
		{
			"bufferView":5,
			"componentType":5126,
			"count":142,
			"max":[
				0.9999990463256836,
				1,
				1.1680879197228933e-06
			],
			"min":[
				-0.9999997019767761,
				-1,
				-0.035492632538080215
			],
			"type":"VEC3"
		},
		{
			"bufferView":6,
			"componentType":5126,
			"count":142,
			"type":"VEC3"
		},
		{
			"bufferView":7,
			"componentType":5126,
			"count":142,
			"type":"VEC2"
		},
		{
			"bufferView":8,
			"componentType":5126,
			"count":142,
			"type":"VEC2"
		},
		{
			"bufferView":9,
			"componentType":5123,
			"count":384,
			"type":"SCALAR"
		},
		{
			"bufferView":10,
			"componentType":5126,
			"count":144,
			"max":[
				0.5047303438186646,
				0.5047308802604675,
				0.053287066519260406
			],
			"min":[
				-0.5047308206558228,
				-0.5047308802604675,
				0.02103746309876442
			],
			"type":"VEC3"
		},
		{
			"bufferView":11,
			"componentType":5126,
			"count":144,
			"type":"VEC3"
		},
		{
			"bufferView":12,
			"componentType":5126,
			"count":144,
			"type":"VEC2"
		},
		{
			"bufferView":13,
			"componentType":5126,
			"count":144,
			"type":"VEC2"
		},
		{
			"bufferView":14,
			"componentType":5123,
			"count":384,
			"type":"SCALAR"
		},
		{
			"bufferView":15,
			"componentType":5126,
			"count":144,
			"max":[
				0.31900709867477417,
				0.3190075159072876,
				0.06875479221343994
			],
			"min":[
				-0.3190075159072876,
				-0.3190075159072876,
				0.028006304055452347
			],
			"type":"VEC3"
		},
		{
			"bufferView":16,
			"componentType":5126,
			"count":144,
			"type":"VEC3"
		},
		{
			"bufferView":17,
			"componentType":5126,
			"count":144,
			"type":"VEC2"
		},
		{
			"bufferView":18,
			"componentType":5126,
			"count":144,
			"type":"VEC2"
		},
		{
			"bufferView":19,
			"componentType":5123,
			"count":474,
			"type":"SCALAR"
		},
		{
			"bufferView":20,
			"componentType":5126,
			"count":287,
			"max":[
				0.9999990463256836,
				1,
				3.457416255514545e-07
			],
			"min":[
				-0.9999997019767761,
				-1,
				-0.9999993443489075
			],
			"type":"VEC3"
		},
		{
			"bufferView":21,
			"componentType":5126,
			"count":287,
			"type":"VEC3"
		},
		{
			"bufferView":22,
			"componentType":5126,
			"count":287,
			"type":"VEC2"
		},
		{
			"bufferView":23,
			"componentType":5123,
			"count":1440,
			"type":"SCALAR"
		},
		{
			"bufferView":24,
			"componentType":5126,
			"count":144,
			"max":[
				0.8858177661895752,
				0.8858180046081543,
				0.08265823125839233
			],
			"min":[
				-0.8858171105384827,
				-0.8858180046081543,
				0.027715640142560005
			],
			"type":"VEC3"
		},
		{
			"bufferView":25,
			"componentType":5126,
			"count":144,
			"type":"VEC3"
		},
		{
			"bufferView":26,
			"componentType":5126,
			"count":144,
			"type":"VEC2"
		},
		{
			"bufferView":27,
			"componentType":5126,
			"count":144,
			"type":"VEC2"
		},
		{
			"bufferView":28,
			"componentType":5123,
			"count":384,
			"type":"SCALAR"
		},
		{
			"bufferView":29,
			"componentType":5126,
			"count":144,
			"max":[
				0.9999997019767761,
				1,
				0.035492170602083206
			],
			"min":[
				-0.9999990463256836,
				-1,
				-6.46779767521366e-07
			],
			"type":"VEC3"
		},
		{
			"bufferView":30,
			"componentType":5126,
			"count":144,
			"type":"VEC3"
		},
		{
			"bufferView":31,
			"componentType":5126,
			"count":144,
			"type":"VEC2"
		},
		{
			"bufferView":32,
			"componentType":5126,
			"count":144,
			"type":"VEC2"
		},
		{
			"bufferView":33,
			"componentType":5123,
			"count":384,
			"type":"SCALAR"
		},
		{
			"bufferView":34,
			"componentType":5126,
			"count":144,
			"max":[
				0.5047308206558228,
				0.5047308802604675,
				0.1257685422897339
			],
			"min":[
				-0.5047303438186646,
				-0.5047308802604675,
				0.05328550934791565
			],
			"type":"VEC3"
		},
		{
			"bufferView":35,
			"componentType":5126,
			"count":144,
			"type":"VEC3"
		},
		{
			"bufferView":36,
			"componentType":5126,
			"count":144,
			"type":"VEC2"
		},
		{
			"bufferView":37,
			"componentType":5126,
			"count":144,
			"type":"VEC2"
		},
		{
			"bufferView":38,
			"componentType":5123,
			"count":384,
			"type":"SCALAR"
		},
		{
			"bufferView":39,
			"componentType":5126,
			"count":68,
			"max":[
				0.3190074861049652,
				0.3190075159072876,
				0.06875456869602203
			],
			"min":[
				-0.31900709867477417,
				-0.3190075159072876,
				0.06875333189964294
			],
			"type":"VEC3"
		},
		{
			"bufferView":40,
			"componentType":5126,
			"count":68,
			"type":"VEC3"
		},
		{
			"bufferView":41,
			"componentType":5126,
			"count":68,
			"type":"VEC2"
		},
		{
			"bufferView":42,
			"componentType":5126,
			"count":68,
			"type":"VEC2"
		},
		{
			"bufferView":43,
			"componentType":5123,
			"count":282,
			"type":"SCALAR"
		},
		{
			"bufferView":44,
			"componentType":5126,
			"count":287,
			"max":[
				0.9999997019767761,
				1,
				0.9999993443489075
			],
			"min":[
				-0.9999990463256836,
				-1,
				-6.46779767521366e-07
			],
			"type":"VEC3"
		},
		{
			"bufferView":45,
			"componentType":5126,
			"count":287,
			"type":"VEC3"
		},
		{
			"bufferView":46,
			"componentType":5126,
			"count":287,
			"type":"VEC2"
		},
		{
			"bufferView":47,
			"componentType":5126,
			"count":50,
			"max":[
				2.0833333333333335
			],
			"min":[
				0.041666666666666664
			],
			"type":"SCALAR"
		},
		{
			"bufferView":48,
			"componentType":5126,
			"count":50,
			"type":"VEC3"
		},
		{
			"bufferView":49,
			"componentType":5126,
			"count":50,
			"type":"VEC4"
		},
		{
			"bufferView":50,
			"componentType":5126,
			"count":2,
			"max":[
				2.0833333333333335
			],
			"min":[
				0.041666666666666664
			],
			"type":"SCALAR"
		},
		{
			"bufferView":51,
			"componentType":5126,
			"count":2,
			"type":"VEC3"
		},
		{
			"bufferView":52,
			"componentType":5126,
			"count":2,
			"type":"VEC3"
		},
		{
			"bufferView":53,
			"componentType":5126,
			"count":2,
			"type":"VEC4"
		},
		{
			"bufferView":54,
			"componentType":5126,
			"count":2,
			"type":"VEC3"
		},
		{
			"bufferView":55,
			"componentType":5126,
			"count":2,
			"type":"VEC3"
		},
		{
			"bufferView":56,
			"componentType":5126,
			"count":2,
			"type":"VEC4"
		},
		{
			"bufferView":57,
			"componentType":5126,
			"count":2,
			"type":"VEC3"
		},
		{
			"bufferView":58,
			"componentType":5126,
			"count":2,
			"type":"VEC3"
		},
		{
			"bufferView":59,
			"componentType":5126,
			"count":2,
			"type":"VEC4"
		},
		{
			"bufferView":60,
			"componentType":5126,
			"count":2,
			"type":"VEC3"
		},
		{
			"bufferView":61,
			"componentType":5126,
			"count":2,
			"type":"VEC3"
		},
		{
			"bufferView":62,
			"componentType":5126,
			"count":2,
			"type":"VEC4"
		},
		{
			"bufferView":63,
			"componentType":5126,
			"count":2,
			"type":"VEC3"
		},
		{
			"bufferView":64,
			"componentType":5126,
			"count":50,
			"type":"VEC3"
		},
		{
			"bufferView":65,
			"componentType":5126,
			"count":50,
			"type":"VEC4"
		},
		{
			"bufferView":66,
			"componentType":5126,
			"count":2,
			"type":"VEC3"
		},
		{
			"bufferView":67,
			"componentType":5126,
			"count":2,
			"type":"VEC3"
		},
		{
			"bufferView":68,
			"componentType":5126,
			"count":2,
			"type":"VEC4"
		},
		{
			"bufferView":69,
			"componentType":5126,
			"count":2,
			"type":"VEC3"
		},
		{
			"bufferView":70,
			"componentType":5126,
			"count":2,
			"type":"VEC3"
		},
		{
			"bufferView":71,
			"componentType":5126,
			"count":2,
			"type":"VEC4"
		},
		{
			"bufferView":72,
			"componentType":5126,
			"count":2,
			"type":"VEC3"
		},
		{
			"bufferView":73,
			"componentType":5126,
			"count":2,
			"type":"VEC3"
		},
		{
			"bufferView":74,
			"componentType":5126,
			"count":2,
			"type":"VEC4"
		},
		{
			"bufferView":75,
			"componentType":5126,
			"count":2,
			"type":"VEC3"
		},
		{
			"bufferView":76,
			"componentType":5126,
			"count":2,
			"type":"VEC3"
		},
		{
			"bufferView":77,
			"componentType":5126,
			"count":2,
			"type":"VEC4"
		},
		{
			"bufferView":78,
			"componentType":5126,
			"count":2,
			"type":"VEC3"
		}
	],
	"bufferViews":[
		{
			"buffer":0,
			"byteLength":2592,
			"byteOffset":0,
			"target":34962
		},
		{
			"buffer":0,
			"byteLength":2592,
			"byteOffset":2592,
			"target":34962
		},
		{
			"buffer":0,
			"byteLength":1728,
			"byteOffset":5184,
			"target":34962
		},
		{
			"buffer":0,
			"byteLength":1728,
			"byteOffset":6912,
			"target":34962
		},
		{
			"buffer":0,
			"byteLength":1152,
			"byteOffset":8640,
			"target":34963
		},
		{
			"buffer":0,
			"byteLength":1704,
			"byteOffset":9792,
			"target":34962
		},
		{
			"buffer":0,
			"byteLength":1704,
			"byteOffset":11496,
			"target":34962
		},
		{
			"buffer":0,
			"byteLength":1136,
			"byteOffset":13200,
			"target":34962
		},
		{
			"buffer":0,
			"byteLength":1136,
			"byteOffset":14336,
			"target":34962
		},
		{
			"buffer":0,
			"byteLength":768,
			"byteOffset":15472,
			"target":34963
		},
		{
			"buffer":0,
			"byteLength":1728,
			"byteOffset":16240,
			"target":34962
		},
		{
			"buffer":0,
			"byteLength":1728,
			"byteOffset":17968,
			"target":34962
		},
		{
			"buffer":0,
			"byteLength":1152,
			"byteOffset":19696,
			"target":34962
		},
		{
			"buffer":0,
			"byteLength":1152,
			"byteOffset":20848,
			"target":34962
		},
		{
			"buffer":0,
			"byteLength":768,
			"byteOffset":22000,
			"target":34963
		},
		{
			"buffer":0,
			"byteLength":1728,
			"byteOffset":22768,
			"target":34962
		},
		{
			"buffer":0,
			"byteLength":1728,
			"byteOffset":24496,
			"target":34962
		},
		{
			"buffer":0,
			"byteLength":1152,
			"byteOffset":26224,
			"target":34962
		},
		{
			"buffer":0,
			"byteLength":1152,
			"byteOffset":27376,
			"target":34962
		},
		{
			"buffer":0,
			"byteLength":948,
			"byteOffset":28528,
			"target":34963
		},
		{
			"buffer":0,
			"byteLength":3444,
			"byteOffset":29476,
			"target":34962
		},
		{
			"buffer":0,
			"byteLength":3444,
			"byteOffset":32920,
			"target":34962
		},
		{
			"buffer":0,
			"byteLength":2296,
			"byteOffset":36364,
			"target":34962
		},
		{
			"buffer":0,
			"byteLength":2880,
			"byteOffset":38660,
			"target":34963
		},
		{
			"buffer":0,
			"byteLength":1728,
			"byteOffset":41540,
			"target":34962
		},
		{
			"buffer":0,
			"byteLength":1728,
			"byteOffset":43268,
			"target":34962
		},
		{
			"buffer":0,
			"byteLength":1152,
			"byteOffset":44996,
			"target":34962
		},
		{
			"buffer":0,
			"byteLength":1152,
			"byteOffset":46148,
			"target":34962
		},
		{
			"buffer":0,
			"byteLength":768,
			"byteOffset":47300,
			"target":34963
		},
		{
			"buffer":0,
			"byteLength":1728,
			"byteOffset":48068,
			"target":34962
		},
		{
			"buffer":0,
			"byteLength":1728,
			"byteOffset":49796,
			"target":34962
		},
		{
			"buffer":0,
			"byteLength":1152,
			"byteOffset":51524,
			"target":34962
		},
		{
			"buffer":0,
			"byteLength":1152,
			"byteOffset":52676,
			"target":34962
		},
		{
			"buffer":0,
			"byteLength":768,
			"byteOffset":53828,
			"target":34963
		},
		{
			"buffer":0,
			"byteLength":1728,
			"byteOffset":54596,
			"target":34962
		},
		{
			"buffer":0,
			"byteLength":1728,
			"byteOffset":56324,
			"target":34962
		},
		{
			"buffer":0,
			"byteLength":1152,
			"byteOffset":58052,
			"target":34962
		},
		{
			"buffer":0,
			"byteLength":1152,
			"byteOffset":59204,
			"target":34962
		},
		{
			"buffer":0,
			"byteLength":768,
			"byteOffset":60356,
			"target":34963
		},
		{
			"buffer":0,
			"byteLength":816,
			"byteOffset":61124,
			"target":34962
		},
		{
			"buffer":0,
			"byteLength":816,
			"byteOffset":61940,
			"target":34962
		},
		{
			"buffer":0,
			"byteLength":544,
			"byteOffset":62756,
			"target":34962
		},
		{
			"buffer":0,
			"byteLength":544,
			"byteOffset":63300,
			"target":34962
		},
		{
			"buffer":0,
			"byteLength":564,
			"byteOffset":63844,
			"target":34963
		},
		{
			"buffer":0,
			"byteLength":3444,
			"byteOffset":64408,
			"target":34962
		},
		{
			"buffer":0,
			"byteLength":3444,
			"byteOffset":67852,
			"target":34962
		},
		{
			"buffer":0,
			"byteLength":2296,
			"byteOffset":71296,
			"target":34962
		},
		{
			"buffer":0,
			"byteLength":200,
			"byteOffset":73592
		},
		{
			"buffer":0,
			"byteLength":600,
			"byteOffset":73792
		},
		{
			"buffer":0,
			"byteLength":800,
			"byteOffset":74392
		},
		{
			"buffer":0,
			"byteLength":8,
			"byteOffset":75192
		},
		{
			"buffer":0,
			"byteLength":24,
			"byteOffset":75200
		},
		{
			"buffer":0,
			"byteLength":24,
			"byteOffset":75224
		},
		{
			"buffer":0,
			"byteLength":32,
			"byteOffset":75248
		},
		{
			"buffer":0,
			"byteLength":24,
			"byteOffset":75280
		},
		{
			"buffer":0,
			"byteLength":24,
			"byteOffset":75304
		},
		{
			"buffer":0,
			"byteLength":32,
			"byteOffset":75328
		},
		{
			"buffer":0,
			"byteLength":24,
			"byteOffset":75360
		},
		{
			"buffer":0,
			"byteLength":24,
			"byteOffset":75384
		},
		{
			"buffer":0,
			"byteLength":32,
			"byteOffset":75408
		},
		{
			"buffer":0,
			"byteLength":24,
			"byteOffset":75440
		},
		{
			"buffer":0,
			"byteLength":24,
			"byteOffset":75464
		},
		{
			"buffer":0,
			"byteLength":32,
			"byteOffset":75488
		},
		{
			"buffer":0,
			"byteLength":24,
			"byteOffset":75520
		},
		{
			"buffer":0,
			"byteLength":600,
			"byteOffset":75544
		},
		{
			"buffer":0,
			"byteLength":800,
			"byteOffset":76144
		},
		{
			"buffer":0,
			"byteLength":24,
			"byteOffset":76944
		},
		{
			"buffer":0,
			"byteLength":24,
			"byteOffset":76968
		},
		{
			"buffer":0,
			"byteLength":32,
			"byteOffset":76992
		},
		{
			"buffer":0,
			"byteLength":24,
			"byteOffset":77024
		},
		{
			"buffer":0,
			"byteLength":24,
			"byteOffset":77048
		},
		{
			"buffer":0,
			"byteLength":32,
			"byteOffset":77072
		},
		{
			"buffer":0,
			"byteLength":24,
			"byteOffset":77104
		},
		{
			"buffer":0,
			"byteLength":24,
			"byteOffset":77128
		},
		{
			"buffer":0,
			"byteLength":32,
			"byteOffset":77152
		},
		{
			"buffer":0,
			"byteLength":24,
			"byteOffset":77184
		},
		{
			"buffer":0,
			"byteLength":24,
			"byteOffset":77208
		},
		{
			"buffer":0,
			"byteLength":32,
			"byteOffset":77232
		},
		{
			"buffer":0,
			"byteLength":24,
			"byteOffset":77264
		}
	],
	"samplers":[
		{
			"magFilter":9729,
			"minFilter":9987
		}
	],
	"buffers":[
		{
			"byteLength":77288,
			"uri":"Neptune.bin"
		}
	]
}
