{
	"asset":{
		"generator":"Khronos glTF Blender I/O v4.0.44",
		"version":"2.0"
	},
	"scene":0,
	"scenes":[
		{
			"name":"Scene",
			"nodes":[
				0,
				1,
				2,
				3,
				4,
				5,
				6,
				7,
				8,
				9,
				10,
				16
			]
		}
	],
	"nodes":[
		{
			"mesh":0,
			"name":"Sphere.121"
		},
		{
			"mesh":1,
			"name":"Plane"
		},
		{
			"mesh":2,
			"name":"Sphere.118"
		},
		{
			"mesh":3,
			"name":"Sphere.119"
		},
		{
			"mesh":4,
			"name":"Sphere.120"
		},
		{
			"mesh":5,
			"name":"Sphere.122"
		},
		{
			"mesh":6,
			"name":"Sphere.123"
		},
		{
			"mesh":7,
			"name":"Sphere.124"
		},
		{
			"mesh":8,
			"name":"Sphere.125"
		},
		{
			"mesh":9,
			"name":"Sphere.126"
		},
		{
			"mesh":10,
			"name":"Sphere.127"
		},
		{
			"name":"Bone.002",
			"rotation":[
				0.7070400714874268,
				-0.0048568579368293285,
				-0.009713023900985718,
				0.7070900797843933
			],
			"scale":[
				0.9999999403953552,
				1.0000001192092896,
				1
			],
			"translation":[
				-2.888214112317655e-10,
				5.717532157897949,
				-2.4497560957570386e-07
			]
		},
		{
			"children":[
				11
			],
			"name":"Bone.001",
			"rotation":[
				0.7070901989936829,
				1.1030878965812008e-07,
				-0.004856655839830637,
				0.7071067094802856
			],
			"scale":[
				1,
				0.9999999403953552,
				1
			],
			"translation":[
				5.587935447692871e-09,
				4.561041831970215,
				3.6913843359798193e-07
			]
		},
		{
			"children":[
				12
			],
			"name":"Bone",
			"rotation":[
				-1.185779819934396e-05,
				-0.003434167942032218,
				-0.0034341684076935053,
				0.9999882578849792
			],
			"scale":[
				1,
				0.9999999403953552,
				0.9999999403953552
			],
			"translation":[
				-0.0313267707824707,
				-2.2939319610595703,
				-2.8429901599884033
			]
		},
		{
			"name":"neutral_bone",
			"rotation":[
				-0.7071067690849304,
				0,
				0,
				0.7071067690849304
			]
		},
		{
			"mesh":11,
			"name":"Plane.004",
			"skin":0
		},
		{
			"children":[
				15,
				13,
				14
			],
			"name":"Armature"
		}
	],
	"animations":[
		{
			"channels":[
				{
					"sampler":0,
					"target":{
						"node":2,
						"path":"translation"
					}
				}
			],
			"name":"Sphere.118Action.003",
			"samplers":[
				{
					"input":60,
					"interpolation":"LINEAR",
					"output":61
				}
			]
		},
		{
			"channels":[
				{
					"sampler":0,
					"target":{
						"node":3,
						"path":"translation"
					}
				}
			],
			"name":"Sphere.119Action.003",
			"samplers":[
				{
					"input":62,
					"interpolation":"LINEAR",
					"output":63
				}
			]
		},
		{
			"channels":[
				{
					"sampler":0,
					"target":{
						"node":4,
						"path":"translation"
					}
				}
			],
			"name":"Sphere.120Action.003",
			"samplers":[
				{
					"input":64,
					"interpolation":"LINEAR",
					"output":65
				}
			]
		},
		{
			"channels":[
				{
					"sampler":0,
					"target":{
						"node":5,
						"path":"translation"
					}
				}
			],
			"name":"Sphere.122Action.003",
			"samplers":[
				{
					"input":66,
					"interpolation":"LINEAR",
					"output":67
				}
			]
		},
		{
			"channels":[
				{
					"sampler":0,
					"target":{
						"node":6,
						"path":"translation"
					}
				}
			],
			"name":"Sphere.123Action.003",
			"samplers":[
				{
					"input":68,
					"interpolation":"LINEAR",
					"output":69
				}
			]
		},
		{
			"channels":[
				{
					"sampler":0,
					"target":{
						"node":7,
						"path":"translation"
					}
				}
			],
			"name":"Sphere.124Action.003",
			"samplers":[
				{
					"input":68,
					"interpolation":"LINEAR",
					"output":70
				}
			]
		},
		{
			"channels":[
				{
					"sampler":0,
					"target":{
						"node":8,
						"path":"translation"
					}
				}
			],
			"name":"Sphere.125Action.003",
			"samplers":[
				{
					"input":66,
					"interpolation":"LINEAR",
					"output":71
				}
			]
		},
		{
			"channels":[
				{
					"sampler":0,
					"target":{
						"node":9,
						"path":"translation"
					}
				}
			],
			"name":"Sphere.126Action.003",
			"samplers":[
				{
					"input":64,
					"interpolation":"LINEAR",
					"output":72
				}
			]
		},
		{
			"channels":[
				{
					"sampler":0,
					"target":{
						"node":10,
						"path":"translation"
					}
				}
			],
			"name":"Sphere.127Action.003",
			"samplers":[
				{
					"input":62,
					"interpolation":"LINEAR",
					"output":73
				}
			]
		},
		{
			"channels":[
				{
					"sampler":0,
					"target":{
						"node":13,
						"path":"translation"
					}
				},
				{
					"sampler":1,
					"target":{
						"node":13,
						"path":"rotation"
					}
				},
				{
					"sampler":2,
					"target":{
						"node":13,
						"path":"scale"
					}
				},
				{
					"sampler":3,
					"target":{
						"node":12,
						"path":"translation"
					}
				},
				{
					"sampler":4,
					"target":{
						"node":12,
						"path":"rotation"
					}
				},
				{
					"sampler":5,
					"target":{
						"node":12,
						"path":"scale"
					}
				},
				{
					"sampler":6,
					"target":{
						"node":11,
						"path":"translation"
					}
				},
				{
					"sampler":7,
					"target":{
						"node":11,
						"path":"rotation"
					}
				},
				{
					"sampler":8,
					"target":{
						"node":11,
						"path":"scale"
					}
				}
			],
			"name":"ArmatureAction.003",
			"samplers":[
				{
					"input":74,
					"interpolation":"STEP",
					"output":75
				},
				{
					"input":74,
					"interpolation":"STEP",
					"output":76
				},
				{
					"input":74,
					"interpolation":"STEP",
					"output":77
				},
				{
					"input":74,
					"interpolation":"STEP",
					"output":78
				},
				{
					"input":79,
					"interpolation":"LINEAR",
					"output":80
				},
				{
					"input":74,
					"interpolation":"STEP",
					"output":81
				},
				{
					"input":74,
					"interpolation":"STEP",
					"output":82
				},
				{
					"input":79,
					"interpolation":"LINEAR",
					"output":83
				},
				{
					"input":74,
					"interpolation":"STEP",
					"output":84
				}
			]
		},
		{
			"channels":[
				{
					"sampler":0,
					"target":{
						"node":13,
						"path":"translation"
					}
				},
				{
					"sampler":1,
					"target":{
						"node":13,
						"path":"rotation"
					}
				},
				{
					"sampler":2,
					"target":{
						"node":13,
						"path":"scale"
					}
				},
				{
					"sampler":3,
					"target":{
						"node":12,
						"path":"translation"
					}
				},
				{
					"sampler":4,
					"target":{
						"node":12,
						"path":"rotation"
					}
				},
				{
					"sampler":5,
					"target":{
						"node":12,
						"path":"scale"
					}
				},
				{
					"sampler":6,
					"target":{
						"node":11,
						"path":"translation"
					}
				},
				{
					"sampler":7,
					"target":{
						"node":11,
						"path":"rotation"
					}
				},
				{
					"sampler":8,
					"target":{
						"node":11,
						"path":"scale"
					}
				}
			],
			"name":"ArmatureAction.004",
			"samplers":[
				{
					"input":74,
					"interpolation":"STEP",
					"output":85
				},
				{
					"input":74,
					"interpolation":"STEP",
					"output":86
				},
				{
					"input":74,
					"interpolation":"STEP",
					"output":87
				},
				{
					"input":74,
					"interpolation":"STEP",
					"output":88
				},
				{
					"input":79,
					"interpolation":"LINEAR",
					"output":89
				},
				{
					"input":74,
					"interpolation":"STEP",
					"output":90
				},
				{
					"input":74,
					"interpolation":"STEP",
					"output":91
				},
				{
					"input":79,
					"interpolation":"LINEAR",
					"output":92
				},
				{
					"input":74,
					"interpolation":"STEP",
					"output":93
				}
			]
		}
	],
	"materials":[
		{
			"doubleSided":true,
			"name":"fullPackage",
			"normalTexture":{
				"index":0,
				"texCoord":1
			},
			"pbrMetallicRoughness":{
				"baseColorTexture":{
					"index":1,
					"texCoord":1
				},
				"metallicFactor":0,
				"metallicRoughnessTexture":{
					"index":2,
					"texCoord":1
				}
			}
		},
		{
			"doubleSided":true,
			"name":"Material.004",
			"pbrMetallicRoughness":{
				"baseColorTexture":{
					"index":3
				},
				"metallicFactor":0,
				"roughnessFactor":0
			}
		},
		{
			"doubleSided":true,
			"name":"Material.008",
			"pbrMetallicRoughness":{
				"baseColorTexture":{
					"index":4
				},
				"metallicFactor":0,
				"roughnessFactor":0
			}
		},
		{
			"doubleSided":true,
			"name":"Material.009",
			"pbrMetallicRoughness":{
				"baseColorTexture":{
					"index":5
				},
				"metallicFactor":0,
				"roughnessFactor":0
			}
		},
		{
			"doubleSided":true,
			"name":"buscute.001",
			"pbrMetallicRoughness":{
				"baseColorTexture":{
					"index":6
				},
				"metallicFactor":0,
				"roughnessFactor":0
			}
		},
		{
			"doubleSided":true,
			"name":"buscute.004",
			"pbrMetallicRoughness":{
				"baseColorTexture":{
					"index":7
				},
				"metallicFactor":0,
				"roughnessFactor":0
			}
		},
		{
			"doubleSided":true,
			"name":"buscute",
			"pbrMetallicRoughness":{
				"baseColorTexture":{
					"index":8
				},
				"metallicFactor":0,
				"roughnessFactor":0
			}
		},
		{
			"doubleSided":true,
			"name":"Material.007",
			"pbrMetallicRoughness":{
				"baseColorTexture":{
					"index":9
				},
				"metallicFactor":0,
				"roughnessFactor":0
			}
		},
		{
			"doubleSided":true,
			"name":"Material.006",
			"pbrMetallicRoughness":{
				"baseColorTexture":{
					"index":10
				},
				"metallicFactor":0,
				"roughnessFactor":0
			}
		},
		{
			"doubleSided":true,
			"name":"Material.005",
			"pbrMetallicRoughness":{
				"baseColorTexture":{
					"index":11
				},
				"metallicFactor":0,
				"roughnessFactor":0
			}
		},
		{
			"doubleSided":true,
			"name":"fullPackage",
			"normalTexture":{
				"index":12,
				"texCoord":1
			},
			"pbrMetallicRoughness":{
				"baseColorTexture":{
					"index":13,
					"texCoord":1
				},
				"metallicFactor":0,
				"metallicRoughnessTexture":{
					"index":14,
					"texCoord":1
				}
			}
		}
	],
	"meshes":[
		{
			"name":"Sphere.122",
			"primitives":[
				{
					"attributes":{
						"POSITION":0,
						"NORMAL":1,
						"TEXCOORD_0":2,
						"TEXCOORD_1":3
					},
					"indices":4,
					"material":0
				}
			]
		},
		{
			"name":"Plane.003",
			"primitives":[
				{
					"attributes":{
						"POSITION":5,
						"NORMAL":6,
						"TEXCOORD_0":7,
						"TEXCOORD_1":8
					},
					"indices":9,
					"material":0
				}
			]
		},
		{
			"name":"Sphere.116",
			"primitives":[
				{
					"attributes":{
						"POSITION":10,
						"NORMAL":11,
						"TEXCOORD_0":12
					},
					"indices":13,
					"material":1
				}
			]
		},
		{
			"name":"Sphere.121",
			"primitives":[
				{
					"attributes":{
						"POSITION":14,
						"NORMAL":15,
						"TEXCOORD_0":16
					},
					"indices":13,
					"material":2
				}
			]
		},
		{
			"name":"Sphere.123",
			"primitives":[
				{
					"attributes":{
						"POSITION":17,
						"NORMAL":18,
						"TEXCOORD_0":19
					},
					"indices":13,
					"material":3
				}
			]
		},
		{
			"name":"Sphere.124",
			"primitives":[
				{
					"attributes":{
						"POSITION":20,
						"NORMAL":21,
						"TEXCOORD_0":22
					},
					"indices":13,
					"material":4
				}
			]
		},
		{
			"name":"Sphere.125",
			"primitives":[
				{
					"attributes":{
						"POSITION":23,
						"NORMAL":24,
						"TEXCOORD_0":25
					},
					"indices":13,
					"material":5
				}
			]
		},
		{
			"name":"Sphere.126",
			"primitives":[
				{
					"attributes":{
						"POSITION":26,
						"NORMAL":27,
						"TEXCOORD_0":28
					},
					"indices":13,
					"material":6
				}
			]
		},
		{
			"name":"Sphere.127",
			"primitives":[
				{
					"attributes":{
						"POSITION":29,
						"NORMAL":30,
						"TEXCOORD_0":31
					},
					"indices":13,
					"material":7
				}
			]
		},
		{
			"name":"Sphere.128",
			"primitives":[
				{
					"attributes":{
						"POSITION":32,
						"NORMAL":33,
						"TEXCOORD_0":34
					},
					"indices":13,
					"material":8
				}
			]
		},
		{
			"name":"Sphere.129",
			"primitives":[
				{
					"attributes":{
						"POSITION":35,
						"NORMAL":36,
						"TEXCOORD_0":37
					},
					"indices":13,
					"material":9
				}
			]
		},
		{
			"name":"Plane.005",
			"primitives":[
				{
					"attributes":{
						"POSITION":38,
						"NORMAL":39,
						"TEXCOORD_0":40,
						"TEXCOORD_1":41,
						"JOINTS_0":42,
						"WEIGHTS_0":43
					},
					"indices":44,
					"material":10
				},
				{
					"attributes":{
						"POSITION":45,
						"NORMAL":46,
						"TEXCOORD_0":47,
						"TEXCOORD_1":48,
						"JOINTS_0":49,
						"WEIGHTS_0":50
					},
					"indices":51,
					"material":10
				},
				{
					"attributes":{
						"POSITION":52,
						"NORMAL":53,
						"TEXCOORD_0":54,
						"TEXCOORD_1":55,
						"JOINTS_0":56,
						"WEIGHTS_0":57
					},
					"indices":58,
					"material":10
				}
			]
		}
	],
	"textures":[
		{
			"sampler":0,
			"source":0
		},
		{
			"sampler":0,
			"source":1
		},
		{
			"sampler":0,
			"source":2
		},
		{
			"sampler":0,
			"source":3
		},
		{
			"sampler":0,
			"source":4
		},
		{
			"sampler":0,
			"source":5
		},
		{
			"sampler":0,
			"source":6
		},
		{
			"sampler":0,
			"source":7
		},
		{
			"sampler":0,
			"source":8
		},
		{
			"sampler":0,
			"source":9
		},
		{
			"sampler":0,
			"source":10
		},
		{
			"sampler":0,
			"source":11
		},
		{
			"sampler":0,
			"source":0
		},
		{
			"sampler":0,
			"source":1
		},
		{
			"sampler":0,
			"source":2
		}
	],
	"images":[
		{
			"mimeType":"image/png",
			"name":"coverNormal",
			"uri":"coverNormal.png"
		},
		{
			"mimeType":"image/png",
			"name":"coverColor",
			"uri":"coverColor.png"
		},
		{
			"mimeType":"image/png",
			"name":"coverRoughness",
			"uri":"coverRoughness.png"
		},
		{
			"mimeType":"image/jpeg",
			"name":"8k_sun",
			"uri":"8k_sun.jpg"
		},
		{
			"mimeType":"image/jpeg",
			"name":"8k_mercury",
			"uri":"8k_mercury.jpg"
		},
		{
			"mimeType":"image/jpeg",
			"name":"8k_mars",
			"uri":"8k_mars.jpg"
		},
		{
			"mimeType":"image/jpeg",
			"name":"8k_jupiter",
			"uri":"8k_jupiter.jpg"
		},
		{
			"mimeType":"image/jpeg",
			"name":"8k_earth_daymap",
			"uri":"8k_earth_daymap.jpg"
		},
		{
			"mimeType":"image/jpeg",
			"name":"8k_venus_surface",
			"uri":"8k_venus_surface.jpg"
		},
		{
			"mimeType":"image/jpeg",
			"name":"8k_saturn",
			"uri":"8k_saturn.jpg"
		},
		{
			"mimeType":"image/jpeg",
			"name":"2k_uranus",
			"uri":"2k_uranus.jpg"
		},
		{
			"mimeType":"image/jpeg",
			"name":"2k_neptune",
			"uri":"2k_neptune.jpg"
		}
	],
	"skins":[
		{
			"inverseBindMatrices":59,
			"joints":[
				13,
				12,
				11,
				14
			],
			"name":"Armature"
		}
	],
	"accessors":[
		{
			"bufferView":0,
			"componentType":5126,
			"count":3545,
			"max":[
				11.06983470916748,
				-0.092201367020607,
				2.84665846824646
			],
			"min":[
				-11.069110870361328,
				-2.0939159393310547,
				-2.8272573947906494
			],
			"type":"VEC3"
		},
		{
			"bufferView":1,
			"componentType":5126,
			"count":3545,
			"type":"VEC3"
		},
		{
			"bufferView":2,
			"componentType":5126,
			"count":3545,
			"type":"VEC2"
		},
		{
			"bufferView":3,
			"componentType":5126,
			"count":3545,
			"type":"VEC2"
		},
		{
			"bufferView":4,
			"componentType":5123,
			"count":15060,
			"type":"SCALAR"
		},
		{
			"bufferView":5,
			"componentType":5126,
			"count":68,
			"max":[
				11.359634399414062,
				2.2670021057128906,
				2.8771822452545166
			],
			"min":[
				-11.32830810546875,
				-2.293931484222412,
				-2.822993040084839
			],
			"type":"VEC3"
		},
		{
			"bufferView":6,
			"componentType":5126,
			"count":68,
			"type":"VEC3"
		},
		{
			"bufferView":7,
			"componentType":5126,
			"count":68,
			"type":"VEC2"
		},
		{
			"bufferView":8,
			"componentType":5126,
			"count":68,
			"type":"VEC2"
		},
		{
			"bufferView":9,
			"componentType":5123,
			"count":132,
			"type":"SCALAR"
		},
		{
			"bufferView":10,
			"componentType":5126,
			"count":574,
			"max":[
				1.9999994039535522,
				1.9888641834259033,
				1.999998688697815
			],
			"min":[
				-1.9999994039535522,
				-2.0111358165740967,
				-1.999998688697815
			],
			"type":"VEC3"
		},
		{
			"bufferView":11,
			"componentType":5126,
			"count":574,
			"type":"VEC3"
		},
		{
			"bufferView":12,
			"componentType":5126,
			"count":574,
			"type":"VEC2"
		},
		{
			"bufferView":13,
			"componentType":5123,
			"count":2880,
			"type":"SCALAR"
		},
		{
			"bufferView":14,
			"componentType":5126,
			"count":574,
			"max":[
				4.177728176116943,
				0.9944319725036621,
				0.9999976754188538
			],
			"min":[
				2.1777286529541016,
				-1.005568027496338,
				-1.000001072883606
			],
			"type":"VEC3"
		},
		{
			"bufferView":15,
			"componentType":5126,
			"count":574,
			"type":"VEC3"
		},
		{
			"bufferView":16,
			"componentType":5126,
			"count":574,
			"type":"VEC2"
		},
		{
			"bufferView":17,
			"componentType":5126,
			"count":574,
			"max":[
				6.336761951446533,
				0.9944319725036621,
				0.999996542930603
			],
			"min":[
				4.33676290512085,
				-1.005568027496338,
				-1.000002145767212
			],
			"type":"VEC3"
		},
		{
			"bufferView":18,
			"componentType":5126,
			"count":574,
			"type":"VEC3"
		},
		{
			"bufferView":19,
			"componentType":5126,
			"count":574,
			"type":"VEC2"
		},
		{
			"bufferView":20,
			"componentType":5126,
			"count":574,
			"max":[
				8.50926685333252,
				0.9944319725036621,
				0.9999954104423523
			],
			"min":[
				6.509267330169678,
				-1.005568027496338,
				-1.0000032186508179
			],
			"type":"VEC3"
		},
		{
			"bufferView":21,
			"componentType":5126,
			"count":574,
			"type":"VEC3"
		},
		{
			"bufferView":22,
			"componentType":5126,
			"count":574,
			"type":"VEC2"
		},
		{
			"bufferView":23,
			"componentType":5126,
			"count":574,
			"max":[
				10.69524097442627,
				0.9944319725036621,
				0.9999942779541016
			],
			"min":[
				8.69524097442627,
				-1.005568027496338,
				-1.0000044107437134
			],
			"type":"VEC3"
		},
		{
			"bufferView":24,
			"componentType":5126,
			"count":574,
			"type":"VEC3"
		},
		{
			"bufferView":25,
			"componentType":5126,
			"count":574,
			"type":"VEC2"
		},
		{
			"bufferView":26,
			"componentType":5126,
			"count":574,
			"max":[
				-8.693734169006348,
				0.9944319725036621,
				1.0000044107437134
			],
			"min":[
				-10.693734169006348,
				-1.005568027496338,
				-0.9999942779541016
			],
			"type":"VEC3"
		},
		{
			"bufferView":27,
			"componentType":5126,
			"count":574,
			"type":"VEC3"
		},
		{
			"bufferView":28,
			"componentType":5126,
			"count":574,
			"type":"VEC2"
		},
		{
			"bufferView":29,
			"componentType":5126,
			"count":574,
			"max":[
				-6.534700870513916,
				0.9944319725036621,
				1.0000033378601074
			],
			"min":[
				-8.534700393676758,
				-1.005568027496338,
				-0.9999954104423523
			],
			"type":"VEC3"
		},
		{
			"bufferView":30,
			"componentType":5126,
			"count":574,
			"type":"VEC3"
		},
		{
			"bufferView":31,
			"componentType":5126,
			"count":574,
			"type":"VEC2"
		},
		{
			"bufferView":32,
			"componentType":5126,
			"count":574,
			"max":[
				-4.362196445465088,
				0.9944319725036621,
				1.000002145767212
			],
			"min":[
				-6.3621954917907715,
				-1.005568027496338,
				-0.999996542930603
			],
			"type":"VEC3"
		},
		{
			"bufferView":33,
			"componentType":5126,
			"count":574,
			"type":"VEC3"
		},
		{
			"bufferView":34,
			"componentType":5126,
			"count":574,
			"type":"VEC2"
		},
		{
			"bufferView":35,
			"componentType":5126,
			"count":574,
			"max":[
				-2.176222085952759,
				0.9944319725036621,
				1.000001072883606
			],
			"min":[
				-4.1762213706970215,
				-1.005568027496338,
				-0.9999976754188538
			],
			"type":"VEC3"
		},
		{
			"bufferView":36,
			"componentType":5126,
			"count":574,
			"type":"VEC3"
		},
		{
			"bufferView":37,
			"componentType":5126,
			"count":574,
			"type":"VEC2"
		},
		{
			"bufferView":38,
			"componentType":5126,
			"count":116,
			"max":[
				11.12830638885498,
				2.46700382232666,
				3.0745460987091064
			],
			"min":[
				-11.159632682800293,
				-2.2939319610595703,
				-3.0429909229278564
			],
			"type":"VEC3"
		},
		{
			"bufferView":39,
			"componentType":5126,
			"count":116,
			"type":"VEC3"
		},
		{
			"bufferView":40,
			"componentType":5126,
			"count":116,
			"type":"VEC2"
		},
		{
			"bufferView":41,
			"componentType":5126,
			"count":116,
			"type":"VEC2"
		},
		{
			"bufferView":42,
			"componentType":5121,
			"count":116,
			"type":"VEC4"
		},
		{
			"bufferView":43,
			"componentType":5126,
			"count":116,
			"type":"VEC4"
		},
		{
			"bufferView":44,
			"componentType":5123,
			"count":204,
			"type":"SCALAR"
		},
		{
			"bufferView":45,
			"componentType":5126,
			"count":114,
			"max":[
				-1.8113152980804443,
				2.4975156784057617,
				1.005063533782959
			],
			"min":[
				-2.939875841140747,
				2.447514057159424,
				-1.4857490062713623
			],
			"type":"VEC3"
		},
		{
			"bufferView":46,
			"componentType":5126,
			"count":114,
			"type":"VEC3"
		},
		{
			"bufferView":47,
			"componentType":5126,
			"count":114,
			"type":"VEC2"
		},
		{
			"bufferView":48,
			"componentType":5126,
			"count":114,
			"type":"VEC2"
		},
		{
			"bufferView":49,
			"componentType":5121,
			"count":114,
			"type":"VEC4"
		},
		{
			"bufferView":50,
			"componentType":5126,
			"count":114,
			"type":"VEC4"
		},
		{
			"bufferView":51,
			"componentType":5123,
			"count":192,
			"type":"SCALAR"
		},
		{
			"bufferView":52,
			"componentType":5126,
			"count":1724,
			"max":[
				3.312803268432617,
				2.497515916824341,
				1.0307121276855469
			],
			"min":[
				-1.7286685705184937,
				2.4475131034851074,
				-0.9385688900947571
			],
			"type":"VEC3"
		},
		{
			"bufferView":53,
			"componentType":5126,
			"count":1724,
			"type":"VEC3"
		},
		{
			"bufferView":54,
			"componentType":5126,
			"count":1724,
			"type":"VEC2"
		},
		{
			"bufferView":55,
			"componentType":5126,
			"count":1724,
			"type":"VEC2"
		},
		{
			"bufferView":56,
			"componentType":5121,
			"count":1724,
			"type":"VEC4"
		},
		{
			"bufferView":57,
			"componentType":5126,
			"count":1724,
			"type":"VEC4"
		},
		{
			"bufferView":58,
			"componentType":5123,
			"count":3072,
			"type":"SCALAR"
		},
		{
			"bufferView":59,
			"componentType":5126,
			"count":4,
			"type":"MAT4"
		},
		{
			"bufferView":60,
			"componentType":5126,
			"count":19,
			"max":[
				2.7083333333333335
			],
			"min":[
				1.9583333333333333
			],
			"type":"SCALAR"
		},
		{
			"bufferView":61,
			"componentType":5126,
			"count":19,
			"type":"VEC3"
		},
		{
			"bufferView":62,
			"componentType":5126,
			"count":26,
			"max":[
				2.7083333333333335
			],
			"min":[
				1.6666666666666667
			],
			"type":"SCALAR"
		},
		{
			"bufferView":63,
			"componentType":5126,
			"count":26,
			"type":"VEC3"
		},
		{
			"bufferView":64,
			"componentType":5126,
			"count":36,
			"max":[
				2.7083333333333335
			],
			"min":[
				1.25
			],
			"type":"SCALAR"
		},
		{
			"bufferView":65,
			"componentType":5126,
			"count":36,
			"type":"VEC3"
		},
		{
			"bufferView":66,
			"componentType":5126,
			"count":46,
			"max":[
				2.7083333333333335
			],
			"min":[
				0.8333333333333334
			],
			"type":"SCALAR"
		},
		{
			"bufferView":67,
			"componentType":5126,
			"count":46,
			"type":"VEC3"
		},
		{
			"bufferView":68,
			"componentType":5126,
			"count":56,
			"max":[
				2.7083333333333335
			],
			"min":[
				0.4166666666666667
			],
			"type":"SCALAR"
		},
		{
			"bufferView":69,
			"componentType":5126,
			"count":56,
			"type":"VEC3"
		},
		{
			"bufferView":70,
			"componentType":5126,
			"count":56,
			"type":"VEC3"
		},
		{
			"bufferView":71,
			"componentType":5126,
			"count":46,
			"type":"VEC3"
		},
		{
			"bufferView":72,
			"componentType":5126,
			"count":36,
			"type":"VEC3"
		},
		{
			"bufferView":73,
			"componentType":5126,
			"count":26,
			"type":"VEC3"
		},
		{
			"bufferView":74,
			"componentType":5126,
			"count":2,
			"max":[
				2.2916666666666665
			],
			"min":[
				0.20833333333333334
			],
			"type":"SCALAR"
		},
		{
			"bufferView":75,
			"componentType":5126,
			"count":2,
			"type":"VEC3"
		},
		{
			"bufferView":76,
			"componentType":5126,
			"count":2,
			"type":"VEC4"
		},
		{
			"bufferView":77,
			"componentType":5126,
			"count":2,
			"type":"VEC3"
		},
		{
			"bufferView":78,
			"componentType":5126,
			"count":2,
			"type":"VEC3"
		},
		{
			"bufferView":79,
			"componentType":5126,
			"count":51,
			"max":[
				2.2916666666666665
			],
			"min":[
				0.20833333333333334
			],
			"type":"SCALAR"
		},
		{
			"bufferView":80,
			"componentType":5126,
			"count":51,
			"type":"VEC4"
		},
		{
			"bufferView":81,
			"componentType":5126,
			"count":2,
			"type":"VEC3"
		},
		{
			"bufferView":82,
			"componentType":5126,
			"count":2,
			"type":"VEC3"
		},
		{
			"bufferView":83,
			"componentType":5126,
			"count":51,
			"type":"VEC4"
		},
		{
			"bufferView":84,
			"componentType":5126,
			"count":2,
			"type":"VEC3"
		},
		{
			"bufferView":85,
			"componentType":5126,
			"count":2,
			"type":"VEC3"
		},
		{
			"bufferView":86,
			"componentType":5126,
			"count":2,
			"type":"VEC4"
		},
		{
			"bufferView":87,
			"componentType":5126,
			"count":2,
			"type":"VEC3"
		},
		{
			"bufferView":88,
			"componentType":5126,
			"count":2,
			"type":"VEC3"
		},
		{
			"bufferView":89,
			"componentType":5126,
			"count":51,
			"type":"VEC4"
		},
		{
			"bufferView":90,
			"componentType":5126,
			"count":2,
			"type":"VEC3"
		},
		{
			"bufferView":91,
			"componentType":5126,
			"count":2,
			"type":"VEC3"
		},
		{
			"bufferView":92,
			"componentType":5126,
			"count":51,
			"type":"VEC4"
		},
		{
			"bufferView":93,
			"componentType":5126,
			"count":2,
			"type":"VEC3"
		}
	],
	"bufferViews":[
		{
			"buffer":0,
			"byteLength":42540,
			"byteOffset":0,
			"target":34962
		},
		{
			"buffer":0,
			"byteLength":42540,
			"byteOffset":42540,
			"target":34962
		},
		{
			"buffer":0,
			"byteLength":28360,
			"byteOffset":85080,
			"target":34962
		},
		{
			"buffer":0,
			"byteLength":28360,
			"byteOffset":113440,
			"target":34962
		},
		{
			"buffer":0,
			"byteLength":30120,
			"byteOffset":141800,
			"target":34963
		},
		{
			"buffer":0,
			"byteLength":816,
			"byteOffset":171920,
			"target":34962
		},
		{
			"buffer":0,
			"byteLength":816,
			"byteOffset":172736,
			"target":34962
		},
		{
			"buffer":0,
			"byteLength":544,
			"byteOffset":173552,
			"target":34962
		},
		{
			"buffer":0,
			"byteLength":544,
			"byteOffset":174096,
			"target":34962
		},
		{
			"buffer":0,
			"byteLength":264,
			"byteOffset":174640,
			"target":34963
		},
		{
			"buffer":0,
			"byteLength":6888,
			"byteOffset":174904,
			"target":34962
		},
		{
			"buffer":0,
			"byteLength":6888,
			"byteOffset":181792,
			"target":34962
		},
		{
			"buffer":0,
			"byteLength":4592,
			"byteOffset":188680,
			"target":34962
		},
		{
			"buffer":0,
			"byteLength":5760,
			"byteOffset":193272,
			"target":34963
		},
		{
			"buffer":0,
			"byteLength":6888,
			"byteOffset":199032,
			"target":34962
		},
		{
			"buffer":0,
			"byteLength":6888,
			"byteOffset":205920,
			"target":34962
		},
		{
			"buffer":0,
			"byteLength":4592,
			"byteOffset":212808,
			"target":34962
		},
		{
			"buffer":0,
			"byteLength":6888,
			"byteOffset":217400,
			"target":34962
		},
		{
			"buffer":0,
			"byteLength":6888,
			"byteOffset":224288,
			"target":34962
		},
		{
			"buffer":0,
			"byteLength":4592,
			"byteOffset":231176,
			"target":34962
		},
		{
			"buffer":0,
			"byteLength":6888,
			"byteOffset":235768,
			"target":34962
		},
		{
			"buffer":0,
			"byteLength":6888,
			"byteOffset":242656,
			"target":34962
		},
		{
			"buffer":0,
			"byteLength":4592,
			"byteOffset":249544,
			"target":34962
		},
		{
			"buffer":0,
			"byteLength":6888,
			"byteOffset":254136,
			"target":34962
		},
		{
			"buffer":0,
			"byteLength":6888,
			"byteOffset":261024,
			"target":34962
		},
		{
			"buffer":0,
			"byteLength":4592,
			"byteOffset":267912,
			"target":34962
		},
		{
			"buffer":0,
			"byteLength":6888,
			"byteOffset":272504,
			"target":34962
		},
		{
			"buffer":0,
			"byteLength":6888,
			"byteOffset":279392,
			"target":34962
		},
		{
			"buffer":0,
			"byteLength":4592,
			"byteOffset":286280,
			"target":34962
		},
		{
			"buffer":0,
			"byteLength":6888,
			"byteOffset":290872,
			"target":34962
		},
		{
			"buffer":0,
			"byteLength":6888,
			"byteOffset":297760,
			"target":34962
		},
		{
			"buffer":0,
			"byteLength":4592,
			"byteOffset":304648,
			"target":34962
		},
		{
			"buffer":0,
			"byteLength":6888,
			"byteOffset":309240,
			"target":34962
		},
		{
			"buffer":0,
			"byteLength":6888,
			"byteOffset":316128,
			"target":34962
		},
		{
			"buffer":0,
			"byteLength":4592,
			"byteOffset":323016,
			"target":34962
		},
		{
			"buffer":0,
			"byteLength":6888,
			"byteOffset":327608,
			"target":34962
		},
		{
			"buffer":0,
			"byteLength":6888,
			"byteOffset":334496,
			"target":34962
		},
		{
			"buffer":0,
			"byteLength":4592,
			"byteOffset":341384,
			"target":34962
		},
		{
			"buffer":0,
			"byteLength":1392,
			"byteOffset":345976,
			"target":34962
		},
		{
			"buffer":0,
			"byteLength":1392,
			"byteOffset":347368,
			"target":34962
		},
		{
			"buffer":0,
			"byteLength":928,
			"byteOffset":348760,
			"target":34962
		},
		{
			"buffer":0,
			"byteLength":928,
			"byteOffset":349688,
			"target":34962
		},
		{
			"buffer":0,
			"byteLength":464,
			"byteOffset":350616,
			"target":34962
		},
		{
			"buffer":0,
			"byteLength":1856,
			"byteOffset":351080,
			"target":34962
		},
		{
			"buffer":0,
			"byteLength":408,
			"byteOffset":352936,
			"target":34963
		},
		{
			"buffer":0,
			"byteLength":1368,
			"byteOffset":353344,
			"target":34962
		},
		{
			"buffer":0,
			"byteLength":1368,
			"byteOffset":354712,
			"target":34962
		},
		{
			"buffer":0,
			"byteLength":912,
			"byteOffset":356080,
			"target":34962
		},
		{
			"buffer":0,
			"byteLength":912,
			"byteOffset":356992,
			"target":34962
		},
		{
			"buffer":0,
			"byteLength":456,
			"byteOffset":357904,
			"target":34962
		},
		{
			"buffer":0,
			"byteLength":1824,
			"byteOffset":358360,
			"target":34962
		},
		{
			"buffer":0,
			"byteLength":384,
			"byteOffset":360184,
			"target":34963
		},
		{
			"buffer":0,
			"byteLength":20688,
			"byteOffset":360568,
			"target":34962
		},
		{
			"buffer":0,
			"byteLength":20688,
			"byteOffset":381256,
			"target":34962
		},
		{
			"buffer":0,
			"byteLength":13792,
			"byteOffset":401944,
			"target":34962
		},
		{
			"buffer":0,
			"byteLength":13792,
			"byteOffset":415736,
			"target":34962
		},
		{
			"buffer":0,
			"byteLength":6896,
			"byteOffset":429528,
			"target":34962
		},
		{
			"buffer":0,
			"byteLength":27584,
			"byteOffset":436424,
			"target":34962
		},
		{
			"buffer":0,
			"byteLength":6144,
			"byteOffset":464008,
			"target":34963
		},
		{
			"buffer":0,
			"byteLength":256,
			"byteOffset":470152
		},
		{
			"buffer":0,
			"byteLength":76,
			"byteOffset":470408
		},
		{
			"buffer":0,
			"byteLength":228,
			"byteOffset":470484
		},
		{
			"buffer":0,
			"byteLength":104,
			"byteOffset":470712
		},
		{
			"buffer":0,
			"byteLength":312,
			"byteOffset":470816
		},
		{
			"buffer":0,
			"byteLength":144,
			"byteOffset":471128
		},
		{
			"buffer":0,
			"byteLength":432,
			"byteOffset":471272
		},
		{
			"buffer":0,
			"byteLength":184,
			"byteOffset":471704
		},
		{
			"buffer":0,
			"byteLength":552,
			"byteOffset":471888
		},
		{
			"buffer":0,
			"byteLength":224,
			"byteOffset":472440
		},
		{
			"buffer":0,
			"byteLength":672,
			"byteOffset":472664
		},
		{
			"buffer":0,
			"byteLength":672,
			"byteOffset":473336
		},
		{
			"buffer":0,
			"byteLength":552,
			"byteOffset":474008
		},
		{
			"buffer":0,
			"byteLength":432,
			"byteOffset":474560
		},
		{
			"buffer":0,
			"byteLength":312,
			"byteOffset":474992
		},
		{
			"buffer":0,
			"byteLength":8,
			"byteOffset":475304
		},
		{
			"buffer":0,
			"byteLength":24,
			"byteOffset":475312
		},
		{
			"buffer":0,
			"byteLength":32,
			"byteOffset":475336
		},
		{
			"buffer":0,
			"byteLength":24,
			"byteOffset":475368
		},
		{
			"buffer":0,
			"byteLength":24,
			"byteOffset":475392
		},
		{
			"buffer":0,
			"byteLength":204,
			"byteOffset":475416
		},
		{
			"buffer":0,
			"byteLength":816,
			"byteOffset":475620
		},
		{
			"buffer":0,
			"byteLength":24,
			"byteOffset":476436
		},
		{
			"buffer":0,
			"byteLength":24,
			"byteOffset":476460
		},
		{
			"buffer":0,
			"byteLength":816,
			"byteOffset":476484
		},
		{
			"buffer":0,
			"byteLength":24,
			"byteOffset":477300
		},
		{
			"buffer":0,
			"byteLength":24,
			"byteOffset":477324
		},
		{
			"buffer":0,
			"byteLength":32,
			"byteOffset":477348
		},
		{
			"buffer":0,
			"byteLength":24,
			"byteOffset":477380
		},
		{
			"buffer":0,
			"byteLength":24,
			"byteOffset":477404
		},
		{
			"buffer":0,
			"byteLength":816,
			"byteOffset":477428
		},
		{
			"buffer":0,
			"byteLength":24,
			"byteOffset":478244
		},
		{
			"buffer":0,
			"byteLength":24,
			"byteOffset":478268
		},
		{
			"buffer":0,
			"byteLength":816,
			"byteOffset":478292
		},
		{
			"buffer":0,
			"byteLength":24,
			"byteOffset":479108
		}
	],
	"samplers":[
		{
			"magFilter":9729,
			"minFilter":9987
		}
	],
	"buffers":[
		{
			"byteLength":479132,
			"uri":"choclate.bin"
		}
	]
}
