{
	"asset":{
		"generator":"Khronos glTF Blender I/O v4.0.44",
		"version":"2.0"
	},
	"extensionsUsed":[
		"KHR_materials_specular",
		"KHR_materials_ior"
	],
	"scene":0,
	"scenes":[
		{
			"name":"Scene",
			"nodes":[
				4,
				9
			]
		}
	],
	"nodes":[
		{
			"mesh":0,
			"name":"Sphere.101"
		},
		{
			"mesh":1,
			"name":"Sphere.102"
		},
		{
			"mesh":2,
			"name":"Sphere.103"
		},
		{
			"mesh":3,
			"name":"Sphere.104"
		},
		{
			"children":[
				0,
				1,
				2,
				3
			],
			"mesh":4,
			"name":"Sphere.095"
		},
		{
			"mesh":5,
			"name":"Sphere.097"
		},
		{
			"mesh":6,
			"name":"Sphere.098"
		},
		{
			"mesh":7,
			"name":"Sphere.099"
		},
		{
			"mesh":8,
			"name":"Sphere.100"
		},
		{
			"children":[
				5,
				6,
				7,
				8
			],
			"mesh":9,
			"name":"Sphere.096"
		}
	],
	"animations":[
		{
			"channels":[
				{
					"sampler":0,
					"target":{
						"node":4,
						"path":"translation"
					}
				},
				{
					"sampler":1,
					"target":{
						"node":4,
						"path":"rotation"
					}
				},
				{
					"sampler":2,
					"target":{
						"node":4,
						"path":"scale"
					}
				}
			],
			"name":"Action.104",
			"samplers":[
				{
					"input":38,
					"interpolation":"LINEAR",
					"output":39
				},
				{
					"input":38,
					"interpolation":"LINEAR",
					"output":40
				},
				{
					"input":41,
					"interpolation":"STEP",
					"output":42
				}
			]
		},
		{
			"channels":[
				{
					"sampler":0,
					"target":{
						"node":0,
						"path":"translation"
					}
				},
				{
					"sampler":1,
					"target":{
						"node":0,
						"path":"rotation"
					}
				},
				{
					"sampler":2,
					"target":{
						"node":0,
						"path":"scale"
					}
				}
			],
			"name":"Action.110",
			"samplers":[
				{
					"input":41,
					"interpolation":"LINEAR",
					"output":43
				},
				{
					"input":41,
					"interpolation":"LINEAR",
					"output":44
				},
				{
					"input":41,
					"interpolation":"STEP",
					"output":45
				}
			]
		},
		{
			"channels":[
				{
					"sampler":0,
					"target":{
						"node":1,
						"path":"translation"
					}
				},
				{
					"sampler":1,
					"target":{
						"node":1,
						"path":"rotation"
					}
				},
				{
					"sampler":2,
					"target":{
						"node":1,
						"path":"scale"
					}
				}
			],
			"name":"Action.111",
			"samplers":[
				{
					"input":41,
					"interpolation":"LINEAR",
					"output":46
				},
				{
					"input":41,
					"interpolation":"LINEAR",
					"output":47
				},
				{
					"input":41,
					"interpolation":"STEP",
					"output":48
				}
			]
		},
		{
			"channels":[
				{
					"sampler":0,
					"target":{
						"node":2,
						"path":"translation"
					}
				},
				{
					"sampler":1,
					"target":{
						"node":2,
						"path":"rotation"
					}
				},
				{
					"sampler":2,
					"target":{
						"node":2,
						"path":"scale"
					}
				}
			],
			"name":"Action.112",
			"samplers":[
				{
					"input":41,
					"interpolation":"LINEAR",
					"output":49
				},
				{
					"input":41,
					"interpolation":"LINEAR",
					"output":50
				},
				{
					"input":41,
					"interpolation":"STEP",
					"output":51
				}
			]
		},
		{
			"channels":[
				{
					"sampler":0,
					"target":{
						"node":3,
						"path":"translation"
					}
				},
				{
					"sampler":1,
					"target":{
						"node":3,
						"path":"rotation"
					}
				},
				{
					"sampler":2,
					"target":{
						"node":3,
						"path":"scale"
					}
				}
			],
			"name":"Action.113",
			"samplers":[
				{
					"input":41,
					"interpolation":"LINEAR",
					"output":52
				},
				{
					"input":41,
					"interpolation":"LINEAR",
					"output":53
				},
				{
					"input":41,
					"interpolation":"STEP",
					"output":54
				}
			]
		},
		{
			"channels":[
				{
					"sampler":0,
					"target":{
						"node":9,
						"path":"translation"
					}
				},
				{
					"sampler":1,
					"target":{
						"node":9,
						"path":"rotation"
					}
				},
				{
					"sampler":2,
					"target":{
						"node":9,
						"path":"scale"
					}
				}
			],
			"name":"Action.105",
			"samplers":[
				{
					"input":38,
					"interpolation":"LINEAR",
					"output":55
				},
				{
					"input":38,
					"interpolation":"LINEAR",
					"output":56
				},
				{
					"input":41,
					"interpolation":"LINEAR",
					"output":57
				}
			]
		},
		{
			"channels":[
				{
					"sampler":0,
					"target":{
						"node":5,
						"path":"translation"
					}
				},
				{
					"sampler":1,
					"target":{
						"node":5,
						"path":"rotation"
					}
				},
				{
					"sampler":2,
					"target":{
						"node":5,
						"path":"scale"
					}
				}
			],
			"name":"Action.106",
			"samplers":[
				{
					"input":41,
					"interpolation":"LINEAR",
					"output":58
				},
				{
					"input":41,
					"interpolation":"LINEAR",
					"output":59
				},
				{
					"input":41,
					"interpolation":"STEP",
					"output":60
				}
			]
		},
		{
			"channels":[
				{
					"sampler":0,
					"target":{
						"node":6,
						"path":"translation"
					}
				},
				{
					"sampler":1,
					"target":{
						"node":6,
						"path":"rotation"
					}
				},
				{
					"sampler":2,
					"target":{
						"node":6,
						"path":"scale"
					}
				}
			],
			"name":"Action.107",
			"samplers":[
				{
					"input":41,
					"interpolation":"LINEAR",
					"output":61
				},
				{
					"input":41,
					"interpolation":"LINEAR",
					"output":62
				},
				{
					"input":41,
					"interpolation":"STEP",
					"output":63
				}
			]
		},
		{
			"channels":[
				{
					"sampler":0,
					"target":{
						"node":7,
						"path":"translation"
					}
				},
				{
					"sampler":1,
					"target":{
						"node":7,
						"path":"rotation"
					}
				},
				{
					"sampler":2,
					"target":{
						"node":7,
						"path":"scale"
					}
				}
			],
			"name":"Action.108",
			"samplers":[
				{
					"input":41,
					"interpolation":"LINEAR",
					"output":64
				},
				{
					"input":41,
					"interpolation":"LINEAR",
					"output":65
				},
				{
					"input":41,
					"interpolation":"STEP",
					"output":66
				}
			]
		},
		{
			"channels":[
				{
					"sampler":0,
					"target":{
						"node":8,
						"path":"translation"
					}
				},
				{
					"sampler":1,
					"target":{
						"node":8,
						"path":"rotation"
					}
				},
				{
					"sampler":2,
					"target":{
						"node":8,
						"path":"scale"
					}
				}
			],
			"name":"Action.109",
			"samplers":[
				{
					"input":41,
					"interpolation":"LINEAR",
					"output":67
				},
				{
					"input":41,
					"interpolation":"LINEAR",
					"output":68
				},
				{
					"input":41,
					"interpolation":"STEP",
					"output":69
				}
			]
		}
	],
	"materials":[
		{
			"doubleSided":true,
			"extensions":{
				"KHR_materials_specular":{
					"specularFactor":0.20000000298023224
				},
				"KHR_materials_ior":{
					"ior":1.4500000476837158
				}
			},
			"name":"Honeycomb",
			"normalTexture":{
				"index":0
			},
			"pbrMetallicRoughness":{
				"baseColorTexture":{
					"index":1
				},
				"metallicFactor":0.5,
				"metallicRoughnessTexture":{
					"index":2
				}
			}
		},
		{
			"doubleSided":true,
			"extensions":{
				"KHR_materials_specular":{
					"specularFactor":0.20000000298023224
				},
				"KHR_materials_ior":{
					"ior":1.4500000476837158
				}
			},
			"name":"WhiteChocolate ",
			"normalTexture":{
				"index":3
			},
			"pbrMetallicRoughness":{
				"baseColorTexture":{
					"index":4
				},
				"metallicFactor":0.5,
				"metallicRoughnessTexture":{
					"index":5
				}
			}
		},
		{
			"doubleSided":true,
			"extensions":{
				"KHR_materials_specular":{
					"specularFactor":0.20000000298023224
				},
				"KHR_materials_ior":{
					"ior":1.4500000476837158
				}
			},
			"name":"buscute.002",
			"normalTexture":{
				"index":6
			},
			"pbrMetallicRoughness":{
				"baseColorTexture":{
					"index":7
				},
				"metallicFactor":0.5,
				"metallicRoughnessTexture":{
					"index":8
				}
			}
		},
		{
			"doubleSided":true,
			"extensions":{
				"KHR_materials_specular":{
					"specularFactor":0.20000000298023224
				},
				"KHR_materials_ior":{
					"ior":1.4500000476837158
				}
			},
			"name":"Chocolate with Nuts",
			"normalTexture":{
				"index":9
			},
			"pbrMetallicRoughness":{
				"baseColorTexture":{
					"index":10
				},
				"metallicFactor":0.5,
				"metallicRoughnessTexture":{
					"index":11
				}
			}
		},
		{
			"doubleSided":true,
			"name":"Saturn",
			"pbrMetallicRoughness":{
				"baseColorTexture":{
					"index":12
				},
				"metallicFactor":0,
				"roughnessFactor":0.5
			}
		}
	],
	"meshes":[
		{
			"name":"Sphere.100",
			"primitives":[
				{
					"attributes":{
						"POSITION":0,
						"NORMAL":1,
						"TEXCOORD_0":2
					},
					"indices":3,
					"material":0
				}
			]
		},
		{
			"name":"Sphere.101",
			"primitives":[
				{
					"attributes":{
						"POSITION":4,
						"NORMAL":5,
						"TEXCOORD_0":6
					},
					"indices":7,
					"material":1
				}
			]
		},
		{
			"name":"Sphere.102",
			"primitives":[
				{
					"attributes":{
						"POSITION":8,
						"NORMAL":9,
						"TEXCOORD_0":10
					},
					"indices":11,
					"material":2
				}
			]
		},
		{
			"name":"Sphere.103",
			"primitives":[
				{
					"attributes":{
						"POSITION":12,
						"NORMAL":13,
						"TEXCOORD_0":14
					},
					"indices":15,
					"material":3
				}
			]
		},
		{
			"name":"Sphere.025",
			"primitives":[
				{
					"attributes":{
						"POSITION":16,
						"NORMAL":17,
						"TEXCOORD_0":18
					},
					"indices":19,
					"material":4
				}
			]
		},
		{
			"name":"Sphere.056",
			"primitives":[
				{
					"attributes":{
						"POSITION":20,
						"NORMAL":21,
						"TEXCOORD_0":22
					},
					"indices":3,
					"material":0
				}
			]
		},
		{
			"name":"Sphere.065",
			"primitives":[
				{
					"attributes":{
						"POSITION":23,
						"NORMAL":24,
						"TEXCOORD_0":25
					},
					"indices":26,
					"material":1
				}
			]
		},
		{
			"name":"Sphere.098",
			"primitives":[
				{
					"attributes":{
						"POSITION":27,
						"NORMAL":28,
						"TEXCOORD_0":29
					},
					"indices":30,
					"material":2
				}
			]
		},
		{
			"name":"Sphere.099",
			"primitives":[
				{
					"attributes":{
						"POSITION":31,
						"NORMAL":32,
						"TEXCOORD_0":33
					},
					"indices":34,
					"material":3
				}
			]
		},
		{
			"name":"Sphere.052",
			"primitives":[
				{
					"attributes":{
						"POSITION":35,
						"NORMAL":36,
						"TEXCOORD_0":37
					},
					"indices":19,
					"material":4
				}
			]
		}
	],
	"textures":[
		{
			"sampler":0,
			"source":0
		},
		{
			"sampler":0,
			"source":1
		},
		{
			"sampler":0,
			"source":2
		},
		{
			"sampler":0,
			"source":0
		},
		{
			"sampler":0,
			"source":1
		},
		{
			"sampler":0,
			"source":2
		},
		{
			"sampler":0,
			"source":0
		},
		{
			"sampler":0,
			"source":1
		},
		{
			"sampler":0,
			"source":2
		},
		{
			"sampler":0,
			"source":0
		},
		{
			"sampler":0,
			"source":1
		},
		{
			"sampler":0,
			"source":2
		},
		{
			"sampler":0,
			"source":3
		}
	],
	"images":[
		{
			"mimeType":"image/png",
			"name":"Saturn normal",
			"uri":"Saturn%20normal.png"
		},
		{
			"mimeType":"image/png",
			"name":"Saturn color",
			"uri":"Saturn%20color.png"
		},
		{
			"mimeType":"image/png",
			"name":"Saturn roughness",
			"uri":"Saturn%20roughness.png"
		},
		{
			"mimeType":"image/jpeg",
			"name":"8k_saturn",
			"uri":"8k_saturn.jpg"
		}
	],
	"accessors":[
		{
			"bufferView":0,
			"componentType":5126,
			"count":32,
			"max":[
				0.23187614977359772,
				0.2318764328956604,
				-0.08752269297838211
			],
			"min":[
				-0.2318764179944992,
				-0.2318764328956604,
				-0.0875241681933403
			],
			"type":"VEC3"
		},
		{
			"bufferView":1,
			"componentType":5126,
			"count":32,
			"type":"VEC3"
		},
		{
			"bufferView":2,
			"componentType":5126,
			"count":32,
			"type":"VEC2"
		},
		{
			"bufferView":3,
			"componentType":5123,
			"count":90,
			"type":"SCALAR"
		},
		{
			"bufferView":4,
			"componentType":5126,
			"count":136,
			"max":[
				0.6868560910224915,
				0.686856746673584,
				-0.07101663947105408
			],
			"min":[
				-0.6868566870689392,
				-0.686856746673584,
				-0.10278284549713135
			],
			"type":"VEC3"
		},
		{
			"bufferView":5,
			"componentType":5126,
			"count":136,
			"type":"VEC3"
		},
		{
			"bufferView":6,
			"componentType":5126,
			"count":136,
			"type":"VEC2"
		},
		{
			"bufferView":7,
			"componentType":5123,
			"count":384,
			"type":"SCALAR"
		},
		{
			"bufferView":8,
			"componentType":5126,
			"count":134,
			"max":[
				0.9052067995071411,
				0.905207633972168,
				-0.03780712932348251
			],
			"min":[
				-0.9052073955535889,
				-0.905207633972168,
				-0.08435464650392532
			],
			"type":"VEC3"
		},
		{
			"bufferView":9,
			"componentType":5126,
			"count":134,
			"type":"VEC3"
		},
		{
			"bufferView":10,
			"componentType":5126,
			"count":134,
			"type":"VEC2"
		},
		{
			"bufferView":11,
			"componentType":5123,
			"count":384,
			"type":"SCALAR"
		},
		{
			"bufferView":12,
			"componentType":5126,
			"count":136,
			"max":[
				0.9999990463256836,
				1,
				1.1680879197228933e-06
			],
			"min":[
				-0.9999997019767761,
				-1,
				-0.04467010125517845
			],
			"type":"VEC3"
		},
		{
			"bufferView":13,
			"componentType":5126,
			"count":136,
			"type":"VEC3"
		},
		{
			"bufferView":14,
			"componentType":5126,
			"count":136,
			"type":"VEC2"
		},
		{
			"bufferView":15,
			"componentType":5123,
			"count":384,
			"type":"SCALAR"
		},
		{
			"bufferView":16,
			"componentType":5126,
			"count":287,
			"max":[
				0.9999990463256836,
				1,
				3.457416255514545e-07
			],
			"min":[
				-0.9999997019767761,
				-1,
				-0.9999993443489075
			],
			"type":"VEC3"
		},
		{
			"bufferView":17,
			"componentType":5126,
			"count":287,
			"type":"VEC3"
		},
		{
			"bufferView":18,
			"componentType":5126,
			"count":287,
			"type":"VEC2"
		},
		{
			"bufferView":19,
			"componentType":5123,
			"count":1440,
			"type":"SCALAR"
		},
		{
			"bufferView":20,
			"componentType":5126,
			"count":32,
			"max":[
				0.23187637329101562,
				0.2318764328956604,
				0.08752404898405075
			],
			"min":[
				-0.2318761944770813,
				-0.2318764328956604,
				0.08752281218767166
			],
			"type":"VEC3"
		},
		{
			"bufferView":21,
			"componentType":5126,
			"count":32,
			"type":"VEC3"
		},
		{
			"bufferView":22,
			"componentType":5126,
			"count":32,
			"type":"VEC2"
		},
		{
			"bufferView":23,
			"componentType":5126,
			"count":136,
			"max":[
				0.6868566274642944,
				0.686856746673584,
				0.1027827262878418
			],
			"min":[
				-0.6868561506271362,
				-0.686856746673584,
				0.07101699709892273
			],
			"type":"VEC3"
		},
		{
			"bufferView":24,
			"componentType":5126,
			"count":136,
			"type":"VEC3"
		},
		{
			"bufferView":25,
			"componentType":5126,
			"count":136,
			"type":"VEC2"
		},
		{
			"bufferView":26,
			"componentType":5123,
			"count":384,
			"type":"SCALAR"
		},
		{
			"bufferView":27,
			"componentType":5126,
			"count":136,
			"max":[
				0.9052073955535889,
				0.905207633972168,
				0.08435428887605667
			],
			"min":[
				-0.9052067995071411,
				-0.905207633972168,
				0.03780760243535042
			],
			"type":"VEC3"
		},
		{
			"bufferView":28,
			"componentType":5126,
			"count":136,
			"type":"VEC3"
		},
		{
			"bufferView":29,
			"componentType":5126,
			"count":136,
			"type":"VEC2"
		},
		{
			"bufferView":30,
			"componentType":5123,
			"count":384,
			"type":"SCALAR"
		},
		{
			"bufferView":31,
			"componentType":5126,
			"count":136,
			"max":[
				0.9999997019767761,
				1,
				0.04466962814331055
			],
			"min":[
				-0.9999990463256836,
				-1,
				-6.46779767521366e-07
			],
			"type":"VEC3"
		},
		{
			"bufferView":32,
			"componentType":5126,
			"count":136,
			"type":"VEC3"
		},
		{
			"bufferView":33,
			"componentType":5126,
			"count":136,
			"type":"VEC2"
		},
		{
			"bufferView":34,
			"componentType":5123,
			"count":384,
			"type":"SCALAR"
		},
		{
			"bufferView":35,
			"componentType":5126,
			"count":287,
			"max":[
				0.9999997019767761,
				1,
				0.9999993443489075
			],
			"min":[
				-0.9999990463256836,
				-1,
				-6.46779767521366e-07
			],
			"type":"VEC3"
		},
		{
			"bufferView":36,
			"componentType":5126,
			"count":287,
			"type":"VEC3"
		},
		{
			"bufferView":37,
			"componentType":5126,
			"count":287,
			"type":"VEC2"
		},
		{
			"bufferView":38,
			"componentType":5126,
			"count":50,
			"max":[
				2.0833333333333335
			],
			"min":[
				0.041666666666666664
			],
			"type":"SCALAR"
		},
		{
			"bufferView":39,
			"componentType":5126,
			"count":50,
			"type":"VEC3"
		},
		{
			"bufferView":40,
			"componentType":5126,
			"count":50,
			"type":"VEC4"
		},
		{
			"bufferView":41,
			"componentType":5126,
			"count":2,
			"max":[
				2.0833333333333335
			],
			"min":[
				0.041666666666666664
			],
			"type":"SCALAR"
		},
		{
			"bufferView":42,
			"componentType":5126,
			"count":2,
			"type":"VEC3"
		},
		{
			"bufferView":43,
			"componentType":5126,
			"count":2,
			"type":"VEC3"
		},
		{
			"bufferView":44,
			"componentType":5126,
			"count":2,
			"type":"VEC4"
		},
		{
			"bufferView":45,
			"componentType":5126,
			"count":2,
			"type":"VEC3"
		},
		{
			"bufferView":46,
			"componentType":5126,
			"count":2,
			"type":"VEC3"
		},
		{
			"bufferView":47,
			"componentType":5126,
			"count":2,
			"type":"VEC4"
		},
		{
			"bufferView":48,
			"componentType":5126,
			"count":2,
			"type":"VEC3"
		},
		{
			"bufferView":49,
			"componentType":5126,
			"count":2,
			"type":"VEC3"
		},
		{
			"bufferView":50,
			"componentType":5126,
			"count":2,
			"type":"VEC4"
		},
		{
			"bufferView":51,
			"componentType":5126,
			"count":2,
			"type":"VEC3"
		},
		{
			"bufferView":52,
			"componentType":5126,
			"count":2,
			"type":"VEC3"
		},
		{
			"bufferView":53,
			"componentType":5126,
			"count":2,
			"type":"VEC4"
		},
		{
			"bufferView":54,
			"componentType":5126,
			"count":2,
			"type":"VEC3"
		},
		{
			"bufferView":55,
			"componentType":5126,
			"count":50,
			"type":"VEC3"
		},
		{
			"bufferView":56,
			"componentType":5126,
			"count":50,
			"type":"VEC4"
		},
		{
			"bufferView":57,
			"componentType":5126,
			"count":2,
			"type":"VEC3"
		},
		{
			"bufferView":58,
			"componentType":5126,
			"count":2,
			"type":"VEC3"
		},
		{
			"bufferView":59,
			"componentType":5126,
			"count":2,
			"type":"VEC4"
		},
		{
			"bufferView":60,
			"componentType":5126,
			"count":2,
			"type":"VEC3"
		},
		{
			"bufferView":61,
			"componentType":5126,
			"count":2,
			"type":"VEC3"
		},
		{
			"bufferView":62,
			"componentType":5126,
			"count":2,
			"type":"VEC4"
		},
		{
			"bufferView":63,
			"componentType":5126,
			"count":2,
			"type":"VEC3"
		},
		{
			"bufferView":64,
			"componentType":5126,
			"count":2,
			"type":"VEC3"
		},
		{
			"bufferView":65,
			"componentType":5126,
			"count":2,
			"type":"VEC4"
		},
		{
			"bufferView":66,
			"componentType":5126,
			"count":2,
			"type":"VEC3"
		},
		{
			"bufferView":67,
			"componentType":5126,
			"count":2,
			"type":"VEC3"
		},
		{
			"bufferView":68,
			"componentType":5126,
			"count":2,
			"type":"VEC4"
		},
		{
			"bufferView":69,
			"componentType":5126,
			"count":2,
			"type":"VEC3"
		}
	],
	"bufferViews":[
		{
			"buffer":0,
			"byteLength":384,
			"byteOffset":0,
			"target":34962
		},
		{
			"buffer":0,
			"byteLength":384,
			"byteOffset":384,
			"target":34962
		},
		{
			"buffer":0,
			"byteLength":256,
			"byteOffset":768,
			"target":34962
		},
		{
			"buffer":0,
			"byteLength":180,
			"byteOffset":1024,
			"target":34963
		},
		{
			"buffer":0,
			"byteLength":1632,
			"byteOffset":1204,
			"target":34962
		},
		{
			"buffer":0,
			"byteLength":1632,
			"byteOffset":2836,
			"target":34962
		},
		{
			"buffer":0,
			"byteLength":1088,
			"byteOffset":4468,
			"target":34962
		},
		{
			"buffer":0,
			"byteLength":768,
			"byteOffset":5556,
			"target":34963
		},
		{
			"buffer":0,
			"byteLength":1608,
			"byteOffset":6324,
			"target":34962
		},
		{
			"buffer":0,
			"byteLength":1608,
			"byteOffset":7932,
			"target":34962
		},
		{
			"buffer":0,
			"byteLength":1072,
			"byteOffset":9540,
			"target":34962
		},
		{
			"buffer":0,
			"byteLength":768,
			"byteOffset":10612,
			"target":34963
		},
		{
			"buffer":0,
			"byteLength":1632,
			"byteOffset":11380,
			"target":34962
		},
		{
			"buffer":0,
			"byteLength":1632,
			"byteOffset":13012,
			"target":34962
		},
		{
			"buffer":0,
			"byteLength":1088,
			"byteOffset":14644,
			"target":34962
		},
		{
			"buffer":0,
			"byteLength":768,
			"byteOffset":15732,
			"target":34963
		},
		{
			"buffer":0,
			"byteLength":3444,
			"byteOffset":16500,
			"target":34962
		},
		{
			"buffer":0,
			"byteLength":3444,
			"byteOffset":19944,
			"target":34962
		},
		{
			"buffer":0,
			"byteLength":2296,
			"byteOffset":23388,
			"target":34962
		},
		{
			"buffer":0,
			"byteLength":2880,
			"byteOffset":25684,
			"target":34963
		},
		{
			"buffer":0,
			"byteLength":384,
			"byteOffset":28564,
			"target":34962
		},
		{
			"buffer":0,
			"byteLength":384,
			"byteOffset":28948,
			"target":34962
		},
		{
			"buffer":0,
			"byteLength":256,
			"byteOffset":29332,
			"target":34962
		},
		{
			"buffer":0,
			"byteLength":1632,
			"byteOffset":29588,
			"target":34962
		},
		{
			"buffer":0,
			"byteLength":1632,
			"byteOffset":31220,
			"target":34962
		},
		{
			"buffer":0,
			"byteLength":1088,
			"byteOffset":32852,
			"target":34962
		},
		{
			"buffer":0,
			"byteLength":768,
			"byteOffset":33940,
			"target":34963
		},
		{
			"buffer":0,
			"byteLength":1632,
			"byteOffset":34708,
			"target":34962
		},
		{
			"buffer":0,
			"byteLength":1632,
			"byteOffset":36340,
			"target":34962
		},
		{
			"buffer":0,
			"byteLength":1088,
			"byteOffset":37972,
			"target":34962
		},
		{
			"buffer":0,
			"byteLength":768,
			"byteOffset":39060,
			"target":34963
		},
		{
			"buffer":0,
			"byteLength":1632,
			"byteOffset":39828,
			"target":34962
		},
		{
			"buffer":0,
			"byteLength":1632,
			"byteOffset":41460,
			"target":34962
		},
		{
			"buffer":0,
			"byteLength":1088,
			"byteOffset":43092,
			"target":34962
		},
		{
			"buffer":0,
			"byteLength":768,
			"byteOffset":44180,
			"target":34963
		},
		{
			"buffer":0,
			"byteLength":3444,
			"byteOffset":44948,
			"target":34962
		},
		{
			"buffer":0,
			"byteLength":3444,
			"byteOffset":48392,
			"target":34962
		},
		{
			"buffer":0,
			"byteLength":2296,
			"byteOffset":51836,
			"target":34962
		},
		{
			"buffer":0,
			"byteLength":200,
			"byteOffset":54132
		},
		{
			"buffer":0,
			"byteLength":600,
			"byteOffset":54332
		},
		{
			"buffer":0,
			"byteLength":800,
			"byteOffset":54932
		},
		{
			"buffer":0,
			"byteLength":8,
			"byteOffset":55732
		},
		{
			"buffer":0,
			"byteLength":24,
			"byteOffset":55740
		},
		{
			"buffer":0,
			"byteLength":24,
			"byteOffset":55764
		},
		{
			"buffer":0,
			"byteLength":32,
			"byteOffset":55788
		},
		{
			"buffer":0,
			"byteLength":24,
			"byteOffset":55820
		},
		{
			"buffer":0,
			"byteLength":24,
			"byteOffset":55844
		},
		{
			"buffer":0,
			"byteLength":32,
			"byteOffset":55868
		},
		{
			"buffer":0,
			"byteLength":24,
			"byteOffset":55900
		},
		{
			"buffer":0,
			"byteLength":24,
			"byteOffset":55924
		},
		{
			"buffer":0,
			"byteLength":32,
			"byteOffset":55948
		},
		{
			"buffer":0,
			"byteLength":24,
			"byteOffset":55980
		},
		{
			"buffer":0,
			"byteLength":24,
			"byteOffset":56004
		},
		{
			"buffer":0,
			"byteLength":32,
			"byteOffset":56028
		},
		{
			"buffer":0,
			"byteLength":24,
			"byteOffset":56060
		},
		{
			"buffer":0,
			"byteLength":600,
			"byteOffset":56084
		},
		{
			"buffer":0,
			"byteLength":800,
			"byteOffset":56684
		},
		{
			"buffer":0,
			"byteLength":24,
			"byteOffset":57484
		},
		{
			"buffer":0,
			"byteLength":24,
			"byteOffset":57508
		},
		{
			"buffer":0,
			"byteLength":32,
			"byteOffset":57532
		},
		{
			"buffer":0,
			"byteLength":24,
			"byteOffset":57564
		},
		{
			"buffer":0,
			"byteLength":24,
			"byteOffset":57588
		},
		{
			"buffer":0,
			"byteLength":32,
			"byteOffset":57612
		},
		{
			"buffer":0,
			"byteLength":24,
			"byteOffset":57644
		},
		{
			"buffer":0,
			"byteLength":24,
			"byteOffset":57668
		},
		{
			"buffer":0,
			"byteLength":32,
			"byteOffset":57692
		},
		{
			"buffer":0,
			"byteLength":24,
			"byteOffset":57724
		},
		{
			"buffer":0,
			"byteLength":24,
			"byteOffset":57748
		},
		{
			"buffer":0,
			"byteLength":32,
			"byteOffset":57772
		},
		{
			"buffer":0,
			"byteLength":24,
			"byteOffset":57804
		}
	],
	"samplers":[
		{
			"magFilter":9729,
			"minFilter":9987
		}
	],
	"buffers":[
		{
			"byteLength":57828,
			"uri":"Saturn.bin"
		}
	]
}
