{
	"asset":{
		"generator":"Khronos glTF Blender I/O v4.0.44",
		"version":"2.0"
	},
	"scene":0,
	"scenes":[
		{
			"name":"Scene",
			"nodes":[
				0
			]
		}
	],
	"nodes":[
		{
			"mesh":0,
			"name":"Plane.005",
			"scale":[
				128.38246154785156,
				79.78703308105469,
				79.78703308105469
			],
			"translation":[
				-0.0313267707824707,
				-2.7946929931640625,
				-15.390518188476562
			]
		}
	],
	"materials":[
		{
			"doubleSided":true,
			"name":"insidecover2",
			"pbrMetallicRoughness":{
				"baseColorFactor":[
					0.03511495888233185,
					0.03511495888233185,
					0.03511495888233185,
					1
				],
				"metallicFactor":0
			}
		}
	],
	"meshes":[
		{
			"name":"Plane",
			"primitives":[
				{
					"attributes":{
						"POSITION":0,
						"NORMAL":1,
						"TEXCOORD_0":2
					},
					"indices":3,
					"material":0
				}
			]
		}
	],
	"accessors":[
		{
			"bufferView":0,
			"componentType":5126,
			"count":22,
			"max":[
				1,
				0.7566377520561218,
				0.8584553003311157
			],
			"min":[
				-1,
				0,
				-0.33861279487609863
			],
			"type":"VEC3"
		},
		{
			"bufferView":1,
			"componentType":5126,
			"count":22,
			"type":"VEC3"
		},
		{
			"bufferView":2,
			"componentType":5126,
			"count":22,
			"type":"VEC2"
		},
		{
			"bufferView":3,
			"componentType":5123,
			"count":54,
			"type":"SCALAR"
		}
	],
	"bufferViews":[
		{
			"buffer":0,
			"byteLength":264,
			"byteOffset":0,
			"target":34962
		},
		{
			"buffer":0,
			"byteLength":264,
			"byteOffset":264,
			"target":34962
		},
		{
			"buffer":0,
			"byteLength":176,
			"byteOffset":528,
			"target":34962
		},
		{
			"buffer":0,
			"byteLength":108,
			"byteOffset":704,
			"target":34963
		}
	],
	"buffers":[
		{
			"byteLength":812,
			"uri":"sudio.bin"
		}
	]
}
