{
	"asset":{
		"generator":"Khronos glTF Blender I/O v4.0.44",
		"version":"2.0"
	},
	"scene":0,
	"scenes":[
		{
			"name":"Scene",
			"nodes":[
				0,
				1
			]
		}
	],
	"nodes":[
		{
			"mesh":0,
			"name":"Text.008",
			"rotation":[
				0.7071068286895752,
				0,
				0,
				0.7071068286895752
			],
			"translation":[
				-1.1172136068344116,
				-0.2299223393201828,
				0.6281148195266724
			]
		},
		{
			"mesh":1,
			"name":"Sphere.001"
		}
	],
	"materials":[
		{
			"doubleSided":true,
			"name":"liquedchoclate2",
			"normalTexture":{
				"index":0
			},
			"pbrMetallicRoughness":{
				"baseColorTexture":{
					"index":1
				},
				"metallicFactor":0,
				"metallicRoughnessTexture":{
					"index":2
				}
			}
		}
	],
	"meshes":[
		{
			"name":"Text.005",
			"primitives":[
				{
					"attributes":{
						"POSITION":0,
						"NORMAL":1,
						"TEXCOORD_0":2
					},
					"indices":3,
					"material":0
				}
			]
		},
		{
			"name":"Sphere.030",
			"primitives":[
				{
					"attributes":{
						"POSITION":4,
						"NORMAL":5,
						"TEXCOORD_0":6
					},
					"indices":7,
					"material":0
				}
			]
		}
	],
	"textures":[
		{
			"sampler":0,
			"source":0
		},
		{
			"sampler":0,
			"source":1
		},
		{
			"sampler":0,
			"source":2
		}
	],
	"images":[
		{
			"mimeType":"image/png",
			"name":"\u00c9toileLogonormal",
			"uri":"%C3%89toileLogonormal.png"
		},
		{
			"mimeType":"image/png",
			"name":"\u00c9toileLogoColor",
			"uri":"%C3%89toileLogoColor.png"
		},
		{
			"mimeType":"image/png",
			"name":"\u00c9toileLogoRoughness",
			"uri":"%C3%89toileLogoRoughness.png"
		}
	],
	"accessors":[
		{
			"bufferView":0,
			"componentType":5126,
			"count":16665,
			"max":[
				2.7461400032043457,
				0.6977312564849854,
				0.19821439683437347
			],
			"min":[
				-0.546942412853241,
				-1.9265756607055664,
				-0.8740000128746033
			],
			"type":"VEC3"
		},
		{
			"bufferView":1,
			"componentType":5126,
			"count":16665,
			"type":"VEC3"
		},
		{
			"bufferView":2,
			"componentType":5126,
			"count":16665,
			"type":"VEC2"
		},
		{
			"bufferView":3,
			"componentType":5123,
			"count":35412,
			"type":"SCALAR"
		},
		{
			"bufferView":4,
			"componentType":5126,
			"count":596,
			"max":[
				0.9999997019767761,
				1,
				0.9999993443489075
			],
			"min":[
				-0.9999990463256836,
				-1,
				-1
			],
			"type":"VEC3"
		},
		{
			"bufferView":5,
			"componentType":5126,
			"count":596,
			"type":"VEC3"
		},
		{
			"bufferView":6,
			"componentType":5126,
			"count":596,
			"type":"VEC2"
		},
		{
			"bufferView":7,
			"componentType":5123,
			"count":2880,
			"type":"SCALAR"
		}
	],
	"bufferViews":[
		{
			"buffer":0,
			"byteLength":199980,
			"byteOffset":0,
			"target":34962
		},
		{
			"buffer":0,
			"byteLength":199980,
			"byteOffset":199980,
			"target":34962
		},
		{
			"buffer":0,
			"byteLength":133320,
			"byteOffset":399960,
			"target":34962
		},
		{
			"buffer":0,
			"byteLength":70824,
			"byteOffset":533280,
			"target":34963
		},
		{
			"buffer":0,
			"byteLength":7152,
			"byteOffset":604104,
			"target":34962
		},
		{
			"buffer":0,
			"byteLength":7152,
			"byteOffset":611256,
			"target":34962
		},
		{
			"buffer":0,
			"byteLength":4768,
			"byteOffset":618408,
			"target":34962
		},
		{
			"buffer":0,
			"byteLength":5760,
			"byteOffset":623176,
			"target":34963
		}
	],
	"samplers":[
		{
			"magFilter":9729,
			"minFilter":9987
		}
	],
	"buffers":[
		{
			"byteLength":628936,
			"uri":"logo3dModel.bin"
		}
	]
}
